<svg xmlns="http://www.w3.org/2000/svg" viewBox="0 0 150 150"><path d="M47.6 1.2c-2.5 2.7.9 7 2.3 9.9 2.7 5 3.2 12-.9 16.4a6.4 6.4 0 0 0 1.1 9.5c2.1 4.7-.5 10.6 4.4 14.5 2 3.4-4.7-3-5.1-5.8-3-4.3-8.6 3.9-10.5-2.6-1.7-4.5-6-8.7-11-6.4-8 2.5-9.5 12.2-11 19.3 0 4.3-4.2 4-7.4 4.2-6.1 1.1-5.4 7.8-3 11.9 3.2 5.7-8.3 7.7-5.2 13.3 5.4-.7 2 3.6 1.7 6.3 2.5 1 5.1-2.2 7.7-2.8 4-1.7 9.3 4.5 12-.5C26 84.1 26.5 76 33.7 78c2.7-2 6.2-6 9.3-1.7a25 25 0 0 0-8.3 11c-1.3 3.8-6.6 3.8-7.4 8-2.6 5.4 2.3 11.6-1.6 16.6-4.7 4.5 0 11.5 3.8 14.8 2.6 2.9.7 6.5.4 9.7 1.6 6.1 8.7 7.4 14 8.1 4 3 9.5 5.5 9.9-1.2 3.3-4 7.8-6.5 12.4-8.6 2.8-2.2-.6-6.7 3.8-8.5 4.4-1.3 5-6 5.6-9.8 2.8-3 1-7.7-.4-11.2-.2-3.9 3.9-10.6 4.1-2.6 2 4.8 4.7 9.3 7.8 13.4 1.6 5.8 7.6 8.6 12.7 10.4 4.3.1 9.6 1 11.4 5.4 4.7 4.1 8.5-7.2 14-1.9 5 .2 4.6 11 8 9.5-.3-4.9-1-10.8-4.9-14-3.7-1.6-5-6-2.9-9.4 2.4-6 6.1-12 6.3-18.5-.5-5.1 6.8 3 7 5.8 1.3 4 4.1 3.4 5.3-.6a12.8 12.8 0 0 0-3-17.6c-2-2.7 1-5.8.7-9-3-3.9-5.4-9-10-11.2-4.4-.5-8.2-1.7-8-7-1.8-4-4.4-5.2 0-8.5 3-6.5 8.4-14 16.5-12.7 3.2.1 7 4.2 9.6 1 0-2.2-1.5-4.8-2.5-7-2.8-2-7.4.3-8.3-4.3-2-5.2-8.5-7.2-13.6-7.2-4.4.5-8.2 3.1-10.5 6.9-3 2.6-7.5.5-11 2.2-4.5.4-7.3 4-9.9 7.2-3-5-7.2-9.1-11.8-12.6-1.3-4.3-1.7-10.2-7.6-11-2.7-.6-6.5.9-7.9-2.4-1.7-2.8-5.2-5-8.4-3-3.8 2.9-5.8-1.3-7-4.4-.8-1.3-2.4-.4-3.7-.9Zm1.6 1.9c2.8 2.4 4.9 6.4 7.7 9.2 3.2 4.7 8.3 8.2 9.9 14 5 10.6 4.2 22.8 5.6 34.3 0 1.6.3 9.3-.2 4.8-.6-10.8-.6-21.8-4-32.2-3.2-5.5-7.2-10.5-10-16.4C55.7 12 51 8.4 48.9 3.2ZM48 5.6c4 5.6 8.8 10.7 11.7 17 2.5 5.4 8 9.5 8.5 16 .9 2.5 1.5 9.8 1.3 10a68.2 68.2 0 0 0-15.8-31.4c-2.4-1.6-1.7-5.4-3.8-7.7-.6-1.3-1.8-2.5-1.9-4Zm14 1.9c3.4 1.5 5.5 5 5.8 8.6 1 3.7 2.6 13 0 5-2-4.4-5.4-8.3-6.6-13 .1-.3-.2-1 .7-.6Zm-2.8.4C61.7 13.7 66 19 68 25.4c-2.2-6.6-8-10.7-11.3-16.7l2.5-.8Zm9.9 5.5c4.3 1.7.4 10 2.7 14.2 1 6 1.5 12 2.9 17.8-2-6.3-2.6-13-4-19.5-.1-4.2-1.6-8.2-1.8-12.4zm4.7.1c1.9 3-1.2 9.4-.4 13.6.7 6.4.5 7.5-.4 1.4a54 54 0 0 1-.4-15zm2.8 1c3.1 2.8-1.8 9.4.4 13.7 0 6.2 1.9 12.6-.2 18.7-.4-8.1-2.6-16.2-1.8-24.4 0-2.7.4-5.5 1.6-8zm2.9 2.4c1.8 5.4-1.1 11-.6 16.5.1 6.3-1-3-.9-5.6-.2-3.7-.5-7.6 1.5-10.9zm-26.3 1.5a68.1 68.1 0 0 1 12.7 20.7 52.1 52.1 0 0 0-10.6-15.3c-1.5-1.7-3.9-2.7-2.1-5.4Zm72 2.4c4 .2-2.8 4.8-3 7-1.2 2.5-8.6 8.6-4 2.8 3-2.7 4-7 6.5-9.8zm4 .4c6 .4-.8 3.8-2.4 5.6l-7 5.7c3.7-3.2 5.6-8.3 9.5-11.3zm-7.1.4c-1.1 4.3-5 8.2-7.5 12.1-2 1.7-8.8 9.7-8 8.6 3-4 4.9-8.7 6.8-13.2 3.6-1.7 4.5-6.6 8.7-7.5zm11.5 1.4c5 1.7-2.2 2.6-3.6 4.4-2.8 2-5.7 4-8.8 5.6 4.2-3.2 8-7 12.4-10zm-81 .5a47 47 0 0 1 14.7 23.1 67 67 0 0 0-13.9-18c-2-1.5-2-3-.7-5.1Zm28.9.8c.1.4-.7-.1 0 0zm-.1.3c4.2 1.9.7 6.9 0 10.1-.5 1.4-1.5 7.7-1.7 5.4.8-5-.3-10.3 1.1-15.3l.4-.2zm54.9.4c3.6 3.8-7 3.9-8.9 6.3-3.2 1.7-7.4 3.7-1.2.3 3-2.7 7.2-4 10-6.6zm-51.4 2.3c4 1.2 2.8 4.8 1.3 7.3a53.2 53.2 0 0 1-5.6 9.4c1.4-5.5 2.5-11.3 4.3-16.7zm-34.7.5c8 7 15.8 15.5 17.9 26.3 1 4.5-2.3-4.9-4-6.3a62.2 62.2 0 0 0-15.7-16.4c.2-1.3.7-3 1.8-3.6zm87.9.5c4 3.9-4.6 2.2-6.4 3.6-3.5 0-13 5.5-5.8 1.6 4-1.8 8-3.9 12.2-5.2zm-28.4.6c4.9-.6-1.4 6.5-1.7 8.4-3 3.9-4.8 8.7-8.6 11.8 2.5-6 4.4-12.4 6.6-18.6.4-1.8 2.4-1.2 3.7-1.6zm-5.4.8c-1 5.9-3.7 11.8-5.7 17.6-1.4 4.6-2.7 3.6-1.2-.6 1-5 1.3-10.1 2-15.2 1.4-1.2 3.2-1.5 4.9-1.8zm40.3 1.8c3.7.7 4.1 7.2-.2 3.2-4.3-2.8-9.6-2.3-14.3-1 4.6-1.7 9.7-1.3 14.5-2.2zm-55.6.2c3.9 3.3-1.7 7-4.2 9.3-2 1.8 1.6-3.4 2-4.4.9-1.5 1.7-3.2 2.2-5zm-40.6 1.2c8 6 14.8 13.7 18.7 23 1.4 7-2-3.5-4-5.8-2.7-6-9.9-8.4-12.6-14.1-.5-1-2-1.8-2-3.1zm49.3.4c-.4 4.2-.6 8.4-1.5 12.5.6-4.6-3.9-9.3 1.4-12.5zm-27 .8a78.1 78.1 0 0 1 2.5 23.4c-.9-6.3-.7-12.6-1.8-18.9l-.7-4.5Zm65 .3c4 .1-3.1.6-4.7 1.1-4.5.7-8.8 3-13 4.7-4.7 2-8.6 5.2-12.6 8.1a50 50 0 0 1 18.5-11c3.8-1.4 7.7-2.6 11.7-2.9zm-43.9.7c2.5 2.4-2.2 5-4 6-6.1 4.5 4.7-4.1 4-6zm49.6 1c.2.2-.2.4 0 0zm-8 .6c.7.2-.5.2 0 0zm-1.9.5c.5 1-1 .6 0 0zm13 0c.1 0 0 .2 0 0zm-112.7.3c3.7.1 7 9.7 2.7 3.5-.2-1-4-3.3-2.7-3.5zm96 0c-3 3-7.5 3.6-11 6a47.9 47.9 0 0 1-8.2 4c5.5-4.8 12.4-7.3 19.1-10zm-99 .4c5.4 3.3 8.5 9.2 12.5 14 1.7 2.8 4.8 8 0 3.1C36 49.7 32.2 42.6 25 39.6c1-.9 2.5-1.4 3.8-1.7Zm100.9.2c.5 2-1.7 2 0 0zm-37 2.2c.8 5.8-3.3 11-3.3 16.8-.4 2.5.3-3.7.7-4.9 1-3.9 2.4-7.8 2.5-11.9zm34 .2c.2 3.2-1 1.7 0 0zm-103 .3c9.7 3.2 13.4 13.9 21.7 19 5.2 3.8-4.5-1-5.8-2.4-5.5-3.8-10.3-8.5-16.1-11.8-4-.7-1.8-2.8.3-4.8zm67.2 0c0 3.7-1.3 7.6-2.4 11.1-3.3 1.5-1.2-2-.8-4.1 1.1-2.3.4-6 3.2-7zm3.6.4c1.4 5.2-.5 11-3.6 15.2 0-5.2 3.5-9.9 3.6-15.2zm-42 .2c6.9 3.5 11 10.8 13.8 17.7 2.8 9-.9-1.4-3-4.3-1-4.7-4.8-6.1-8-9-1-1.8-4.6-1.9-2.8-4.4zm59.2.4c-.7.6-2.6 1.4 0 0zm13.6.5c1.4.4-.8 3 0 0zm-1.4.2c.6 2.7.3 5 0 .8.2-.1-.3-.7 0-.8zm-36.5.4c-.2 3.4-1.8 7-2.5 10.5-.6.5-1.2-10.1 2.5-10.5zm35 .2c1.4 4.7.1 6.7 0 1.5.1-.5-.3-1.1 0-1.5zM52 45c2.2 1.7 4.5 3.6 6.4 5.5-.8 2.1 4.8 7.5 2.3 6-1.3-4-5.4-5.6-7.7-8.7-.3-.8-1.2-2-1-2.8zm31 1c.6 1.3-.8 8.5-.8 4 .1-1.3-1.2-3.5.8-4zm-36.8 0c1.7 5 3 10.7 6.4 15.1-4.6-3.5-5.7-9.4-7.8-14.5 0-.8 1-.5 1.4-.7zm71 .1c1 4.2 1 10.5 0 3.3.8-1.2-1-3.1 0-3.3zm2.7.3c.8 3.7-.4 5.6 0 0zm-99.4 0c6.2 1.2 10.2 6.5 15.3 9.8 1 .7 5.7 4.2 2.2 2-6-3.4-12.3-6.5-19-8.6.5-.8.5-2.8 1.5-3.1zm95.9.2c-.5 3.8-1.6 4.3 0 0zm-68.3.4c1.5 3.5 4.8 5.7 4.7 9.9 0 1 4.7 7 2.4 5.2-4.2-4.2-5.4-9.7-7-15Zm-8 .1c4.3-1 4.6 4 6 6.9-.2 1.9 5 7.3 3.7 6.7-3.2-3-5.3-7.2-8.3-10.6.5-.1-2.6-2.8-1.3-3zm74 .8c2.4 5.9.2 5.1 0 0zm-1.8.4c1.7 2.5 2.6 8.2.2 2.4 0-.7-1-1.8-.2-2.4zm-32 .3c1 3 .9 6.6.1 9.7-2 2.7-.6-3.2-1-4.3.8-1.8-.1-3.9 1-5.4zm41 0c1.4 3.3-.3.8 0 0zm-10.9.2c3 4.7-1.6.5 0 0zm-57.4.1s0 .1 0 0zm55.3.8c3.7 3.3 1.3 3.2 0 0zm-2.1.8c2.4 2.1 5.4 4.9 1.4 2-.6-.7-3.7-1.1-1.4-2zm-3.6.1c-3 3-6.9 8.3-10 9.1 2.7-3.4 6.6-6.2 10-9zm-7.5.7c.3.7-1.6 2.6 0 0zm-75 .1c6.5 1.5 12.1 5.1 17.9 8.2-6.5-1.8-12.5-6-19.6-5.6-.2-1.1.2-3 1.7-2.6Zm58.2 1c-.7 3.4.7 8.4-2 10.6-.3-3.5 1.4-7 2-10.6Zm26 .2c3.1.5 6.8 5 0 0zm-3 1.2a12.5 12.5 0 0 1-4.7 4.7c1.5-1.6 3.3-3 4.7-4.7zm1.8 0c3 1-1.3 1.1 0 0zm-49.2 0c3.5 1.3 3.4 11.3.8 4-.5-1-1.2-2.7-.8-4zm33 .6c-.6 4.8-.7 10.1-4.4 13.7-.7 1.5-5.5 4-5.8 1.8-.4-4 .8-8.4 4.6-10 2-1.7 2.8-4.7 5.6-5.5zm-29.4.1c1.5 1.5 3.8 5.6 3.6 6.3-2-1.7-2.8-3.9-3.6-6.3zm60.5.8c3 1.7-7 4.9-9.9 5.6-3 .9-8.9 1.7-2.4-.3 4.4-1.7 6.4-6.3 11.7-5.2zm-24.3.2c-.2 1.7-2.3 2 0 0zm8.4 0c3.5.1-2 1.9 0 0zm-79.7.3a56 56 0 0 1 12.7 4.9c-5.9-1.2-11.8-1-17.8-.7-2-4.2 2-4.4 5-4.2zm86.3 0c2.5 1.8-7 5.3-9.2 5.4-6.8 1.1 1.5-3.7 4-3.6 1.7-.8 3.4-1.4 5.2-1.8zm12.4 1c2.9 2.7-.2 5-3.2 5.5-5 1-10.4 2-15.3 1a40.1 40.1 0 0 0 17.9-6.5h.4zm-58.5.2c1.5 2.2 4 6.2 3.2 8.6-4.7-1.5-2.6-4.5-3.2-8.6zM91 58.8c-1 2.4-1 .2 0 0zm-32.8.2c2 2.5 1.3 6.7.1 1l-.1-1zM24 60.8c6.7-.2 4 1-.4.8-5.9.5-12 .4-17.5 2.3 3.9-4.5 10.7-1.8 15.9-3h1zm67.3.7c.5 1.2-2.8 3.4-3.9 4.8-2.3 1.3 1.7-4.1 3.4-4.8zm31.5.5c2.7 3.7-3 3.2-5.2 3.3-1.8 0-6-.1-6.4-.5 4-.1 8-1.1 11.6-2.8zm-53.3.2s.1.5 0 0zm26.6.7c4.7 1.5.7 5-.7 7.3-1.8 2.9-10.2 8.2-10.5 6.4 4.3-3.8 10.4-7.3 11.2-13.4zM61 63c.4.3 0 .2 0 0zm33.2 0c.3 5.2-5.2 8.5-8.7 11.4-2.2 2-5.4 5-2 .5A28 28 0 0 1 94.2 63zm-62 .1c-.4.6-4.4 2-6 2.8-4.4 2.6-7.6 6.7-11.1 10.4 4-4.7 7.8-10.9 14.4-12.3l2.7-.9zm-12.5.1c1.2.6-7 3-9.6 3.9-3.3 3.4-7.1-1-2.7-2.2 4-1.3 8.2-1 12.3-1.7Zm25.4.8c3.4.3-6 .6-6.9 1.7A18 18 0 0 0 26 75c-2.2 3.3-4.4 7.2-3.8 11.3-1.3 4.4-5 2.8-2.3-1 2.1-7.7 6.2-16 14.4-18.7 3.6-1 7-2.6 10.9-2.6zm-21 0c-6 1.4-10.6 6-16.5 7.7-2.3-3.7 5.8-3.3 8.5-5 2.6-1 5.2-2 8-2.7zm36.5.9c1.8 0 1 2.9 0 0zm43.5.6c10 1.1 19.7 3.8 29.8 3.4 2.6 2.5 2 4.3-2 3-7.7-1.2-15-4.6-22.9-5.2l-5-1.2zm-41 .1c3.6 1.2 4.5 7.4.8 2-.2-.6-.9-1.3-.7-2zm-13.9.1c6.6-.1-.1.5-3.4 1.5a23.2 23.2 0 0 0-13.6 9.3c-5.1.7.8-4.9 2.6-6.1 4-3.3 9.3-4.7 14.4-4.7zm75.1.1c2.2.2 9.9 1.8 4 1.5-2.4-.1-11.9-.3-4-1.5zm-54 .5c1 2.4.2 2.2 0 .1zm29.4.3c4 3.1.5 6.5-2.9 8-3.3 2-6.9 4-10.8 3.7 5.8-2 10.5-6.6 13.7-11.7zm-25 .3c.4 4-.6 2.6 0 0zm-55.4.3c-5.1 3.3-8.9 8.3-14 11.8C0 83.7 8 77 8 74.2c2.2-2.6 6.6-4 9.7-6.2.5-.3 1-.7 1.6-.8zm17.4.1c-3.2 2.4-7.1 4.8-8.5 9-2.8 2.7-5.8 9.2-2.8 2 2.3-4.9 5.9-9.6 11.3-11zM85 68c-1.1 3.2-4.9 5-6.6 8 1.8-3 4.2-5.6 6.6-8zm-56.2 0a40 40 0 0 0-11.3 20.5c-4.2.3-.2-4.4 0-6.8A23.7 23.7 0 0 1 28.8 68zm25.4.1c-3.7 1.9-6.8 7-10.9 6.8-3.4-1-.2-2.9 1.3-4 2.8-2.1 6.4-2.3 9.6-2.8zm4.2 0c1.3.5-7 4.2-7.4 7.2-1.4.5-6.9 1-2.9-.9 3.5-2 6.1-5.7 10.3-6.2zm-37.6.1C17 72.3 13 76.3 10.2 81.3c-1.5 1.6-5 7.4-4.8 6.2 2.2-3.4-5.6-2.1-2.7-4.2 4.6-4.1 9.6-7.7 13.8-12.3a18 18 0 0 1 4.3-2.9zm4.5.2c-6.4 4.6-8.7 12.2-11.5 19.1-4.1.6-2.2-2.2-1-4.7 2.2-5.9 7.5-9.8 11.8-14zm77.4.4c2.6.7 4.9 7.6 1.3 2.4.1-.8-1.6-1.6-1.3-2.4zm-57 0c-2.3 1-7.2 5.8-7.8 4.1 2.3-2 4.9-3.3 7.8-4zm59.8.4c3-.4 4.8 6 1.8 3.9.3-1.6-1.9-2.6-1.8-4zm-44.4 0c5.7 1.4-6 2.3-6 4.8-3.4 5-1.7-1.4 2-2.8a8 8 0 0 1 4-2zm47.3.2c4-.3 5 4 1.2 1.2-.4-.4-1-.8-1.2-1.2zm6.4 0c6.2 1.6 12 4.3 17.8 6.9 2 1.2 9.5 1.7 6.4 3.8-6.5-2.2-11.8-6.9-18.5-8.5-2-.6-3.7-1.5-5.7-2.2zm-.3 1.2c4.9 1.6 5.3 7.8 6.6 12 .7 6.8-1.6 0-2-3-.3-3.7-3.3-5.8-4.6-9zm-49.7.8c3.3 2-7.3 3-4.8 1.2a8 8 0 0 1 4.8-1.2zm14.6.4c-1.8 3.5-4.2 7.1-2.7 1.5.3-1.1 1.7-1.4 2.7-1.5zm23.2 0c5 4.6-3.2 6.1-6.8 6.5-7.6 1.6 2.5-2.5 5-4.4.9-.4 1-1.6 1.8-2.1zm25.5.9c3.2 1.5 8-.4 10.5 2.5 3.5 3.1-2.2.8-4.1.2a30 30 0 0 1-6.4-2.7zm-17 .2c6.2 0-2.3 5.2-4 6.5-3.5 1.9-7.4 3-11.2 1.6-4-.5-3.2-1 .3-1.3 4-.1 7.7-1.9 10.5-4 2.1.2 2.8-2 4.4-2.8zm8.5.7c4.2 3.1 6.7 8.5 7.9 13.6-2.6 2.5-5.7-1.3-5-4.2-.2-3.3-1.5-6.4-3-9.4zm-53 .3c-2.3 1.7-5.5-.2 0 0zm8.3.1c.6 1-.7 2.4 0 0zm-6.3.2c1.3 1.6 3.3 4.8.7 2l-.7-2zm46.7.7c3.2 3.4-4.1 10.1-8.1 9.3-4.5-.2-5.2-2.4-.5-3.3 3-1.6 5.5-4.2 8.6-6zm-58 .3c3.2.6 5.3 1.7.7 1-1.2 0-2.7-.3-.7-1zm9.9.6c.1 0 0 .6 0 0zm60 1c5.8 3.3 10.7 8 15.1 12.8 1.2 1.9-4-3.1-5.1-3.9-3.5-2.7-7.5-5.6-10-9zm-47.9.3c-.1.4-.9 2 0 0zm-23.1.1c3-.5 13.4 2.4 5.7 1.4a27 27 0 0 0-11.6-.1c-3 1.2-6.1 2.7-9.4 1.5 1.9-2.2 4.3-.8 6.7-1.7 2.8-.8 5.7-.7 8.6-1zm10 0c3.5.6.6 1.3 0 0zm51 1c.7 3.3-3 7-5.6 8.9-3 1.2-6.7 1.8-9.3-.7-3.5-1.4-9.9-5.2-2.6-3 4.6 1.7 10.7 4.4 14.2-1 1-1.4 2-2.9 3.2-4.1zm15.3.6c2.1 1.1 4.4 2 6.4 3.4-.3 4-4.8-3.3-6.4-3.4zm-76 .4c2.2.3 5.1.6 7.4 1.2 6-.3-2.1 1.4-4.3.5-4.7-.6-10.5-1.6-14 2.3 1.5-3.1 5.9-3.7 9-4h2zm69.6.5c3 3.6 6 7.1 8.4 11.2-.8-4.2-6-2.9-6.3-6.3-.2-1.9-1-3.5-2.1-5zM12.5 80c-1.2 2.8-2.4 6-4.2 8.4-5.6 3.1 3-6 3.7-7.6zm71 .7c8.9.8 15.3 8.1 19.8 15.1 4.8 8.7 5.6 19.8 13.9 26.3 3.5 3.6 9.8 5.5 11.7 9.7-2.8-3.2-8.2-4.7-11.8-2.3-1.4 1.3-3.7 3.8-5.5 1.9-.5-3.7-2.1-7-5.3-8.8-4.3-3.5-9.8-4-14.7-5.4-4-2-5-7.9-1.5-10.8 3.7-3.3-.5-10.4-4.8-7.1-4.6 2.8-2.6-3.8-1.4-6 1.7-4.2-3-7.2-6.1-6.2.6-3.2 1.8-6.7 5.8-6.4zm-44 .4c3.6 0 7.4 1.6 2.1 2.4-2.2.8-6.6 1.8-2.8-1.8zm89.8 0c3.5 3.7 7.5 7.2 9.9 11.7 1.4 2.2 1.7 11.9.6 9-1.3-3.3-1-6.7-2.9-9.7a49 49 0 0 0-7.6-11zm-75.5.6c3 0-4.6 1.9-6.2 2.8-2.3.6 5-2.6 6.2-2.8zm64.2 0c1.2 2.8 1.6 6.4-1.3 8.2-3.2 4.6-17-.7-7-.7 4.3-.6 5.9-4.6 8.3-7.4zm-52.1 2a64.3 64.3 0 0 0-14.2 15.7 66 66 0 0 0-7.3 32c1 4.3 1.3 8.9 2.1 13.2-4-.7-3.3-7.7-4.2-11-1-6.5-.8-13 .4-19.4C45 107 49.4 100.5 53 93.8c-2.1.8-3.1 3.9-4.6 5.8-2.8 5.5-6.3 10.8-7.6 16.9-1.2 9-.3 18 1.8 26.7-5 .4-3.8-8.3-4.6-12.4-.7-6.4 1.5-12.6 2.7-18.7A49.6 49.6 0 0 1 52 92.7c1.8-2 5.1-5 6.5-5.3-3.8 2-3.9 5.7-.4 1.7 2.4-2 5-3.8 7.8-5.3zm3 0c1.7.7-3.6 2.4-3.9 4a40.8 40.8 0 0 0-8.3 9.8 49.6 49.6 0 0 0-8 36c0 4.6 0 9.1 1.3 13.5-3.3-1.4-2.6-6.6-3.5-9.5a59.6 59.6 0 0 1 7.7-40.9c4.2-4.6 8.2-9.9 13.9-12.7zm-24.7.6c1 2.8-4.7 3-6.6 4.6-5 3.6-2.7-1.6-.5-3l7.1-1.6zm8.2 1c-1.2.7-2.4 1.4 0 0zm20.7 1c2.8 3 1 3.3 0 0zm-1.8.7c2.2 2.2 5 6.3.8 1.7-.2-.6-.7-1-.8-1.7Zm65.8 0c2.6 2 5 4.3 7.4 6.6 1.7 4.3-1.8 1.5-2.8-.7-1.5-2-3-4-4.6-5.8zm-92.5.1c-5.8 2.9-10 8.5-16.4 10.4-.9-3.3 3.3-6 6.4-6 3.4-1.2 6.6-3 10-4.4zm4.8.1c-2.9 2.3-6.7 4.1 0 0zm-2.8.4c-5 3.8-9.4 8-13.7 12.5-2.8 5.3-8.1 2.6-4.5-1.4 6.8-2 11.4-8.7 18.2-11zm83.1.5c.9.9 5.6 10.7 2.3 4.6-.5-1.5-2.2-3-2.3-4.6zm-8 .2c2.9 2.2 2.7 2.9 0 0zm-1.9 0c5.3 4.4-1.5 5.2-5.7 6.5-1.7 1.7-11.9-4.4-5.6-2 4.2 1.7 9-.7 11.3-4.5zm8.3.6c.8 1.6 4.2 7.3.7 2.6 0-.6-2.3-2.3-.7-2.6zm-74.4.2a53 53 0 0 0-12.8 17.6 101 101 0 0 0-4.6 21.2c0 4.8.7 9.7 1.8 14.2-2.8.2-8-3-5.3-6.5 4.7-10.4 4.2-22.4 9.6-32.7a35.6 35.6 0 0 1 11.3-13.8zm13.2 0a28 28 0 0 0 3.4 19.4c1.8 3.5 1.8 7.5 3 11.2-.6 4.7-1.3-4.2-2.7-5.4a37.3 37.3 0 0 1-3.9-24.8zm2.1 0c.7 2 .1 5.6 2.3 6-.7-3.3-.7-4.3.8-.6.3 2.4 4.6 4.1 2.3 6.3-2-.3-5.5-5.7-2 .3.7 1.6 3 10 2 7.7-2-3.7-2-8.3-4.2-12C69 93.7 69 93 69 90.2v-1zm55.5.1c1.2.8 1.5 2 0 0zm-76.5.2a86.5 86.5 0 0 0-19.6 25.2c-1.9 5.7-5.5 2.3-2.4-1.1 1.9-3.9 5.8-6 7.8-9.9 3.8-4.8 8.2-9.1 12.7-13.2l.7-.5zm34 .6c-2 1.8-4.1 1.3 0 0zm-32 .5c-4.4 4.6-8 10-10.3 16a24.7 24.7 0 0 1 10.3-16zm27.7.9c.1 0 0 .4 0 0zm-1.6.3c3 4.7-1.1 4.3-.7.6l.4-.5zM43 92c-4.5 4.8-9 9.5-13 14.7-2 3.5-3-1.8-1-2.4 5.3-3.4 9-8.4 14-12.3zm39.4.6c-.6.7-3.6 4.2-4 2.6 1.2-1 2.6-1.9 4-2.6zm-14.7.7c1.1 5 3.6 9.7 4.2 14.9 2.2.7 3.6 9.7 1.5 5.8-.6-6.5-6-11.5-5.8-18.2v-1.1zm-3 0c-.9 9.4 3 18.1 6.2 26.7 2 5.3-5.8 7.7-2.7 1.4 1.6-7-4-13-3.9-19.8a20 20 0 0 1 .3-8.3zm-1.4.6c-1.5 7.8 1.5 15.5 3.7 23 .3 3.4-1 11.2-1.6 11.5-.3-5.2 1.4-10.7-1.4-15.5-1.1-6.2-4.3-13.2-.7-19Zm59 .3c3-.1 7.1 1.5 7.5 4.6a13 13 0 0 0-13-2.1c-4.1 2.2-15.4-4.7-6.5-.4 4.3 1.6 7.9-1.8 12-2zm19 .8c3.7 2.2 4 5.7.6 8.9-.5-2.7.5-6.1-.6-9zm-36 1.8c5.9 6 7.8 14.6 13.1 21 4.6.9 4.2 5.3 7 8 0 .4-4.4-2.5-5.5-3.5a28.8 28.8 0 0 1-10.9-15.5c-1.4-3.3-2.5-6.6-3.8-10zm-24.5.3c.5 0-1.7.5 0 0zm40.3.1c3.1.1 7.2 1.3 8.7 4.3-1.6 3.9-8.2-1.5-12.2-.3-2.8-.8-8.8-4-1.9-2.8 1.9 0 3.5-1.1 5.4-1.2zm-79.2.3c-3 5.7-4.4 12-6.5 18-1.1 3-2.5 15.1-6.3 9.5-1.9-3.4 4.5-6.8 4.8-10.6 2.6-5.7 3.3-12.4 8-17zm16.7.3a48 48 0 0 0-4.3 21.8 51 51 0 0 1-1.5 20c.5 3.6-2.5 7.7-2.3 1.4 0-6.1-1.2-12.2-1.1-18.3.6-8.2 3.7-16 8-23 .5-.6.8-1.3 1.2-2zm20.8.2c0 .4-.3 0 0 0zm29.3.5c3.8 3.4 7.7 7 12.7 8.3 3.3 1 6.4 4.7 3.5 7.4-2.4-4.4-8-5.6-10.8-9.6-1.8-2-4-3.8-5.4-6.1zm-28.1.5s-.3.1 0 0zm9 2c1.3.6-3 1 0 0zm-8 0c2 .5-4.2 2.3 0 0zm4.7.3c-1.4 1.2-2 1.3 0 0zm27.7 0c4.3 3 10.4.6 14.2 4.4-.3 5.4-3 1.9-5.8 0-3-1.2-6.2-1.8-8.4-4.3zm-53.7.8c.6 6.9 4.3 13.2 3.9 20.2-2.5 3.8 3 10.6-1.3 12.7-.6-4.2.3-10.6-1.4-15.3-1-5.8-2.8-11.8-1.2-17.6zm-23.7 1.2c-2.5 6.6-4.3 14.6-9.7 19.3-3-4 4-6.8 4.4-11 1.6-2.9 3.4-5.7 5.3-8.3zm22 .3c-.9 10.7 4.6 21.2 2.2 32-2.9 2.4-1.1-3-1.6-4.6-.2-9.1-2.8-18.4-.5-27.4Zm31.1.3c.1 1-.9 0 0 0zm-5.4.4c-1.5 1.4-2.6 1.8 0 0zm-26.9.3c-1.6 10.5 1.5 21 .4 31.5.5 1.8-2.6 4.5-3.4 3.9.5-6 2.3-12 1.1-18-.7-6 .1-11.7 2-17.4zm55 .3c3.1 3.5 7.5 5.7 10.7 9.1 2 1.6.3 6-2.1 3.6-4.7-2.4-6.2-8.5-8.6-12.7zm-25.3.4c-.8 1.3-5.5 4.7-2.8 2l2.8-2zm-3.4 3.7c0 .2-.1 0 0 0zm-45.5 1.5c-2.7 8.4-3 17.5-7.3 25.3.4-5.3 2.4-10 4.3-15 1-3.5 1.6-7 3-10.3zm48.1 1.6c.5.8-1 .6 0 0zm1.6 3.7zm1.3 1.6c.6.6-1 .3 0 0zm6.4 2c0 1.2-5.4 3.9-1.1 1l1-1zm1.8.5c.2.8-6.2 5.3-1.8 1.3l1-.5zm2.3.6c-.6 1.2-3 2.8-4.1 3.1 1-1.4 2.7-2.4 4.1-3.1zm3 1.5c-1.4 1.5-7 4.7-2.2 1.2l1-.7zm3 2c.3 1.4-5.4 3.2 0 0zm-4.5 1c-.4 1.5-1.8.5 0 0zm6.5.5c1.3.6-2.2 1.5 0 0zm19.2 1.3c3.2 2.4 3.2 4.4 0 0zm-15.6 5.2s.1 0 0 0z"/></svg>