<svg xmlns="http://www.w3.org/2000/svg" viewBox="0 0 150 150"><path d="M48.6 38.5c.1-4.8 1.8-9.3 2.6-14-2.4-3-1.3-6.7.7-9.8 3.8-2.8 9-3 12.8-5.7a44 44 0 0 1 16.6 1.4 6.6 6.6 0 0 1 9 3.1c2 2.2 4.8 3.6 6.7 6 5.4 5.4.3 14.4.7 21.5.5 2-5.3 12.2-.9 9 3-2.5 6.9-3.7 9.2-6.8 2.1-1.6 5.2-.6 7.1-2.8 3.4-3 7.1 1 9.5 3.5 3 4.2 3.2-3.6 6.4-3.2 3.4.5 6.6-.5 8.7 2.7 1.9 2.8 3.5 5.9 7 6.9 5.6 1.3 6.3 6.8 3 10.7a48.6 48.6 0 0 0-3.2 10.5c-1.2 3.4-2.2 6.8-3.5 10-2.2 3-5.1 5.6-8 8-3.4 1.5-7.2 2.2-10.7 3.5-3.2.2-6 2-9.2 2.6 2.8 1.5 6.6 1 9.5-.6 5.7-.3 10.3 3.9 12.1 9.2 2 5.5-5.6 5.5-7.1 9 2.2 3-3.1 6.7-5 9.5-2.1 2.7-5.6 5.3-9.2 3.1-5.1 0-9.7-2-14.5-3.6-2.9-1.2-6-2.9-9.1-2.7C86 124 80 125 76 129.1c-4.5 3.3-10 3.3-15.2 4.1-3.5 0-6.8 1.5-9.2 4-3 2.7-7.2 3.2-10.9 3.3-3 .7-6.5.2-8.6-1.8-3.3-.9-4.8-4.2-6.3-7-1.6-.9-.6-3.8-2.8-4.1-2.1-2-2.7-5.3-5-7.3a30 30 0 0 1-3.9-14.8c-.7-3.2 1.1-5.8 2-8.7.1-6.6 6.7-1.7 9.6.4 2 2 4.7 3 7.5 2.2.7-1-2.9-3.2-3.9-4.7-5-5.7-6-13.8-11.2-19.2-2.7-4.4-4.7-9.3-9.3-12.1-2-1.5-2.8-4-4.1-5.9-3-1.2-3-3.4-4.6-5.1a47 47 0 0 1 3-9.7C4.5 39 5.8 36 8.7 33.4 10 31 13 30.3 14 27.8c3.4-1 6.6-.1 9.8-1 2.3-1.3 4.7-.1 7.2-.8 5.5.5 10 5.2 13.1 9.6l4 7.8.5-4.9zm67.6 82.5c2.1.6 11-1.4 4.7-1.3-3.7-1-10.3 3-3 3 7.2-1.2 0-.7-3.4-1.6l1.7-.1zm-74.1-19.9c4.3 1.9-4.6-2.5-4.7-4.2-6.7-6.8-9.9-16.1-15.7-23.6.4 2.3 1.3 5.6 2.9 7.7 5.2 6.9 8.4 16.5 17 19.8l.4.2zm1.1 6.7c-5.5-1.5-11.3-4.4-17.2-5.4-3.5-.5-7.8-2.4-10.8-.9-1.4 4.2 3.6 1.5 5.9 2.5 7 .2 13.9 2.4 20.8 3.6.5-.2.9-.1 1.3.2zm39.5-33c3.4-10.4 7.9-20.7 8.7-31.8.8-7.9 3.3-15.7 2.5-23.7-1-4.3-1.2 6.2-2 8-2.2 12.9-2.8 26-6.6 38.7-1 3.1-2 6.8-2.7 9.7l.1-.9zm30.6 48.2c-.4-2.7 1.5-5.3.1-7.9 0-2.7-2.5-4-4.4-5.4-.8-1.6-1-3.7-3-4.4-5.4 4.9-11.6 8.8-17.9 12.5 2.5 1.3 6.9 1 9.6 3 5 1.7 10 4 15.4 3.9l.2-.8zM77.2 84.9c2.6-1-1.5-3.5 2.4-3.2 1.2-1-.2-3.1-1.4-2-1-2.8-2.5 2.9-2.2-1 0-3-2.6 1.5-4-.8-1.1 2.4-2.8 4.5-2.4 7.2-2 1.7-.8 4.6-2.7 6.5l-4.1 10.3c1.4 2.2-4.1 5 .3 7 3.6 1.9 7.7.8 8.7-2.3-1-4 2.4-8.6 3.8-12.6-2-1.5 3.2-3.4 1-6 .3-1.4 1.7-1.9.6-3.1Zm1.5 11.8c5.7-4.7 11.4-9.4 16.5-15 5.1-4.2 9.9-8.9 14.6-13.6 8.2-8.4 17.6-15.6 25.8-24 .1-4.8-6.6 4.1-9 5.4a356 356 0 0 0-29.8 29.3A189.3 189.3 0 0 1 80 93.9c-.6.7-6 6.3-1.4 2.8Zm-21.8 5.5c-5.6-8.3-10.4-17-13.9-26.4a62.2 62.2 0 0 0-19-25.1c-4.8-4.8-12-5-18.4-4.9-4.3-.4-4.6 5-.1 2.2 10.3-.7 20 5 26.6 12.7 4.3 4 6.4 9.7 9 14.8 4.7 9.7 10 19.2 16.5 27.8.3-.3-.6-.8-.7-1.1zM12.4 33.8c8.4 1 16 5.3 21.6 11.4 5.7 4.7 9.4 11.2 13.2 17.4C51 70.6 53 79 56 87.2c-1.3-8.1-3-16.3-6.5-23.8a89.8 89.8 0 0 0-24.7-29C22.3 31 8.9 30 11.3 33.8ZM52 96.3c-5.1-8-9.7-16.3-13.4-25-3-5.7-6.7-11-11.8-15a29.3 29.3 0 0 0-23-7.5c-4 1.1-2.9 5.4 1 2.1 9.8-2.3 18.5 4.5 25 11.2 5.7 6 8.8 14 13.3 20.8 4 5.7 6.7 12.4 11.4 17.7-.5-1.4-1.7-2.9-2.5-4.3Zm87.7-47.7c-13.8 9-24 22.5-37 32.5-7.7 7.1-16 13.7-24.2 20.2-.3.8 3.4-2 4.7-2.7 5.4-3.4 9.6-8.2 15-11.6 8-6.9 16.8-12.8 23.8-20.8 5.7-5.9 11.6-11.7 18.5-16.3l-.8-1.3zm-63.9 52.3c5.5-5 11.6-9.5 17.2-14.4 6.9-6.4 14.4-12.2 20.9-19 7.7-7.7 15.7-14.8 24.3-21.4-1.7-5.2-5.4 2.3-7.8 3.7-8.4 7.6-17.1 15-25 23.3-5 5-10.8 9.2-15.3 14.7-4.8 4.2-10 8-14.4 12.6l.1.2zM3.2 54.4c7-4.2 15.2-.1 20 5.3 12.5 11 18.3 27.2 29.2 39.4-4.5-6-7.4-13.1-12.1-19a61.7 61.7 0 0 0-19.6-25c-5.3-4-12.8-5.8-18.9-2.7.8.3 1.4 1.1 1.4 2zm8.9-18.3c9.7.7 18.3 6.5 23.9 14.3 4.3 4.9 8.6 9.9 10.6 16.2 5 9.7 6.6 21 12.6 30.2 2.4 4.3-3-5.8-3.4-7.8-2.6-8-4.5-16.1-7.9-23.8a63.1 63.1 0 0 0-16.3-21.8 30.6 30.6 0 0 0-21.3-9.2c-3.3 2.3-.2 1.8 1.8 1.9zm42.8 54.3c-3.6-8.7-5.7-18-10.1-26.3-3-6.8-8.7-12-13.2-17.7-6-6-14.3-10.6-23-9.8-5.6 1.2-.9 2.8 2.3 2.2 5.8.6 11.6 2.3 16 6.2C38.6 53 44.7 66 50 78.5c2.1 5.4 3.9 11 6.9 16 0-1.1-1.4-2.8-1.9-4.1zm20 15.1c8.5-5 16.7-10.6 23.8-17.5 6-4.9 12.5-9.3 18.1-14.7a341 341 0 0 1 20.4-17.5c.8-1.5 8.5-5.7 3.6-5.7-11 7.2-19.2 17.7-29 26.3-5 3.8-10 7.9-14.8 12-5.6 3.8-10.2 9-16.3 12.3-2.6 1.9-5.4 3.5-7.9 5.5l1-.1zM10.7 60.4c7-.9 11.6 4.8 15 10 7.3 8.9 11.6 19.9 19.6 28.3 2.2 2.2 7.8 4.9 2.5.7-5.3-5-7.8-12-12.2-17.8-5.4-8.2-10.5-17.2-19-22.4a12.7 12.7 0 0 0-9-.5c-2 .8 2.7 2 3.1 1.7ZM6.2 45.2c6.2-.1 13.2.1 18 4.7 11.5 8.1 18 21 23 33.9 3.4 7 7.3 14 12 20.1 3 2.7-1.3-2.3-2-3.4-6.6-8.6-9.8-19.1-13.8-29-3.2-5.1-6.1-10.4-9.7-15.2-5-5-10-10.7-17.3-12-3.5-.6-13.6-2.4-12.5 1.3l2.3-.4Zm8.9-14.4c9.9.8 17 8.8 23 15.8 6.7 8.2 13.7 16.9 15.5 27.6.6 1 1.4 6.6 1.5 3.4-.8-6.7-3.8-13-6.3-19.2-6.2-9.2-13.2-18-22-24.9-3.4-2-7.2-5.1-11.4-4.5-2-.8-3 2.7-.3 1.8Zm65.2 62.1c13.2-10.2 23.2-23.6 35.7-34.5 5.6-5.3 11.5-10.2 17-15.5-2.6-3-4 3.5-6.5 4.6-5 4.7-10.8 8.4-15.3 13.6-10.6 10.2-19.9 21.5-30.6 31.5-2.1 2.2-4.7 5-.3.3ZM65.8 73.1c-.8-9.3-3.7-18.2-3.7-27.6a73.7 73.7 0 0 0-7.5-30.3c-3.5-.3 1.3 7.2 1.7 10.4 3.4 11 5.9 22.2 6.6 33.7.3 5.8 1.3 11.6 2.5 17.3.5 8 .8-1.2.4-3.5Zm-6 27.1a55.5 55.5 0 0 1-8-15.3c-2.8-6.1-4.5-12.6-8-18.3C38 55.3 29.4 44 16.5 40.6c-3.5-.7-7.7-2.1-11-.6 4.5 1.4 10.6.5 15 3.4C32.4 49 40 60.3 45.3 71.8c4 8 6.4 16.8 11 24.5.6 1 5.5 8 4.4 5.3l-.9-1.4ZM5.3 43a28 28 0 0 1 24.1 8.7c6.6 6 11.2 13.7 15.2 21.6A95 95 0 0 0 59.8 103c3 2.9-.7-1.9-1.7-3-3.1-4-5.4-8.6-7.3-13.4C47.6 78.9 45 71 40.6 63.9A43.6 43.6 0 0 0 15.3 42c-2.1-.6-12.9-2.6-10 .9Zm60.9-27.7c4 12.3 2 25.3 2.2 37.9.1 6.4-.2 12.8.6 19.2.9-3.1.5-7.1.7-10.6-.4-9.5.6-19 .1-28.6 0-7.4 1.2-15.4-2.2-22.3-4.9-2.7-1.6 2.5-1.4 4.4Zm72.5 31.5c-7.5 5.4-14.2 11.8-21 18a309 309 0 0 1-21.5 20C90.7 90 84.6 94.5 79 99.5c-4 3.9 3.8-2.1 5.3-3.6 5.5-3.7 10.2-8.4 15.4-12.5 7.2-6.5 15-12.4 21.4-19.7C126.8 58 133.2 53 139.7 48l-1-1.2zM80 77.9c2.4-7.7 5-15.5 5.6-23.6 1.6-12.8 2.6-25.8 6.2-38.3-2.6-3.2-2.2 1.5-2.7 3.4-1.8 10-4.3 19.8-4.4 30-.8 8-1.4 16-3.8 23.6.2 1-3 6.3-.9 4.9Zm-26.1 23.7c-12.4-13.1-18.4-31.2-32.5-43-3.3-3.2-8-6-12.8-5.4-2.6-.2-8.4 4-2.2 2.4 5.9-2.1 12.3 1.6 16.4 5.8 5 4.5 9 9.9 12.5 15.6 6 8.9 10.7 19.1 19.3 25.9.5-.3-.8-1-.7-1.3zm27.9-89.9c-1.7 4-1.3 8.9-1.7 13.2-.5 10 1.7 19.8-.3 29.7-1 7.2-2.6 14.3-3.7 21.5 1.4.4 1.2-4 1.8-5.4 1.4-8.2 3-16.5 4-24.8-.5-11.4-3-23.4 1.6-34.3 1.1 2.2-2.6 8.8-2 12.7-.4 3.2.1 13.8.8 12.6-.3-8.7.9-17.4 2.8-25.9l-3.3.7Zm6.1 3.2c-3 10.4-4 21.3-4.6 32a135 135 0 0 1-5.4 30.3c3.3-1 4-12.1 5-16.8 1.5-12.4 1.3-25 4.8-37 .5-3.5 1.6-6.9 1.5-10.3-.7-1-1 1.5-1.3 1.8ZM6.5 58.2c5.8-2.2 12.2.4 16 5C30 70.7 34.8 80.4 41 89c3 5.5 6.9 11.3 12.7 14.1-8.6-7.7-13.4-18.3-20-27.6a57.4 57.4 0 0 0-14.3-16.2 17.3 17.3 0 0 0-10.2-3.7c-1.3.2-4.4.9-2.7 2.7ZM46 100c-5.8-4.9-9.1-12-13.2-18.2-3.4-5.6-7-11.1-11.4-16-2-2.3-4.5-4.5-7.7-4.7.5 2.1 8.5 6.2 10.2 10.2 7.7 9.1 11 22 21.5 28.7 3.3 2.6 6 2.9.6 0Zm57.5-10.2c10-6 17.8-15.1 27.6-21.5 4.7-3.6 9.6-7 14.4-10.5 1.7-.1 3.9-1.5 2.7-3.4-2.4.1-4.8 2.3-7 3.5l-18.7 15.5C118 77 113.8 81 109.6 85c-4.6 3.8-9.8 6.8-14.5 10.5-2 2 3-2 4-2.6l4.4-3.1ZM68.6 11.6c3.2 8.8 1.4 18.2 1.7 27.3.4 6.3-1 12.7-.2 19 1.6-10 1.8-20.4 2.3-30.6 0-5.7-.4-11.6-2.4-17-1.4 0-3.4-1.2-1.4 1.3ZM46.8 102a34 34 0 0 1-10.7-10.7c-3-4.2-5.4-8.9-8.3-13.2a49.2 49.2 0 0 0-9-11.6c-5-3.5 1.7 4.6 3.1 6.2 5.2 6.7 8.4 14.9 13.6 21.5 3 3.5 7.2 6.9 11.3 7.9h.1zm96.3-50.3c-4.8 4-9.4 8.2-14.3 12-9.3 8-18 16.7-28.1 23.6C94 92.7 88 98.7 80.5 102.9c-4.3 2.3-5.8 4.3-1 1.1 6.1-3.8 12.5-7.2 17.7-12.3 6.7-5.4 13.2-11 19.6-16.6C123 69.5 129.3 64 136.2 59l9.1-6.9c-.5-.7-1.5-1-2.2-.3zM96.6 21.8c1 10.7-2.6 21-4.5 31.3-2.3 8.7-6 17-9.3 25.3-2 3.1-2.2 7 .1 1.2 3.1-5.3 4.5-11.4 7.2-17 3.2-10.4 7.7-20.7 7.4-31.8-.6-3 1.7-5.6 1.2-8.2-.6-.5-2.4-3.2-2.1-.8Zm-35.8 1.4c4 9.7 2.8 20.2 3.9 30.4 0 2 .4 11.7.8 9.5.1-8.9 0-17.8-.8-26.6A70.8 70.8 0 0 0 60.9 14c-4-2.5-3.4 2-1.9 4.4l1.8 4.8Zm33.7-3.4c.6 8.6-2.2 17-2.9 25.5C90.8 55 86.8 64 84 73.2c1.8-2.4 2.4-6.5 4-9.4a82.4 82.4 0 0 0 5.4-19.4c1.7-7.6 3.5-15.4 2.4-23.2 0 0-1.4-3.3-1.3-1.4ZM75.4 75.7c1.5-10.5 4.6-20.8 4.8-31.4-.6-9.8-1.6-19.6 0-29.4 1.6-5-2.7-4.5-1.5-.1-.2 9.6-.6 19.1.1 28.7 0 11-4 21.5-4.5 32.5.3.3 1.2.5 1.1-.3zM51 31c1.4 9 4.7 17.6 6.5 26.6 1.7 5.2 3.8 10.2 5.2 15.4-.8-9.4-4.1-18.4-6.5-27.5-1.5-5.7-3.1-11.3-4.5-17-1-.2-.4 2.3-.7 2.5Zm94.8 21.9c-6.6 4.5-12.7 9.7-19 14.6-5.2 4.6-10.4 9.3-15.8 13.7-6 5.4-12.8 9.8-18.3 15.6 7.5-6 16.1-10.7 22.5-18 7.8-7 16.4-13.2 24.3-20.1.4-1.7 11.9-5.8 6.3-5.8ZM70.8 77c.9-9.6 3.8-19 4.3-28.6 1.4-12.2 1.1-24.6-.5-36.7-3.6-5.7 1 6.5 0 8.7 0 14.2.7 28.6-2.4 42.5-1 4.8-1.3 9.5-1.6 14.3h.2zm-2.3-2.1c-1.1-13.2-.4-26.5-.3-39.8.4-8.1-1.1-16.3-3.9-24-2.5 1.4 2.3 10.2 1.7 14.4 1.9 11 1.1 22.3 1 33.5-.2 7.2 1 14.3 1.4 21.5.3-1.9.3-3.7.1-5.6zm22.2-52.4c-3.1 12.6-3.6 25.5-5.6 38.3.2 3-1.5 6.2-1.7 8.9 3-9.2 4.9-18.7 6-28.3 1-8.2 2.6-16.4 3.3-24.6-1 1.2-1.5 4-2 5.7zm30 21.1c-6.1 4.1-11 9.7-15.4 15.6-6 7.3-11 15.5-17.6 22.4l-4.1 5c5.8-5.6 11.2-11.5 16.2-17.8 6.1-6.8 11-14.9 18-20.7.8-1.3 5.4-3.3 2.9-4.5ZM64.1 54.3c-1-11 .3-22.3-4.4-32.6-1.3-2.2-2-9.2-4.8-7 6.8 12.3 7.4 26.7 8.4 40.4.8 5 .8 4.5.8-.8Zm21.8 27.1c6.6-9 13.3-18 19.7-27 3.6-4.8 8-8.8 12.3-12.9-3.9-1.2-6.8 5-9.4 7.7-4.8 6.4-9.4 13-14.1 19.6-3.4 5.8-8.6 10.3-11.5 16.4l3-3.8zm-13.3-5.6c.6-10.6 4.2-20.8 4.3-31.4.2-8.1.4-16.3-.2-24.4-.4-2.8.9-9.8-1.7-9.4 1 9.3 1.7 18.6 1.3 28-.6 11.2-2.4 22.2-4.3 33.2 0 1.1-1.6 6.6.6 4ZM61.5 53.5a142.7 142.7 0 0 0-8.9-36.6c-.4-1-3.6 5.6-.5 4.3 2.8-.3 1.5 2.2 1.5 3.7 2.8 9.9 4.8 20 7.7 29.8.5 0 .2-1 .2-1.2zm9.7-42.6c2.9 10.5 1.8 21.5 1.2 32.2-.5 7.2-1.4 14.3-2.3 21.5-.3 2.5-.2 6.4.3 1.7a149 149 0 0 0 3.2-32.6c-.1-7.2.7-14.7-1.2-21.7 0-.6-2-3.2-1.2-1.1Zm-9.4 1c-.6 6 3.4 13.5 3.1 20.4.3 8.1 1.3 16.3 1 24.5.1 4-.4 8.4.8 12.2-1.4-16.4 1.4-33-2.4-49.3-.7-2.7-.5-5.9-2.2-8.3v.3zm56.9 29.9c-8.6 7.2-15 16.3-21.5 25.4-3.6 4.5-7 9.2-10.2 14 7.5-8 13.2-17.6 20.4-25.9 3.2-3.8 6.5-7.6 10.6-10.5 1-1.2 3-1.7.7-3ZM52.3 28C55 39 58 50 61.1 60.9c1 2.2 0-3.7-.2-4.7-2-9.8-5-19.4-7.1-29.2-.4-2.8-1.7-1.1-1.5 1Zm39.4 43.1c4.8-7.2 10.2-13.9 15-21 .6-2.3 9.2-9.4 6-8-3.7 2.7-6.4 6.6-9.3 10.1-6 8.6-11.7 17.2-17.6 25.8-.4 1.8 2.7-3 3.6-4l2.3-2.9ZM63.3 93.7a54.7 54.7 0 0 0-9.1-32.1c-1.9-4.1-2.8-3.6-1.2.6 1.9 5.6 5.8 10.3 7.3 16 2 5.5 2.1 11.5 3 17v-1.5zm49.3-4c6.4-2 12.7-4.3 19-6.5 2.7-1.4 9 .4 8.3-4-10.8 1.3-20.3 7.1-30.2 11.3-2.5 1.6 2.6-.8 2.9-.8zm31.1-20.4c-9 2.5-16.5 8.5-25 12.4-3.4 2.1-6.5 4.8-10 6.8 6.3-3.3 12.2-7.2 18.8-10.1 5-2.2 9.6-5.6 15.2-6l1-3.1zm-45 2.2c7.3-7.2 12.8-16.1 21-22.4 4.4-1 3.3-6.2.1-2.4A95.2 95.2 0 0 0 102 66.9c-1 1-7.2 7.6-4.3 5.5zm-12.9 47.7c-2.5 1.1-8.4 0-8.8 3.4 0 3-2.5 5.3-4.7 6.7-3.9 2.9 4.8-1.7 6.2-3.6 2.9-2.6 7.7-2.8 9.9-6.1a6 6 0 0 0-2.6-.4zm51.7-36c-1.5-.8-4.3.2-6.2.8-6.2 2-12.5 4.1-18.7 6.3-1.1.5-8.6 4.2-5 3 8.2-3 16.7-6.7 25.7-6.7 1.6.8 2.5-2.4 3.9-3l.3-.4zm-113.3.1A33.5 33.5 0 0 0 35 98.4c4 2.8 12.6 7.4 15.7 5.5a24 24 0 0 1-17.3-8.6c-3.2-4.8-6-9.8-9.6-14.4-.4.5.4 1.7.4 2.4zm49.5 28.4c8 1.7 14.4-4.3 21.4-7.2 6.2-3 13-4.9 19.6-6.6-5-1-9.7 2.3-14.5 3.1-6.2 1.4-11 5.5-16.2 8.5-3.5 2-7.6 2.6-11.4 1.4-.5.5 1 .6 1.1.8zm69.7-47.4a90.7 90.7 0 0 0-25 16.3c3.8-1.2 10.4-6.7 15.2-9.3 3.3-2.1 6.7-3.8 10.2-5.5l-.4-1.5zM55 69c1 6.6 4.4 12.6 5.2 19.3.5 3 2.8 9.4 1.7 2.7a49 49 0 0 0-7.2-23.2c-.7.1.7.8.3 1.2Zm-4.5 40.6c-8.2.9-16.2 2.7-23.8 5.7-2.7 1-5.6 1.6-8.2 3 .2 3.3 3.9 0 5.6-.4 8.6-4 17.8-6.1 27-8.2.2-.5-.4 0-.6-.1zm57.4-46.5c5.1-5 10.2-10.1 16-14.4 2.3-1.2 8.8-9.4 3.4-5.5-1.2 4.5-7 4.8-9.6 8.7a96.6 96.6 0 0 0-12.5 13.6c1-.2 1.8-1.7 2.7-2.4zm24.6 24.2c-9.2.1-17.6 4-26.1 7-3.7 1-5.5 2.7 0 .3 7-2 14.1-3.6 21.2-5 1.5-.4 5.8-1.4 5.1-2.3zM31.6 136.6c5.6-7.4 13-13.2 20-19.4-8 3.4-14.2 9.8-19.4 16.5-.8.5-2.7 5.3-.6 2.9Zm108.7-60.1c-8.2.2-15 5.4-22.2 8.6-2 1.3-5.6 3.4-1.3 1.4 7.5-3.3 14.9-7.1 23.1-8.1.6-.2 1.8-2.2.4-1.9zm-81.2 34.2c-11.7 4.3-24.4 8.5-32 19-1.4 3.5 2.5-1.5 3.4-2.5 5.3-5.4 12.4-8.7 19.1-12 3.3-1.8 7.3-3 10.4-4.8l-.9.3zM89.2 72c6.9-9.5 12.6-19.9 20.7-28.4-3.5-.1-4.7 4-6.9 6.1-5.3 7.2-10 15-14.4 22.8l.2.2zm-73 40.4c.7 3 5 .3 7.3.5 6.5-1.3 13-2.7 19.6-3.8-9 0-18 1.5-26.9 3.3zm35.4 2.6c-8.8 4.3-18.5 8.3-24.1 16.7.8 3.1 3.2-1.9 4.6-2.7 5.5-6.7 13.5-10.1 20.8-14.4-.3-.2-1 .4-1.3.4zm-30 7.7c7-3.7 13.8-8.4 21.6-10.5a96 96 0 0 0-23.7 8.5l2.1 2zm35.8-61.5C54.8 54 52 46.9 49.8 39.6c-1.3 5.6 2 11 4 16 .4 1 6.1 11.2 3.6 5.6ZM46.9 48c-3.2-8-8-16-15.4-20.6-2.9.8 4.7 4.5 5.6 7.1 3.8 4.7 7 9.8 10 15 1 1.4 0-.8-.2-1.5Zm99.5 10.3c-4.2 2-7.6 5.4-11.5 7.9-4.5 3.9-9.8 6.8-14 11.1-1.5 1.3-5 4.5-1.5 1.6 7-6 14.5-11.4 23-15.2 1.8 0 1.5-4.5 4-5.4zM60.8 71.2c-2.6-8-8-14.4-10.7-22.3-1.5-4.2-.7-.7-.2 1.6C51 57 56 62 58.3 68c2.2 4.3 3.7 8.9 4.9 13.5-.3-3.6-1.1-7-2.4-10.4ZM26.5 29.7c5.4 4.2 9.7 9.7 14.3 14.7 2.3 2.7 4.3 5.6 6.5 8.3a81.2 81.2 0 0 0-20.7-24.4c-3.1-1.3-1.9.5-.1 1.4Zm-9.2 70.6a89 89 0 0 1 22.4 5.7c1.3.5 9.1 2.1 5.2.7-6.7-2.6-13.9-4-20.6-6.7-2.5-.6-6.6-3.3-8 .2l1 .1zm7.6 26.9c6.7-4.9 13-10.6 20.7-14 5.5-2.6-1.6.3-3.5 1.1-6.7 3.3-13 7.3-19 11.9l.8.7zM54 105.7c-5.3.3-10.8-.2-15.1-3.6-3-1.8-15.2-1.6-6 .3 7.3 1.4 14 5.2 21.5 4.6 2.3.2 4.4.3 1.2-1l-1.6-.3Zm-20.8 32.4c5.7-7 12.3-13.3 18.4-19.9-6 5.1-12 10.5-17.4 16.3-.4 1-3.8 3.5-1 3.6Zm13.6-9.7-7.4 11.4c3.5.2 4.3-4.1 6.1-6.3 2.6-4.2 5-8.5 7.7-12.7-2.2 2.5-4.6 4.8-6.4 7.6zm-1.4-80.7a63.5 63.5 0 0 0-16-19.9c-4.4-1.4-.1 2 1.3 3.3a74 74 0 0 1 13.8 15.7c.2.2 1.5 2.6.9.9ZM25.9 130a48.3 48.3 0 0 1 22.4-16c3-1.3 6.3-2.3 9.4-3.7A64.8 64.8 0 0 0 27 126.7c-1.6.9-1.5 1.7-1.1 3.3Zm17.9 9.7c4.4-4.6 6.5-11 9.6-16.4 1-1.6 3.6-7 .7-2.9-4.1 6.4-7.8 13-11.9 19.3l.9.3zm2.7-15.2c-4.5 4.6-9.2 9-12.9 14.2 3.2 1 4.5-3.4 6.5-5.3 3.7-5.2 8-10 12.2-14.8-2 1.5-3.9 4-5.8 5.9zM23.7 30.7c10.3 5.9 17.2 15.9 24.5 25a118.4 118.4 0 0 0-22.8-26.2c-2.4-2.2-6.3-.6-1.7 1.2Zm-2.5 45c-1.4-3.3-4.7-5.4-5.2-9-.8-3.5-4.2-4.9-7.3-5 2.7 2.3 5.6 4.4 7 7.8.8 2.2 8.3 13.3 5.5 6.2Zm52.7.1c.6-5.4 1-11 2.7-16.1A71 71 0 0 0 78 35c-.3 8.7-.4 17.4-2.4 25.9-1 5-1.8 10.2-2.1 15.4l.4-.2zm35.7 24c-8.6 2.7-16.9 6.3-24.7 10.9-3.7 2-8 3.1-12.1 1.6 5.3 3 11.9.4 16.2-3.3 7.6-4.2 16-7 24.1-9.8-1.2 0-2.4.2-3.5.6zm-76.2 11.7c-5.4 1.2-10.8 2.2-16.2 3.2.3 4.5 4.7.8 7.2.6 4.6-1.4 9-3.2 13.7-4.4-1.3-.3-3.2.5-4.7.6zm6.9 2.5a83.9 83.9 0 0 0-18.4 9.6c.8 3.6 4.6-1.5 6.6-2.2 4.1-3.2 9-5.3 13.3-8l-1.5.6zm1 8a62.7 62.7 0 0 0-12.7 11.8c1.2 4.8 4-2.7 5.8-4 3-3.3 6.1-6.2 9.3-9.1-.5-.3-1.8 1-2.4 1.3zm68.5-14.8c7.6-1 15.1-2.9 22.5-4.9-2-1.6-5 .5-7.5.6-5.3 1.1-10.6 2.2-15.8 3.6l.3.7zm-1.4-9.9c-5.5 0-11 2-15.9 4.4-3 1.7-5.4 4.4-8.1 6.5 5.2-3 10.1-6.8 16.2-8l9.2-3c-.4-.4-1.1-.4-1.4.1zm-10 .4c-6.1 1.2-11.1 5-15.8 8.9-2.8 1.8-6 2.2-9.2 2.9 6.5 1 12.2-2.7 16.6-7 3.3-2.4 7.2-3.7 11-5-.3-.4-2 .2-2.6.2zm-44-50.2c-1.4-4.7-2.5-9.5-3.8-14.2-1.3 7.2 2.4 14 4.6 20.6 2.6 7.5-.4-4.8-.8-6.4Zm61.1 38.6c5.9-3.3 12-6.3 18-9.1 2.7-1.2 6.9 0 8.5-2.4-3-3.2-11.7 4.2-16.5 5.7-6.2 2.8-12.1 6.3-17.8 10.1 2.4-.8 5.3-3 7.8-4.3zM104 104.4a57.3 57.3 0 0 0-18 8c-2.5 1.8-5.7 1.6-8.6 2.2 7.8.9 14-5.2 21.3-7.2 1.6-.7 6.7-1.4 6-3.1a2 2 0 0 0-.7.1zm-87.7 4.4 17.4-1.3c-6-.5-12.5-2.6-18.1.2-.7 1.6.1 1.2.7 1.1zm22.4 30.6c4.8-6.5 8.5-13.8 14.1-19.7 3-4-2 1.7-3 3-4.8 5.2-9 11-13.2 16.6.5.8 1.6 1 2.1.1zm17-19c-3.3 6-6.2 13-9.5 18.4 3.5.8 3.6-4.4 5.2-6.5 1.2-3.4 5.3-12.4 5-13l-.7 1.1Zm-40.1-10.1c1.4 2.8 6.5-.4 9.6-.1 4-.7 8.1-1.1 12.2-1.6a138 138 0 0 0-21.8 1.1v.4zm41.9-26.8c.5 5.4 1.3 12 5.4 15.6 0-2.8-2.3-5.2-2.5-8-1.2-3.8-1.4-7.9-3.1-11.5l.2 3.9zm-9.6-36.4c-2.5-7.7-6.4-15.6-14-19.3.4 1.6 5.4 4.5 6.6 7.2 2.7 1.5 7.3 15.5 7.4 12.1zm82.9 58.7c-6.7 2-13.9 1.6-20.6 3.5 2.6.8 5.8-.6 8.7-.6 4.9-.5 9.8-.9 14.7-1.8 1-2.3-1.5-1.2-2.8-1.1zm-68.5 9c-1.8 4.2-1 8.8-2.3 13.1 3.3 6.1 1.6-6.3 2.7-8.3 0-2 1.4-12.2-.4-4.8Zm65.5-17c-9 .4-17.7 2.9-25.8 6.5a140 140 0 0 1 27.4-5.8l-.7-.6zm-1.9 1.8c-6.6.7-13.2 2.2-19.6 4.1 2.2 1.8 5.8-1 8.6-1.3 3.2-1 16.2-2.4 14.5-3.1-1.2.3-2.3.4-3.5.3ZM94 112.1c-4.8 2-9.3 5-14.7 4.7-4.5.3-7.7-3.3-11.4-5.2 3.4 4.2 9 6.7 14.4 5.3a19 19 0 0 0 11.4-4c1-.5 2.1-1.5.3-.8Zm-32.6 20.2c-1.2-1.7-2.1-5.7-4.8-4.7-1.5 4.5-.8 6.9 4.8 4.7zM20.1 97.9c2.8.8 5.5 2.2 8.3 2.9-3-2.4-6.5-4.5-9.9-6.4-2.2 1.8-1.7 4.3 1.6 3.5Zm61.4 5.8c-2.5 1.6-5 3-7.8 4.2 7.3-.2 12.5-6.2 18-10.3-3.3 1.7-6.8 4.1-10.2 6.1zM81 54.8c-1 7.4-3 14.7-3.9 22 2.2-5.8 3.2-12 4.1-18.1 0-1.3 1-6.9.1-5.3 0 .5-.2 1-.3 1.4Zm18.6 53.3c-7.3 2-13.4 7.3-21.2 7.8 7 1 12.3-4.6 19-5.4 1-.6 6.2-4.1 2.2-2.4zm29.7-7.5c-7.2 1.1-14.4 2.5-21.4 4.7 4.2.8 9.4-2.2 14-2.4 3-.7 6.1-1.3 9.1-2.2-.5-.4-1.2-.3-1.7-.1zm-.1-25.3c4.9-2.3 9.3-5.7 14.6-6.9.8-3.6-3.2-.1-4.8.4-5.1 2.6-10 5.8-14.7 9 1.6-.4 3.3-1.7 4.9-2.5zM85.1 12.5c-2 8.4-2.7 17.1-2.5 25.8 0 1.2-.4 8.9.1 6.3.4-7.8 0-15.7 1.5-23.4.4-3.5 1.2-6.8 1.6-10.2l-.5.8zm48.4 92c-1.6-2.8-7 .8-10 1-2.3.8-5.5.8-7.3 1.8 5.9-.1 11.6-1.5 17.3-2.8zm-58.4 16.1a15.7 15.7 0 0 1-10.2-9c-.4 5 9.3 13.1 11 9.3zM84.5 28c1-5.3 1.7-10.7 3.6-15.8-2-2.9-2 3.2-2.5 4.9-.8 4.6-1.6 9.3-1.9 14 .6-.6.5-2.2.8-3.1zm-69 78.5c6.2-1.7 12.5 0 18.7.3-5.7-1.8-11.7-2-17.6-2.2-1.7.2-1.7.2-1.1 1.9Zm74.1-37.7c3.4-6.5 6.5-13.2 10.5-19.4-3.1 1.3-3.2 5.3-5.2 7.8-2.5 4.8-5.2 9.6-7.3 14.6.8-.3 1.3-2.2 2-3zM77.1 12.2c.2 5.2 0 10.5.8 15.7 0-5.6.9-11.3 0-16.9-1.7-1.1-.7.6-.8 1.2ZM58 126.1c4 1.8 1-8.1 3.2-10.4 1.7-5-1.2 1.6-1.7 3.3-.7 2.3-1.2 4.7-1.5 7.1Zm56.1-14.1c4.7-1.2 9.7-.3 14.3-1.6-5-.6-10.2-.2-15.1 1.3l.3.3zm-40.7 5.5c2.4 3 12.5.5 11.1 0-4.6.9-10 1-13.6-2.6-6.7-5.7-.5 1.5 2.5 2.6Zm-23.1 19.3c2.6-1 2.6-5 4-7.5.4-2.4 1.9-5 1.9-7.3l-5.9 14.8zm51.5-88.7c-2.3 3.8-5 7.5-6.6 11.6 2.8-4 5.4-8.4 8.6-12.2-.4-.5-1.4.5-2 .6zm-38.7 73.7c.1 3.2-2.3 8.4.8 10-.6-4.5 0-9.3 0-13.9-.8.6-.5 2.8-.8 3.9zm4.1.3c.4 3.5 6.7 8.9 3.3 3-1.4-1.8-2.6-4-4.3-5.4l.5 1.3zm7.8 3c1.1-.8 1-2.1-.4-2.3-3.3-1-6.6-2.9-8.4-6a21 21 0 0 0 8.8 8.3zm-8.3 5.5c3.2-1-1-6.3-1.1-8.7-.4 3 0 6 1.1 8.7zm-9.3-5.5c1-3.5 1.8-7.1 2.9-10.6-1.4 3.3-5.4 10.2-3.4 11.6zm36.9-71.3c-.7 1.3-3.4 8.7-2 6.4 1.6-2.8 3.5-5.5 4.3-8.6-1 .5-1.8 1.2-2.3 2.2zm-24.9 69c.7 2.5 6 6.4 3.8 2-1.2-.7-5.2-4.7-4.6-3.1l.8 1.1zm45.3-9.3c3.8-.4 7.6-1 11.4-1.3-1.6-.6-12.3-.5-11.4 1.3zm0 1.9c1.1 2 5 0 7.3.4 1.4 0 7.5-.8 3.5-1l-10.8.6zm.9 2.4c3.3-.4 6.6-.2 9.8-.7 1.6-1.6-9.3-.8-9.8.7zm6.8-3.5c.8-.2 4.3.1 3.2-1-3.6 0-7.3.5-10.9 1 .4 1.3 4.7-.1 6.6 0h1.1zm-17.1-18.4c4.4 0 8.6-1.8 12.7-3.3-4.2 1-8.6 1.7-12.7 3.3zm-40.8 26.2c0 3.2-.8 6.6.3 9.6 2.1-1.4-.5-4.8 0-7.2 0-.4 0-4.1-.3-2.4zm56.9-3.8c-3.2-.8-10.3 2-3.1 1 2-.3 9-1 3.1-1zm-51.8 9.5c-1.4-2.4-3.5-6.4-1.8-1 0 2.4 2.7 4.9 1.8 1zm54.3-18.8c1.9 1.1 10.9-.3 6.7-.8l-6.7.8zm.6-12.8c-2-.2-3.5 1-5.2 1.7 1.2-.6 8.8 0 5.2-1.7zm-5 27.1c-1.2-.2-7 0-3.5.7.9.4 6.1-.3 3.5-.7zM145 64.8c1-1.4 2.5-6.9-.1-2.8l-.2 1.3zM80.4 78.6c1.1-.8 1.4-4.6 2.2-6.6.7-3.5-1.2 2.8-1.4 4l-.8 2.6Zm-27.3 55.6c3.9-3.7 1.5-5.9 0 0zm20.6-15.6c-2-1-7.7-6-3.8-2 1.1 1 2.4 1.7 3.8 2zm-9.6-22.8c.7-2.3-.5-9-.2-3v1.5zm17.1 13.7c-2 .7-9 1.1-2.7 1l1.4-.4zm33.3 15.2c0 1.3 2.6 1.3 2.9.4l-2.9-.4zM52 24.4c2.8-2.6-2.6-3 0 0zm37.8 56.7c-2 1.4-6.7 7-2.1 2.4l2.1-2.4zm-25.2-2.5c.2-4-1.2-6.2-.2-1.4l.2 1.4ZM46.2 49.4c.8 1.2 4.3 7.4 2.7 4.1-.7-1.5-1.7-2.8-2.7-4.1Zm27.8 65c4.4 2.5 4.4 1.2 0 0zm37.9-4.1c2.7 1.3 5-1.3 0 0zM18.5 69.4c2 3.2 3.6 3.2 0 0zm60.7 14.1c-.9 3.3 2.5-2 0 0zm30.2 24.6c4.2 0 2-.6 0 0zM83.7 74c-1 2.2-1 4 0 0zM20.8 29.1c-2-1.8-2.1-.3 0 0zm45.4 54.8c-.8 1.3.5 3.8 0 .4v-.4zm29.2-8c1.6-1 2.2-2.8 0 0zm5.4 16.7c1.6-.9 2.2-1.6 0 0zM67.2 74.9c.6-1.3-.2-2.5 0-.1zm4.7 34.7c-.4.6 1.4.7 0 0zm-19.1 1.1c-1.8.2.5-.2 0 0zM78 88.1c-.6-.4-.1 1.4 0 0zm16.8-11.2c-.9.7-.6.7 0 0zM84 81c.5.3.5-1.3 0 0zm21.5 9.9c.8-.2.4-.5 0 0zm-29.3 12 .3-.1zm38.7 4.6c-.3-.8-.8.6 0 0z"/></svg>