<svg xmlns="http://www.w3.org/2000/svg" viewBox="0 0 150 150"><path d="M63.4 13.4c-6.1 2-12.8-1.6-18.3 2.7-6.3.6-11 4.7-16.2 8-3.5 6.2-12.3 4.2-15.3 10.8-4.4 5.8 2.7 11.5 8 12.6 4 1.6-9 2-10.5 6.4-5.3 3.2-9.4 8.4-7.8 15-4.1 6.3-.3 12.4 6 15-1 6.4 6 13.5 12.6 9.9 2.8-1.7 7-3.2 3.2 1.2-3.2 7.5-1.4 18.9 7.5 21.3 5.2 0 9.5 2.8 14.1 4.6 7.8.6 9 9.8 15.4 12.4 5.7 3 12.8 5.6 17.1-1.1 3-2.6 5-9 6.6-10.2 2.8 5.9 8.5 9.4 13.9 12.7a25 25 0 0 0 20.3-3.9c4.6-4.7 12-6.1 14.4-12.8 4.9-6.5 2.3-15.5 9-20.7 6-4 6.2-12.3-1.5-13.9-2.7-1.6-12.9-5-5-6 8-1.7 15-10.2 10.6-18.4a67 67 0 0 0-11.7-17.2c-3.8-6.9-11-10.8-15.3-17.5-5.7-4.5-13.4-1.5-20.1-3.3-6.8.2-11.2 6-13.6 11.7-1.4 2.4-3.5 10.7-3.7 3.8-1.6-7-1.4-15.8-8.3-19.7-3.2-2.5-8.5-2.7-11.4-3.4zM62 14.5c4 4 3.4 11.6 5.6 17A178 178 0 0 1 72 52c-2.7-12.2-7.2-23.8-9.7-36v-.8zm-7.4 0c4.1 3.8 3.5 10.6 6.5 15.3 2 4.8 4.3 9.6 5.8 14.6-4.2-6.8-9.6-13.1-11.5-21-.9-2.7-3.5-6.6-.8-8.9Zm9.9 0c6.5 1.9 4.9 13 7.2 18.9A225 225 0 0 1 74 58.3c-2-13-5-26-8.4-38.7l-1.1-5Zm-5 .3c2.6 4.4 2.8 10.5 4.9 15.5 1.8 6 3.7 12.1 5 18.3C66.2 37.6 60 27.4 58 16c0-1.2 1-1 1.7-1.2zm-7.8.3c1.8 11.4 8.3 21 14.6 30.5 2 3.1 2.8 5.6-.1 1.3-7-8.8-16.3-16.7-19-28-.5-2.9 2-4.3 4.5-3.8zm17.4 0c5.9 1.6 5 10.4 7.1 15.2 1.7 7.3 2 14.8 1.7 22.2C73.2 56 76 42.4 74 39c-1-8-3-16-5-23.8Zm-23.6 2.1c3 15.1 16.8 24.1 24.4 36.7-8-8.3-19.4-13.9-24-25-1.6-4.4-8.7-11.1-.4-11.7Zm28.4 0c7.3 4.8 6.7 14.7 8.2 22.4-.6 4.8 1.3 12.2-2.4 15.4-2-5 .7-11.6-1-17.2-1-7-2.5-13.9-4.8-20.6Zm-34.6 1.6A62.5 62.5 0 0 0 61 47.7c2.5 1.7 11.5 9.6 4.5 4.3a103.4 103.4 0 0 1-27.7-24.3c-2-3.7-4.1-7.8 1.7-9Zm62 2.8c-2 4.3-8 9.2-10 15-3.3 7-6.6 14-8.7 21.4 2.6-8.4 2.5-17.8 8-25.2 2.8-4 5.3-10.4 10.7-11.2zm3 .4c6.4.7-4.2 6.2-3.8 9.6-3.5 4.8-7.5 15.3-10 17.3-6.2-.2 1.9-8 2.2-11.7A40.3 40.3 0 0 1 104.5 22zm9.8.2c.8 3.4-7.7 5.3-8.9 9.7-6 7.3-8.7 16.5-13.8 24.4-2.4 1.5-5.8 7.8-6.6 7.4 6.9-10 10.3-22 17.2-32 2.7-4.7 6-9.2 12-9.5zm-80 .2C36.2 32.6 46 38.3 53 45c3.4 2.7 11 7.5 12 8.4-7.7-5.5-18-7.3-24.2-15-3-4-13-11.7-6.6-16Zm62 .7a49.4 49.4 0 0 0-12.5 27.4c-.8 2 0-7.2.8-9.3C87 35 89.5 26 96.1 23.1zm21.2.6c7.2 4-7 6.8-8.1 11.3-6.6 7.7-10.4 17.2-16.7 25-.8-5.4 5.3-10.8 7-16.6 4.1-8 9.4-15.7 17.8-19.7zM30 24.8a44 44 0 0 0 18 21c6.7 3.8 14.7 6.1 20 12.1-7.2-5.8-16.3-8.2-24.3-12.7A30.8 30.8 0 0 1 27 28.6c-.3-1.9 2-2.7 3.1-3.8zm91 2.3c5.7 5-6.8 7.5-8.9 11.7-7.3 6.5-13.3 15.3-19 22.4 8.9-11.1 13.3-26.5 26.8-33.4ZM25.4 29A33 33 0 0 0 45 46.9c4 2.4-6.1-1.2-7.6-2-6-3-12.5-7.3-14.7-13.7.2-1.4 2-1.4 2.8-2.2zm-5 2c4.9 11.3 17.4 16.8 28.8 19a45.5 45.5 0 0 1 20 11.3c-10.6-7.7-23.6-11.2-36-14.8-6.5-2.6-15-6.4-16.3-13.9.6-1.4 2.4-1.6 3.7-1.8zm104.5.2c5.1 5.6-8.9 4-10.2 9.5-5.2 5.6-10.7 10.7-16 16.2 7.5-9.7 15.2-19.8 26.2-25.7zM15.3 34.8c6 10.4 18.4 13.8 29.2 16.3 10 3.9 21.2 6.9 28.2 15.6-5-3.8-10.4-7.7-16.4-10.1-9.4-4.4-19.5-7.4-29.7-9-5.5-1.5-18-5-11.3-12.8Zm113 .1c8 3.7-4.6 7.1-7.7 9.4-7.2 3-14 7-19.6 12.4-.8.2 6.1-6.5 8.3-8.8 5.3-5.8 12.8-8.3 19-13zm4.4 4c-.3 6.7-10.6 6.6-14.9 10.7-5.1 2.2-10.7 3.7-15.2 7.2 6.3-6.4 14.8-9.4 22.4-13.6 2.5-1.5 5-3 7.7-4.4zm1.7 3.2c4 5-7.5 8-11 10.2-7.1 2.7-14.5 4.4-21.7 6.8 7.8-6.3 18-8 26.4-13.4l6.3-3.6zm3 3.5c3.3 5-8.1 5.3-10.8 8-5.8 2.7-19.4 5.5-21.6 5.7 10.8-3.4 22.5-5.7 31.4-13.1zm2.6 2.8c4.4 4.8-7.2 7-10.3 9.1-8.2 3.9-17.3 2.1-26 3.3A101 101 0 0 0 140 48.4zm-111.2 1c12.2 1.5 24 6 34.4 12.4a97.4 97.4 0 0 0-27.3-4.4c-5.4-1-15.4-3-16.7-6.9 3-1.5 6.4-.8 9.6-1zm60 .2c3.2 4-5.1 2.6 0 0zm-72.4 1.8c8.5 5.7 18.8 8 29 7.8 4.7.2 14.7 2.5 15.7 3.4-11.4-2.7-23.3-1-34.8-2.5-4.1-1.6-14-1-14-6 1.3-1 2.8-1.8 4.1-2.7Zm69.9.4c1.2 2.2-4 8.4-1.1 2.8l.5-1.4zm56 .5c.5 6.5-9.6 6.4-14.3 7.8-5 .5 5.7-2.3 7.5-3.8a59 59 0 0 0 6.9-4zm-52.5.3c-1.1 2.6-4.6 7.9-1.6 2l.7-1zm-7.2 2.2c-.9 3.8-1 4 0 0zm-6.4.2c6.4 0 .4 14.2 1.3 12 .1-3.2 3.7-12.8-2-10.1 0-.7-.2-1.8.7-2zm67.5.2c3.7 5.7-8.2 5.9-11.8 7.6-8.4 1.3-17 .7-25.5 1.7-2.7 0-11 .3-9.9-.3 11.5-2 23.3-1.7 34.8-3.2 4.5-.9 9.1-2.5 12.4-5.8zM10 56.3c5.8 3.5 12.8 4.4 19.3 5.6 9.3.7 18.7-.5 28 1.2-13.3-.8-26.5 2.2-39.8.4-5 .3-17-2.5-7.5-7.2zm58.8.3.9 1zm8.5 1c.3 3-.6 4.1 0 0zm68.9 1.5c1.5 6-10.1 6.2-14.6 7.3-11.3-.2-22.7.2-34-.6 10 .4 20.1-.8 30.2-1a54 54 0 0 0 18.4-5.7zm-55 .6c0 3.8-6.4 1.1 0 0zm-6.8.5c-1 2.2-2 3.6 0 0zm-79.5 2c9.4 4.3 20.1 3.2 30.2 3.3 5.4-.6 17.5-1.4 18.8-1-10.1 0-19.4 5-29.6 4.4-6.5-.2-14 .8-19.5-3.1-.8-1-.4-2.5.1-3.6Zm86 .1c-.6 2.5-1 1.4 0 0zm-1.8.4c-3.2 4.7-4.9 1.5 0 0zm58 .5c-1.4 5.6-11 5.5-16.3 6.3-7.4.2-14.7-1.5-22-1.8 11.5-1.1 23.7 2 34.8-3a12 12 0 0 0 3.5-1.5zM61.6 65l.8.1zm31.3.9c.4 2.7-12.5 6-5 3.4 1.8-1 3.3-2.3 5-3.4zm-38.7.2c4.1.2-6 0-7.5 1.3-9.5 2.2-18.6 6.3-28.6 6.4-4 1-16.3 1.5-13-5A81.8 81.8 0 0 0 31.4 70c7.7-.5 15-4.3 22.8-4zm92.8.8c-4.4 6.2-13.5 6.1-20.5 5.8-6.8-.7-13.4-2.8-20.2-4 11.6.6 23.5 4.4 34.9.2l5.8-2zm-47.5 0c10 .7-6.1.2 0 0zm-40 .6c6.7.8-5.9.5-8 1.5-10.4 2.4-19.8 7.7-30.4 9.4-5.8 1.1-14 2.7-18.1-2.8.5-4.6 7.6 2.6 11.3 0 8.2-.1 16.3-1.5 23.9-4.4a62 62 0 0 1 21.3-3.7zm28.7.2c-1 .8-1.2.1 0 0zM62 69h-1zm30.8.3c13.1-.3 25 5.7 37.1 10 5 1.1 13.7 6 15.5 7.7-10.7-5.3-21.7-10-33.2-12.9-7.3-1.9-14.6-5.5-22.4-4-3.3.3 2.6-.7 3-.8Zm-35.3.2c-8.9 1.5-17 5.7-25.3 8.8-6.8 3-14.9 6.8-22.3 4.2-1.8-1.1-8-4.7-2.3-2.4 8.5 2 17.2-1.5 25.4-3.3 8-3.3 16-6.4 24.5-7.3zm51.3.6c10.8 2.6 22.6 6.2 33.3 1.5 3.6 1.3-9 4-11.9 4.3-6.9 1-12.8-3.6-19.3-5.1l-1-.3zm-47 .4c5-.1-12.4 1.6-2.6.2a26 26 0 0 1 2.6-.2zm32.8.4c10.4 1.6 20.3 5.5 30.4 8.5a103 103 0 0 1 21.8 10.3c-5.9-.5-10.6-5.2-16.3-6.9-13-4.5-25.7-10.7-39.6-11.5 1.2-.3 2.5-.5 3.7-.4zm-28.6.5c2.9.5-7.8.6-10.1 1.7-12.4 2.7-22.2 11-32.9 17.3-2.5 1.9-11.8 2.3-10.5-1.7 7.5 1.9 14.6-1.2 20.9-5.3 9-5.7 18.9-11.9 30-11.7l1.3-.2H66zm-13.2.7c-9.6 3.2-17.7 9.2-26.5 13.9-3.8 1.7-15.1 4.1-14.6-1.1 7.5.1 15.5-2 22.2-5.8 6.4-1.9 12.4-5.2 19-7zm22.2.4c-5.3 5.2-14.5 2-21 5.8-13.4 5.4-26.5 17.6-26.4 33.1-3.5-4.4-3.5-11.3-1.2-16.3 4.7-8.6 13.9-12.7 22.4-16.4a69.4 69.4 0 0 1 21.7-5l4.5-1.2zm16.3.3c14.6.8 28 7.4 41.4 12.5 3.5 2.6 11.8 3.9 12.1 7.5-6.6-4.2-14.2-6.8-21.3-10a203.3 203.3 0 0 0-32.2-10zm-1.7 0c1.6 3-4-1 0 0zm-30.8.8c-5.6 1.1-17.3 7-18.4 7.3a61 61 0 0 1 18.4-7.3zm16.7.3c-.2.9-2.1 1.1 0 0zm1.8 0c-2.2 6.4-9.7 6.7-15 9a50 50 0 0 0-26 28.3c-2 6-5.7 1.5-3.4-2.8a60 60 0 0 1 11.6-19.6 40.5 40.5 0 0 1 26-10.4c2.8-.6 5.6-1.9 6.8-4.5zm5.7.5-.1.2zm10.4.2c17 3.4 33.3 10 48.7 18 3 6.5-6.7-2.8-10-3-11.8-4-23.4-8.4-34.8-13.5-1.3-.6-2.6-1.1-4-1.5zm-20 .8C68 78 61.7 77.1 56.2 79.7 44 83.8 36.6 95.3 32 106.5c-1 2.9-1 11.2-3.2 4.6.4-15.6 13.8-28 28-32.4 5.4-1.8 11.3-1.6 16.7-3.3zm10.3.2c5.2 5 4 13 4.9 19.7.3 9.8-1.4 19.8.9 29.6-6.6-5.9-3-16-3-23.6-.1-8.6.5-17.7-2.8-25.7zm7.3.4c7 4.3 9.3 12.7 13.2 19.5 4.1 8.4 8 17 12.8 25 3.7 1.8 8.6 8.7 1.3 8.6-5.6-3.6-8-10.5-10.3-16.4-4.2-10.6-5.4-22.6-13.1-31.5-1.2-1.8-2.4-3.6-3.9-5.2zm-1.5 0c4.4 4.6 8 10 10.6 15.8 4.3 12.3 6.5 26 14.9 36.4 6.4 4.3-6 5-7.2-.2-5.5-9-3.9-20.2-7.4-30a56.6 56.6 0 0 0-11.2-21.8Zm-11 .3-.3 1.3zm54.8.4c-1.1.6-3.8.7-1 .2zm-51.5 0c1.2 7.3-1.4 14.6-3.3 21.5-3 9-5.5 18.2-9.1 26.8.5 3.6-1.7 13.3-5 5.8 1-12.1 8.1-22.6 12.4-33.8a51 51 0 0 0 5-20.3zm-1.2.2c.5 12-6.5 22.5-10.7 33.4-3.1 7-6.5 14.2-6.8 22-5.7-2-1.6-9.5-.8-13.7 4.4-13 13.2-23.8 17.4-36.8.5-1.6.9-3.2 1-4.9zm17 2c7.7 6.5 12 16.2 20 22.4 4.6 5.9 13.6 8.2 17 13.8-4.2 3.6-9.4-2.7-12.9-5.2-7.5-7.5-12.8-16.9-19.6-25l-4.5-6zm-18.7.3c-4.6 17-18.3 30.4-20.3 48.2-2.5 1.8-3.4-7.4-1-10.1 3.9-10.8 11.6-19.6 17-29.6a49 49 0 0 0 4.3-8.5zm4.5.4c1.4 5.5-.9 11-1.4 16.5-3 11-6.4 22-7 33.5 3 6-7.6 8-5.2 1.1 1.2-9.3 5.9-17.7 8-26.8C80.3 96 83 88 83.3 79.6zm5.8.2c6.5 10.6 7.3 23.2 7.9 35.3.6 6.8 2.7 14.5 8.8 18.4-8.4 2.2-11.4-10.5-12.1-17-1.5-12.2.3-25-4.6-36.7zm-12 .4c-5.3 12.7-15.3 22.8-20.6 35.4-1.2 3.6-1.4 11.6-5.7 4.7-1-5.6 5-11 7.7-16 6.8-6.8 13-14.3 17.8-22.7l.4-.7zm14 .3a74.3 74.3 0 0 1 10.7 32.8c1 7.2 2.6 16.4 10.2 19.5-6.8 1.4-11.3-5.6-12.5-11.4-2.7-11.5-1-23.8-5.9-34.8l-2.5-6.1Zm-16.6 0c-6 6.4-13.6 11-19 18.1A54 54 0 0 0 44 117.3c-6.4-.3 1.3-9.3 2.5-12.8a49.3 49.3 0 0 1 24.2-20.9 19 19 0 0 0 4-3zM88 81c6.8 15.6.3 33.8 8 49 .9 2.6-7.1-5-6-8.1-1.9-13.6 1.5-27.4-2-40.9Zm-16 0c-6.5 4.6-14.4 7.2-19.5 13.5a67.4 67.4 0 0 0-12.6 20.8c-7.7 1.1.7-9 2-12.6a49.9 49.9 0 0 1 23.3-19.6c2.2-.9 4.8-.7 6.8-2.1Zm3.4.5c-4.5 8.1-11 15-17.3 21.7-5.4 3.9-6.2 14.6-11.8 16-1.9-6.1 4.7-12.3 8.2-17.3 5-7.2 12-12.5 18.7-18.1l2.2-2.3zm27.5.6c9.4 6.7 15.4 17.8 26.6 22.1 3.2 1.4 11.4 5 5 7.4-7-2.4-12.4-8-17.8-13-5.3-4.9-9.4-10.9-13.8-16.5zm6.8.6c8.4 3.6 17.4 6.2 25.7 10 3.1.2 8.9 7.7 2.6 4.3-7-3.5-14.2-6.8-21-10.7l-7.3-3.6zm-3 .7c9.9 5.5 18.3 13.7 29.1 17.2 4.7 3.3-1 7.3-4 3.4-9.5-3.8-16.2-11.8-23.1-19l-2-1.6zm-7.2.6c8.7 13.3 15.6 28.3 27.8 38.9-.3 5-8.7-.8-9.8-4.7-7-10.9-11.5-23-18-34.2Zm10.9.3c9.1 4.5 17.9 9.9 27.3 13.7 3.6 5.5-6.6-.6-8.7-1.6-6.5-3.5-12.4-8-18.6-12zm-79 2.2c-1 2.6-9.8 5.7-3.3 2.2l3.4-2.2zm53.4 4.8c1.3 10.3-1 20.7-1.3 30.9-2 5.2-2-6.6-2-8.4-.4-7.7 2.7-14.9 3.3-22.5zm20.8 0c7.7 9.8 14 22.2 26.3 26.8 2 3.2-5 6-6.4 1.2-8.3-8-14.2-18-19.9-28zm-83.4.6c-2.4 2-8.5.8-2.6.8l2.6-.8zm60.3 6.6c-2.5 8.5-3 17.5-1.4 26.2 1.2 5.4-7.5 10.2-4.8 2 1.1-9.6 3.5-19 6.2-28.2z"/></svg>