<svg xmlns="http://www.w3.org/2000/svg" viewBox="0 0 124.1 79"><path d="M66.5 0c-1.3 0-2.6.3-3.7 1a1 1 0 0 0-.4.7A7.9 7.9 0 0 0 56 .2a7.8 7.8 0 0 0-5.4 5 7.6 7.6 0 0 0-7-2h-.1a7.8 7.8 0 0 0-5.5 9.7l.2.4.1.4v.1c2.1 6.2 16 10.7 16.6 11 .3.1.7-.2.9-.4 4-5.3 10.9-13.5 9.6-18.2a7.9 7.9 0 0 0-1.7-3.4l.2-.1c1.2-.7 2.6-.8 3.9-.5 2.6.6 4.3 3 4.3 5.6.1 1.2 1.3 1.5 1.9.5a5.7 5.7 0 0 1 6.3-3c3.5 2 5 3.7 3.9 7.9-1.5 4.1-10.6 8-14.8 9.4-2-2.1-3.8-4.4-5.4-6.8a1 1 0 0 0-1.6 1c1.8 2.7 3.8 5.2 6 7.6.4.5.6.4 1.1.3.6-.2 14.4-4.8 16.6-10.8 1.6-5.9-1.7-9.5-5.4-10.7-2.5-.5-5.1.2-7 2A7.7 7.7 0 0 0 66.5 0Zm-9 2c2.7 0 5.2 1.8 5.8 4.5 1 3.8-4.6 12-8.5 16.1-4.1-1.5-13.3-5.4-14.8-9.6l.1.1a2 2 0 0 0-.2-.5v-.2c-.9-3 .9-6.3 4-7.2 2.6-.6 5.2.6 6.4 3 .6 1 1.9.6 1.9-.5 0-2.6 1.6-4.9 4.1-5.6l1.2-.1zM21 12c-.7 0-1.4.4-1.8 1a9 9 0 0 0-1.6 4.1c-.2 1.3 1.8 1.6 2 .3.1-1.2.6-2.3 1.3-3.3l.2-.1h.2v.2c.8 2.9 2.3 9.9 11.8 14.8l1 .5c2.2 1.1 5.2 2.5 7.3 5.5.2.3.5.4.8.4A1 1 0 0 0 43 34c-2.4-3.4-5.8-5.1-8-6.2l-1-.5a18.2 18.2 0 0 1-10.7-13.5 2 2 0 0 0-.9-1.3c-.4-.3-.9-.4-1.4-.4Zm82 0c-.4 0-.8.2-1.2.4-.5.3-.8.8-1 1.3-.6 2.7-2 9.1-10.7 13.5l-1 .5c-2.2 1.1-5.6 2.8-8.1 6.1a1 1 0 0 0 1 1.6h-.1c.3 0 .6-.1.8-.4 2.1-2.9 5.1-4.5 7.3-5.5l1-.5c9.5-4.8 11.1-11.8 11.8-14.8V14l.4.1a7 7 0 0 1 1.3 3.2c.1 1.3 2.1 1.1 2-.2a9 9 0 0 0-1.7-4.2c-.4-.5-1.1-.8-1.8-.8zm-90.5 3c-.8 0-1.5.5-1.9 1.2C4 28 9.2 36.7 10.2 38.4c.2 12.1 9.5 16.1 14.8 17.4-17.5 7-22.5-2.6-22.7-3a1 1 0 0 0-1-.6 1 1 0 0 0-.8.7c-1.7 5.3 1.4 8.7 4 10.3-1.6 2-2 4.6-1.3 7 .8 2.5 3 4.3 5.5 4.8 1 0 2-.2 2.7-.7 0 .7.3 1.3.6 1.9 1.5 2.4 4.8 2.8 5 2.8.6 0 1-.3 1.1-.5 5.3-10.7 10.7-10.4 17.7-10 3.7.1 7.9.4 12.4-1.3a13 13 0 0 0 7.8-7.1 17 17 0 0 0-.3-13.2c-.9-1.6-.7-3.6.5-5 1-1 2.2-2 3.5-2.5a1.5 1.5 0 0 0 0-2.7h-.1c-1-.4-2-1.2-2.5-2.2-1-2-3.2-3.3-5.5-3.3-5 0-6.9 5.8-7.6 9.5-3.3-4.7-8-8.3-13.3-10.4-11.6-4.4-15.2-10.5-16.2-13.8-.1-.6-.5-1-1-1.4l-1-.2zm99 0c-.9 0-1.7.7-2 1.6-1 3.2-4.4 9.4-16.1 13.7a29 29 0 0 0-13.2 10.5c-.6-3.6-2.6-9.4-7.6-9.4a6.2 6.2 0 0 0-5.5 3.2 5 5 0 0 1-2.5 2.1v.1c-.3.1-.6.4-.8.7-.4.7 0 1.6.7 2 1.3.5 2.5 1.4 3.5 2.5a4.5 4.5 0 0 1 .5 5 17 17 0 0 0-.3 13.2 13 13 0 0 0 7.9 7.2c4.4 1.6 8.7 1.4 12.4 1.2 6.9-.4 12.3-.7 17.7 10 .2.3.5.5.8.5 3 0 5.1-2.2 5.8-4.6.8.5 1.8.7 2.7.6a7.2 7.2 0 0 0 4.1-11.8c2.6-1.6 5.7-5 4.2-10.2.1-1.3-1.9-1.5-2-.2-.2.5-5.1 10.2-22.6 3 5.2-1.3 14.5-5.3 14.7-17.3 1.1-1.7 6.3-10.4-.4-22.4a2.2 2.2 0 0 0-2-1.1zm-99 2 .2.1c1.1 3.7 4.9 10.4 17.3 15a27.5 27.5 0 0 1 13.7 12 1 1 0 0 0 1.8-.4c0-.1.7-10.3 6-10.3 1.6 0 3 .8 3.8 2.2.6 1 1.5 2 2.5 2.6a10 10 0 0 0-3.2 2.6c-1.6 2-2 4.7-.8 7a15 15 0 0 1 .3 11.7 11 11 0 0 1-6.7 6 27.6 27.6 0 0 1-11.6 1.1c-6.8-.5-13.4-.7-19.3 10.4a4.7 4.7 0 0 1-2.8-1.7c-.5-1-.5-2 0-3a1 1 0 0 0-1-1.4 1 1 0 0 0-.9.5c-.6.8-2.1 1.8-2.8 1.7a5.2 5.2 0 0 1-3.9-3.4c-.7-2.1 0-4.4 1.8-5.8a1 1 0 0 0-.2-1.8C6.5 62 2 60 2 55.8c1.5 1.6 3.5 2.9 5.6 3.6 5.6 2 12.7.9 21.2-3.2.4-.2.6-.6.6-1a1 1 0 0 0-1-.8c-2.8-.3-5.6-1.2-8.1-2.5-5.4-2.8-8-7.5-8-13.8 0-.2 0-.4-.2-.6-.3-.4-6.3-8.5.3-20.5h.1zm99.1.1.2.1h.1c6.5 11.9.5 20.1.3 20.5a1 1 0 0 0-.2.6c0 6.3-2.7 11-8 13.8-2.6 1.3-5.3 2-8.2 2.3-1.3-.2-1.6 1.8-.3 2 8.4 4.1 15.6 5.1 21.2 3.1 2.1-.7 4-2 5.5-3.6 0 4.3-4.4 6.2-4.6 6.2a1 1 0 0 0-.2 1.7 5.3 5.3 0 0 1 1.8 5.8 5.2 5.2 0 0 1-4 3.5c-.9.2-2.3-.8-2.9-1.8a1 1 0 0 0-1.3-.3 1 1 0 0 0-.5 1.2c.5 1 .5 2 0 3-.7 1-1.7 1.6-2.8 1.8-4.9-9.2-10.1-10.6-15.7-10.6v.2h-3.6c-3.6.2-7.6.4-11.6-1.1a11 11 0 0 1-6.7-6 15 15 0 0 1 .3-11.7c1.1-2.3.8-5-.8-7-.9-1-2-2-3.2-2.6 1-.6 2-1.5 2.6-2.6a4.2 4.2 0 0 1 3.7-2.2c5.3 0 6 10.3 6 10.3 0 .5.3.9.8 1 .4.1.9-.1 1.1-.5a27 27 0 0 1 13.6-12c12.4-4.6 16.2-11.3 17.3-15h.1zm-95 16.4a1 1 0 0 0-.9.6c-1.1 3 1 6.6 5 8.5-.5 1.5-.1 3.2.9 4.4a10 10 0 0 0 4.6 3.3 11 11 0 0 0 5.7.7 4.8 4.8 0 0 0 3.8-2.9c.5-1.3-1.5-2-1.9-.7a3 3 0 0 1-2.3 1.6 9 9 0 0 1-8.3-3.2 3 3 0 0 1-.7-2.4c1.1.4 2.3.7 3.5.7V44c1.1 0 2.3-.2 3.3-.6a5 5 0 0 0 2.8-2.8c.5-1.3-1.4-2-1.9-.7a3 3 0 0 1-1.7 1.6c-2 .7-4.2.6-6.1-.2-3.5-1.4-5.6-4.3-4.8-6.4a1 1 0 0 0-1-1.4zm90.8.1a1 1 0 0 0-.9 1.4c.9 2.1-1.3 5-4.8 6.4a8 8 0 0 1-6.1.2 3 3 0 0 1-1.7-1.7c-.1-1.2-2.5-.3-1.8.7a5 5 0 0 0 2.7 2.8c1 .5 2.2.7 3.4.7V44c1.2 0 2.3-.1 3.4-.4a3 3 0 0 1-.7 2.2 9 9 0 0 1-8.3 3.2 3 3 0 0 1-2.3-1.6c-.5-1.3-2.4-.6-1.9.7a4.8 4.8 0 0 0 3.8 2.9l1.8.1h-.1a11 11 0 0 0 4-.8 10 10 0 0 0 4.6-3.3c1-1.2 1.4-2.8 1-4.3 4-2 6-5.5 4.9-8.4a1 1 0 0 0-1-.7zm-54 1.8a.7.7 0 1 0 0 1.4.7.7 0 0 0 0-1.4zm17.3 0a.7.7 0 1 0 0 1.4.7.7 0 0 0 0-1.4z"></path></svg>