<svg xmlns="http://www.w3.org/2000/svg" width="87.513" height="60.018" viewBox="0 0 87.513 60.018">
  <path id="Path_8476" data-name="Path 8476" d="M1712.521,8032.808a7.6,7.6,0,0,1-1.377-6.243,14.944,14.944,0,0,1,3.979-6.542,28.284,28.284,0,0,1,2.607-2.42c-.319-.291-.807-.726-1.424-1.254a37.7,37.7,0,0,1-6.836,3.977,25.136,25.136,0,0,1-10.141,2.315,19.379,19.379,0,0,1-4.711-.573,8.127,8.127,0,0,1-6.622-7.475,15.424,15.424,0,0,1-6.342-1.916,13.558,13.558,0,0,1-3.694-3.287,9.245,9.245,0,0,1-1.906-4.453,7.4,7.4,0,0,1,.438-3.531,10.1,10.1,0,0,1,2.377-3.537c2.6-2.6,6.207-3.918,10.718-3.918a41.153,41.153,0,0,1,14.124,3.061,100.278,100.278,0,0,1,13.495,6.427,50.6,50.6,0,0,0,5.862-5.183l.006-.008a43.241,43.241,0,0,0,4.592-5.583c2.029-2.946,4.376-7.266,4.041-11.117a10.015,10.015,0,0,0-.6-3.011,2.215,2.215,0,0,0-2.17-1.539c-.056,0-.115,0-.173,0a8.862,8.862,0,0,0-4.39,2.5,16.147,16.147,0,0,0-3.255,4.527,28.444,28.444,0,0,0-2.46,8.007.5.5,0,0,1-.984.03,38.809,38.809,0,0,0-2.222-6.7c-1.323-2.958-3.527-6.485-6.507-6.483a4.268,4.268,0,0,0-1.248.193c-1.894.579-2.307,2.337-2.321,3.712a13.549,13.549,0,0,0,2.559,7.251,13.258,13.258,0,0,0,6.556,5.286,7.208,7.208,0,0,0,2.232.353,7.635,7.635,0,0,0,5.1-1.98c3.7-3.325,4.709-6.558,4.874-8.77a2.93,2.93,0,0,1-1.543-1.783,2.055,2.055,0,0,1,.417-1.74,2.439,2.439,0,0,1,1.889-.787,2.589,2.589,0,0,1,2.238,1.115,3.427,3.427,0,0,1,.583,1.875,7.872,7.872,0,0,1-1.22,3.781c-2.6,4.662-6.36,10.014-12.495,10.014a15.278,15.278,0,0,1-12.793-8.137,11.61,11.61,0,0,1-1.041-7.167c.577-2.979,2.448-4.979,4.884-5.223a9.3,9.3,0,0,1,.946-.049c3.085,0,7.173,1.6,9.691,8.907a22.725,22.725,0,0,1,1.833-4.172,15.2,15.2,0,0,1,3.269-4.071,10.135,10.135,0,0,1,5.189-2.4,5.237,5.237,0,0,1,.776-.057,5.155,5.155,0,0,1,3.168,1.073,6.453,6.453,0,0,1,2.39,4.549c.28,2.587-.536,5.84-2.426,9.667a19.371,19.371,0,0,1-1.575,2.633,53.851,53.851,0,0,1-11.488,11.722c1.371.8,2.763,1.647,4.15,2.521,6.156-5.929,16.253-15.521,25.568-15.521a13.036,13.036,0,0,1,1.464.083,19.685,19.685,0,0,1,7.6,2.307,10.616,10.616,0,0,1,4.473,4.583,9.159,9.159,0,0,1,.8,5.172,14.4,14.4,0,0,1-2.255,5.878c-3.739,5.92-9.81,9.05-17.554,9.05a34.813,34.813,0,0,1-9.032-1.277.381.381,0,0,1-.067-.024l-.944-.407a5.29,5.29,0,0,1,1.262,2.283,3.916,3.916,0,0,1-.7,3.315,4.529,4.529,0,0,1-3.817,1.644,13.439,13.439,0,0,1-5.624-1.547,8.768,8.768,0,0,1-1.167-.675l-.311-.212c-.867-.589-2.589-1.76-3.827-2.769l-.51.458a12.835,12.835,0,0,0-2.98,4.188,8.807,8.807,0,0,0-.847,4.727,4.022,4.022,0,0,0,2.414,3.219,1.2,1.2,0,0,0,.52.117,1.266,1.266,0,0,0,.936-.421,1.137,1.137,0,0,0,.234-.416,3.232,3.232,0,0,1-2.625-1.714c-.272-.653-.312-1.714,1.032-3.059a2.5,2.5,0,0,1,1.777-.794,3.486,3.486,0,0,1,2.692,1.664,6.07,6.07,0,0,1,1.121,3.434,4.129,4.129,0,0,1-1.367,3.184,6.689,6.689,0,0,1-4.557,1.383A5.822,5.822,0,0,1,1712.521,8032.808Zm8.526-14.688c2.077,1.6,5.989,4.293,8.7,4.293a2.869,2.869,0,0,0,1.256-.258c1.295-.625,1.92-1.492,1.758-2.446a3.223,3.223,0,0,0-1.442-1.962,7.467,7.467,0,0,0-3.43-1.22,6.332,6.332,0,0,0-.724-.041A16.27,16.27,0,0,0,1721.046,8018.12Zm-27.83,1.329a12.255,12.255,0,0,0,6.239,1.476,19.166,19.166,0,0,0,4.682-.589,32.1,32.1,0,0,0,10.484-5.392,61.352,61.352,0,0,0-5.765-4.187,52.273,52.273,0,0,1-13.587,3.707,29.937,29.937,0,0,1-4.208.292c-.252,0-.506,0-.756-.01A6,6,0,0,0,1693.216,8019.449ZM1719.2,8014l-.008.008c-.022.022-.492.468-1.339,1.156.559.514,1.125,1.05,1.688,1.6a22.668,22.668,0,0,1,6-1.8,13.891,13.891,0,0,1,1.881-.131,11.736,11.736,0,0,1,1.992.166c-1.311-.78-3.541-2.12-6.941-4.2C1721.387,8011.832,1720.288,8012.907,1719.2,8014Zm22.424-18.056a27.415,27.415,0,0,0-4.178,2.418,104.474,104.474,0,0,0-12.267,9.9c2.448,1.583,4.273,2.855,5.18,3.489.3.206.512.357.591.407.25.159,6.235,3.938,12.952,3.938,5.985,0,10.641-2.973,13.842-8.833a8.972,8.972,0,0,0,1.083-5,8.386,8.386,0,0,0-1.884-4.7,9.213,9.213,0,0,0-7.5-3.178A23.8,23.8,0,0,0,1741.621,7995.942Zm-30.653,13.843a48.061,48.061,0,0,1,5.263,3.938c1.48-1.164,3.021-2.482,4.59-3.932-1.488-.912-3.069-1.883-4.713-2.9A54.84,54.84,0,0,1,1710.968,8009.785Zm-18.191-1.627a5.937,5.937,0,0,0-2.472,4.65c.6.055,1.21.091,1.827.107a30.194,30.194,0,0,0,4.5-.482,47.173,47.173,0,0,0,10.05-2.95,16.677,16.677,0,0,0-4.775-1.835l-.058-.014a17.05,17.05,0,0,0-4.469-.637A8.206,8.206,0,0,0,1692.777,8008.158Zm-12.948-8.387a5.73,5.73,0,0,0-1.289,2.831,6.912,6.912,0,0,0,.337,3.454,8.585,8.585,0,0,0,3.045,3.949,14.746,14.746,0,0,0,6.047,2.476,7.9,7.9,0,0,1,5.683-6.5,16.213,16.213,0,0,1,4.307-.575,22.8,22.8,0,0,1,10.873,3.107,48.917,48.917,0,0,0,5.221-2.894c-1.668-1.033-3.378-2.093-5.092-3.16a50.173,50.173,0,0,0-10.676-5.156,26.831,26.831,0,0,0-8.294-1.456C1685.694,7995.853,1681.99,7997.281,1679.828,7999.771Zm69.272-8.083Z" transform="translate(-1676 -7975.044)" fill="#fff"/>
</svg>
