<svg xmlns="http://www.w3.org/2000/svg" width="124.67" height="35.98" viewBox="0 0 124.67 35.98">
  <path id="Path_8544" data-name="Path 8544" d="M38.93-17.16h0a8.128,8.128,0,0,1-.33.8,10.25,10.25,0,0,1-1.02,1.73,19.1,19.1,0,0,1-1.88,2.28,17.149,17.149,0,0,1-2.96,2.42,22.633,22.633,0,0,1-4.22,2.16,26.824,26.824,0,0,1-5.64,1.49h0a28.3,28.3,0,0,1-4.53.35h0A29.2,29.2,0,0,1,14.4-6.2a22.893,22.893,0,0,1-3.79-.84A17.828,17.828,0,0,1,7.22-8.51a11.69,11.69,0,0,1-2.73-2.11,9.29,9.29,0,0,1-1.83-2.8,8.957,8.957,0,0,1-.67-3.53h0A9.459,9.459,0,0,1,3.9-22.88a12.256,12.256,0,0,1,5.66-3.86h0a8.332,8.332,0,0,1-1.99-2.74,7.667,7.667,0,0,1-.66-3.12h0a7.681,7.681,0,0,1,.93-3.73,9.171,9.171,0,0,1,2.57-2.95,12.409,12.409,0,0,1,3.9-1.93,16.7,16.7,0,0,1,4.96-.7h0a19.229,19.229,0,0,1,4.74.52,14.94,14.94,0,0,1,3.47,1.29,10.15,10.15,0,0,1,2.37,1.69,11.583,11.583,0,0,1,1.46,1.71,6.827,6.827,0,0,1,.75,1.34q.21.56.24.63h0a1.213,1.213,0,0,1,.02.25h0a.863.863,0,0,1-.25.6.814.814,0,0,1-.64.27h0a.768.768,0,0,1-.5-.18.88.88,0,0,1-.32-.48h0a4.108,4.108,0,0,0-.19-.5,5.975,5.975,0,0,0-.65-1.11,9.108,9.108,0,0,0-1.28-1.4,9.23,9.23,0,0,0-2.08-1.38,14.056,14.056,0,0,0-3.02-1.07,17.9,17.9,0,0,0-4.12-.42h0a14.788,14.788,0,0,0-4.73.68,10.184,10.184,0,0,0-3.3,1.77A7.272,7.272,0,0,0,9.3-35.27a6.088,6.088,0,0,0-.63,2.62h0a6.046,6.046,0,0,0,.75,2.91,6.852,6.852,0,0,0,2.16,2.36h0q1.26-.32,2.48-.51t2.3-.29q1.08-.11,1.96-.14t1.44-.04h0a11.206,11.206,0,0,1,1.9.15,6.162,6.162,0,0,1,1.48.45,2.528,2.528,0,0,1,.98.75,1.673,1.673,0,0,1,.35,1.04h0a1.73,1.73,0,0,1-.35,1.06,2.887,2.887,0,0,1-.98.79,5.579,5.579,0,0,1-1.48.51,9.92,9.92,0,0,1-1.9.17h0a18.853,18.853,0,0,1-2.28-.14,20.232,20.232,0,0,1-2.23-.4,15.344,15.344,0,0,1-2.1-.64,11.964,11.964,0,0,1-1.83-.88h0a12.093,12.093,0,0,0-5.65,3.25,7.5,7.5,0,0,0-1.92,5.23h0a7.408,7.408,0,0,0,.6,3.04A7.664,7.664,0,0,0,6-11.6,10.283,10.283,0,0,0,8.47-9.83a16.035,16.035,0,0,0,3.04,1.2,22.688,22.688,0,0,0,3.37.7,28.194,28.194,0,0,0,3.5.22h0q1.12,0,2.17-.08t2.04-.25h0a24.131,24.131,0,0,0,5.2-1.37,22.13,22.13,0,0,0,3.86-1.97,16.083,16.083,0,0,0,2.71-2.18,16.083,16.083,0,0,0,1.72-2.04A10.062,10.062,0,0,0,37-17.11q.27-.59.27-.61h0a.8.8,0,0,1,.31-.43.883.883,0,0,1,.51-.15h0a.876.876,0,0,1,.63.25.835.835,0,0,1,.26.61h0A1.128,1.128,0,0,1,38.93-17.16ZM22.69-25.95h0q0-.18-.31-.32a3.325,3.325,0,0,0-.78-.23,9.533,9.533,0,0,0-1.09-.11q-.61-.04-1.24-.04h0q-1.39,0-2.63.08a25.734,25.734,0,0,0-2.84.39h0a15.792,15.792,0,0,0,2.81.72,19.613,19.613,0,0,0,3.19.26h0a7.55,7.55,0,0,0,2.18-.23Q22.69-25.66,22.69-25.95Zm24,16.67h0q.35-.7.9-1.75t1.15-2.1q.6-1.05,1.17-1.99a14.586,14.586,0,0,1,.97-1.43h0a4.292,4.292,0,0,1,1.41-1.17,3.133,3.133,0,0,1,1.34-.35h0a2.007,2.007,0,0,1,1.04.26,2.193,2.193,0,0,1,.71.69,3.22,3.22,0,0,1,.42,1.01,4.82,4.82,0,0,1,.15,1.23h0q0,.37-.04.98t-.07,1.31q-.04.71-.07,1.46t-.06,1.4h0q.35-.7.8-1.56t.9-1.69q.46-.85.88-1.59a12.381,12.381,0,0,1,.77-1.2h0a6.181,6.181,0,0,1,1.89-1.86,3.454,3.454,0,0,1,1.56-.46h0a2.664,2.664,0,0,1,1.31.29,2.2,2.2,0,0,1,.81.75,3.122,3.122,0,0,1,.41,1.02,5.152,5.152,0,0,1,.12,1.08h0a12.163,12.163,0,0,1-.12,1.66,15.311,15.311,0,0,0-.12,2.06h0a9.746,9.746,0,0,0,.05.99,3.136,3.136,0,0,0,.2.86,1.315,1.315,0,0,0,.48.61,1.483,1.483,0,0,0,.89.24h0a2.435,2.435,0,0,0,1.19-.32,4.963,4.963,0,0,0,1.13-.83,9.233,9.233,0,0,0,1.02-1.17q.48-.66.88-1.31t.7-1.26q.31-.6.49-1.02h0a.939.939,0,0,1,.33-.4.829.829,0,0,1,.47-.14h0a.778.778,0,0,1,.64.3.935.935,0,0,1,.25.62h0a.864.864,0,0,1-.07.33h0q-.09.18-.37.78t-.75,1.36q-.47.76-1.09,1.61a12.252,12.252,0,0,1-1.38,1.55,7.284,7.284,0,0,1-1.61,1.18,3.93,3.93,0,0,1-1.83.45h0a3.449,3.449,0,0,1-1.68-.36,2.876,2.876,0,0,1-1.03-.97,4.052,4.052,0,0,1-.53-1.41,9.616,9.616,0,0,1-.14-1.66h0a17.332,17.332,0,0,1,.12-2.12,13.391,13.391,0,0,0,.12-1.52h0a2.788,2.788,0,0,0-.11-.89.964.964,0,0,0-.25-.43.553.553,0,0,0-.3-.14q-.14-.01-.21-.01h0a1.745,1.745,0,0,0-1.18.62,9.883,9.883,0,0,0-1.28,1.65q-.66,1.03-1.35,2.34T57.33-9.02h0q-.4.75-.67,1.24a4.246,4.246,0,0,1-.52.77,1.593,1.593,0,0,1-.48.4,1.086,1.086,0,0,1-.51.12h0a1.1,1.1,0,0,1-.93-.42,1.853,1.853,0,0,1-.31-1.11h0q0-.35.02-.93t.05-1.29q.02-.71.07-1.46t.07-1.44q.02-.69.04-1.23t.03-.82h0a1.447,1.447,0,0,0-.21-.88.619.619,0,0,0-.5-.27h0a1.149,1.149,0,0,0-.57.19,2.973,2.973,0,0,0-.74.73h0a13.982,13.982,0,0,0-.83,1.23q-.5.81-1.07,1.79t-1.11,2.02q-.55,1.03-.95,1.85h0a3.845,3.845,0,0,1-.98,1.35,1.658,1.658,0,0,1-.96.36h0a1.219,1.219,0,0,1-1.01-.41,1.687,1.687,0,0,1-.33-1.09h0q0-.07.03-.84t.09-1.89q.04-1.11.1-2.38t.11-2.37h0a6.248,6.248,0,0,0-.05-1.08q-.07-.49-.19-.58h0q-.18.05-.73.87a17.182,17.182,0,0,0-1.4,2.86h0a.9.9,0,0,1-.35.39.962.962,0,0,1-.49.14h0a.829.829,0,0,1-.64-.26.942.942,0,0,1-.23-.63h0a1.019,1.019,0,0,1,.07-.35h0a15.32,15.32,0,0,1,2.02-3.69,2.586,2.586,0,0,1,1.87-1.18h0a1.588,1.588,0,0,1,.9.24,1.781,1.781,0,0,1,.58.64,2.852,2.852,0,0,1,.3.88,4.794,4.794,0,0,1,.1.96h0q0,2.08-.11,3.82T46.69-9.28Zm30.68,0h0q.35-.7.9-1.75t1.15-2.1q.6-1.05,1.17-1.99a14.587,14.587,0,0,1,.97-1.43h0a4.292,4.292,0,0,1,1.41-1.17,3.116,3.116,0,0,1,1.33-.35h0a2.027,2.027,0,0,1,1.05.26,2.193,2.193,0,0,1,.71.69,3.22,3.22,0,0,1,.42,1.01,4.821,4.821,0,0,1,.15,1.23h0q0,.37-.04.98t-.07,1.31q-.04.71-.07,1.46t-.06,1.4h0q.35-.7.8-1.56t.9-1.69q.46-.85.88-1.59a12.382,12.382,0,0,1,.77-1.2h0a6.181,6.181,0,0,1,1.89-1.86,3.454,3.454,0,0,1,1.56-.46h0a2.664,2.664,0,0,1,1.31.29,2.2,2.2,0,0,1,.81.75,3.122,3.122,0,0,1,.41,1.02,5.152,5.152,0,0,1,.12,1.08h0a12.164,12.164,0,0,1-.12,1.66,15.311,15.311,0,0,0-.12,2.06h0a9.746,9.746,0,0,0,.05.99,3.136,3.136,0,0,0,.2.86,1.315,1.315,0,0,0,.48.61,1.483,1.483,0,0,0,.89.24h0a2.435,2.435,0,0,0,1.19-.32,4.963,4.963,0,0,0,1.13-.83,9.233,9.233,0,0,0,1.02-1.17q.48-.66.88-1.31t.7-1.26q.31-.6.49-1.02h0a.939.939,0,0,1,.33-.4.829.829,0,0,1,.47-.14h0a.778.778,0,0,1,.64.3.935.935,0,0,1,.25.62h0a.864.864,0,0,1-.07.33h0q-.09.18-.37.78t-.75,1.36q-.47.76-1.09,1.61a12.252,12.252,0,0,1-1.38,1.55,7.284,7.284,0,0,1-1.61,1.18,3.93,3.93,0,0,1-1.83.45h0a3.449,3.449,0,0,1-1.68-.36,2.876,2.876,0,0,1-1.03-.97,4.052,4.052,0,0,1-.53-1.41,9.615,9.615,0,0,1-.14-1.66h0a17.331,17.331,0,0,1,.12-2.12,13.391,13.391,0,0,0,.12-1.52h0a2.788,2.788,0,0,0-.11-.89.912.912,0,0,0-.26-.43.509.509,0,0,0-.29-.14q-.14-.01-.21-.01h0a1.745,1.745,0,0,0-1.18.62,9.884,9.884,0,0,0-1.28,1.65q-.66,1.03-1.35,2.34T88.01-9.02h0q-.4.75-.67,1.24a4.246,4.246,0,0,1-.52.77,1.593,1.593,0,0,1-.48.4,1.086,1.086,0,0,1-.51.12h0a1.1,1.1,0,0,1-.93-.42,1.853,1.853,0,0,1-.31-1.11h0q0-.35.02-.93t.05-1.29q.02-.71.07-1.46t.07-1.44q.02-.69.04-1.23t.03-.82h0a1.447,1.447,0,0,0-.21-.88.619.619,0,0,0-.5-.27h0a1.149,1.149,0,0,0-.57.19,2.972,2.972,0,0,0-.74.73h0a13.981,13.981,0,0,0-.83,1.23q-.5.81-1.07,1.79t-1.11,2.02q-.55,1.03-.95,1.85h0a3.845,3.845,0,0,1-.98,1.35,1.658,1.658,0,0,1-.96.36h0a1.219,1.219,0,0,1-1.01-.41,1.687,1.687,0,0,1-.33-1.09h0q0-.07.03-.84t.09-1.89q.04-1.11.1-2.38t.11-2.37h0a6.248,6.248,0,0,0-.05-1.08q-.07-.49-.19-.58h0q-.18.05-.74.87a17.906,17.906,0,0,0-1.39,2.86h0a.9.9,0,0,1-.35.39.962.962,0,0,1-.49.14h0a.829.829,0,0,1-.64-.26.942.942,0,0,1-.23-.63h0a1.019,1.019,0,0,1,.07-.35h0a15.32,15.32,0,0,1,2.02-3.69,2.586,2.586,0,0,1,1.87-1.18h0a1.588,1.588,0,0,1,.9.24,1.781,1.781,0,0,1,.58.64,2.852,2.852,0,0,1,.3.88,4.794,4.794,0,0,1,.1.96h0q0,2.08-.11,3.82T77.37-9.28Zm29.08-16.31h0a2.055,2.055,0,0,1-.62,1.51,2.055,2.055,0,0,1-1.51.62h0a2.055,2.055,0,0,1-1.51-.62,2.055,2.055,0,0,1-.62-1.51h0a2.191,2.191,0,0,1,.16-.84,2.355,2.355,0,0,1,.46-.68,2.052,2.052,0,0,1,.68-.45,2.054,2.054,0,0,1,.83-.17h0a2.009,2.009,0,0,1,.83.17,2.052,2.052,0,0,1,.68.45,2.116,2.116,0,0,1,.46.68A2.191,2.191,0,0,1,106.45-25.59Zm-3.79,13.73h0a54.208,54.208,0,0,1,.42-6.73h0a1.042,1.042,0,0,1,.29-.57.879.879,0,0,1,.65-.25h0a.73.73,0,0,1,.58.27.906.906,0,0,1,.24.62h0q0,.14-.06.85T104.64-16q-.09.98-.14,2.07t-.06,2h0a6.819,6.819,0,0,0,.24,2,3.169,3.169,0,0,0,.64,1.19,1.888,1.888,0,0,0,.82.56,2.676,2.676,0,0,0,.83.14h0a2.445,2.445,0,0,0,1.36-.47,7.67,7.67,0,0,0,1.44-1.31,15.9,15.9,0,0,0,1.49-2.03,28.724,28.724,0,0,0,1.47-2.63h0a.893.893,0,0,1,.33-.37.875.875,0,0,1,.47-.13h0a.779.779,0,0,1,.62.28.924.924,0,0,1,.25.61h0a.742.742,0,0,1-.1.4h0q-.28.54-.7,1.31t-.96,1.6q-.54.82-1.18,1.63a11.886,11.886,0,0,1-1.37,1.45,6.755,6.755,0,0,1-1.53,1.04,3.528,3.528,0,0,1-1.61.4h0a3.8,3.8,0,0,1-1.86-.44,4.265,4.265,0,0,1-1.34-1.2,5.217,5.217,0,0,1-.82-1.77A8.533,8.533,0,0,1,102.66-11.86Zm2.48-13.73h0a.8.8,0,0,0-.25-.58.779.779,0,0,0-.57-.24h0a.746.746,0,0,0-.56.24.812.812,0,0,0-.24.58h0a.767.767,0,0,0,.24.56.762.762,0,0,0,.56.23h0a.8.8,0,0,0,.57-.23A.753.753,0,0,0,105.14-25.59ZM115.52-9.77h0a3.726,3.726,0,0,0,1.27,1.09,4,4,0,0,0,1.9.41h0a4.009,4.009,0,0,0,2.08-.55,6.993,6.993,0,0,0,1.71-1.45,11.378,11.378,0,0,0,1.39-1.99q.61-1.1,1.1-2.2h0a.872.872,0,0,1,.33-.39.875.875,0,0,1,.47-.13h0a.819.819,0,0,1,.64.28.924.924,0,0,1,.25.61h0a.574.574,0,0,1-.03.2.67.67,0,0,1-.07.18h0a17.012,17.012,0,0,1-3.52,5.37,6.349,6.349,0,0,1-4.33,1.85h0a5.579,5.579,0,0,1-2.67-.6,5.543,5.543,0,0,1-1.85-1.55,6.477,6.477,0,0,1-1.08-2.14,8.5,8.5,0,0,1-.35-2.39h0a7.985,7.985,0,0,1,.29-2.21,5.538,5.538,0,0,1,.84-1.75,4.144,4.144,0,0,1,1.32-1.17,3.333,3.333,0,0,1,1.67-.43h0a2.666,2.666,0,0,1,1.07.23,2.992,2.992,0,0,1,.95.63,3.189,3.189,0,0,1,.68.99,3.291,3.291,0,0,1,.26,1.34h0a4.957,4.957,0,0,1-.33,1.81,6.261,6.261,0,0,1-.9,1.57,7.946,7.946,0,0,1-1.38,1.33A9.922,9.922,0,0,1,115.52-9.77Zm-.7-1.53h0a5.4,5.4,0,0,0,1.32-.77,5.516,5.516,0,0,0,1.02-1.03,4.459,4.459,0,0,0,.66-1.19,3.57,3.57,0,0,0,.23-1.25h0a1.5,1.5,0,0,0-.35-1.07,1.108,1.108,0,0,0-.82-.36h0a1.706,1.706,0,0,0-1.08.35,2.639,2.639,0,0,0-.72.92,4.746,4.746,0,0,0-.41,1.25,7.386,7.386,0,0,0-.13,1.37h0a5.313,5.313,0,0,0,.08.89A8.324,8.324,0,0,0,114.82-11.3Z" transform="translate(-1.99 41.91)" fill="#fff"/>
</svg>
