<svg xmlns="http://www.w3.org/2000/svg" width="688.456" height="617.294">
  <path d="M611.405 541.125c.922-1.686 1.809-3.39 2.731-5.08 2.476-4.548 5.017-9.071 7.433-13.653 3.848-7.283 6.118-15.342 10.907-22.169a6.516 6.516 0 00.588-1.607c1.6-4.515 3.3-9 4.755-13.563a21.7 21.7 0 001.465-7.268c-.285-6.571.569-13.035 1.042-19.542.659-9.142 4.256-16.669 11.648-22.207a15.732 15.732 0 004.406-5.238c1.109-2.023 2.289-4.013 3.559-5.939 2.327-3.525 4.3-7.426 7.224-10.374 3.994-4.028 6.879-8.749 10.094-13.289a44.919 44.919 0 013.065-4.178c3.866-4.316 5.631-9.232 6.182-15.095a17.926 17.926 0 00-5.35-15.144 52.966 52.966 0 00-15.864-11.277c-6.71-2.953-13.147-6.388-19.573-9.824-3.012-1.611-6.227-2.81-9.093-4.84-5-3.537-10.438-6.444-15.627-9.726-2.731-1.731-5.32-3.687-8.46-5.879a35.917 35.917 0 013.5-1.738c6.339-2.249 12.761-4.275 19.033-6.692 10.236-3.941 20.311-8.228 28.958-15.249 9.228-7.5 16.856-16.193 21.307-27.4 2.536-6.384 2.686-13.117 3.117-19.82-1.3-3.458-1.349-7.141-1.765-10.735-.937-8.13-4.286-15.537-6.872-23.143a39.775 39.775 0 00-6.039-11.094 60.39 60.39 0 01-6.175-10.345c-4.271-8.793-7.868-17.962-14.031-25.732a21.859 21.859 0 01-1.817-2.942c-2.091-3.735-5.028-6.785-7.984-9.8-2.151-2.2-4.612-4.11-6.628-6.418-4.863-5.571-10.809-10.427-12.63-18.137-.079-.33-.495-.57-.716-.88a39.368 39.368 0 01-4.766-9.116 33.77 33.77 0 00-15.047-17.628c-.663-.39-1.315-.806-2-1.162a30.707 30.707 0 01-8.974-7.156c-4.031-4.638-8.089-9.273-11.866-14.118-7.078-9.089-14.545-17.92-19.786-28.306a9.734 9.734 0 00-2.832-3.593c-3.308-2.282-6.785-4.328-10.255-6.366-3.3-1.944-6.692-3.754-10.037-5.635-5.062-2.851-10.232-4.469-15.916-1.693-1.371.671-2.941.94-4.324 1.6-6.864 3.26-13.739 2.922-20.738.412-4.695-1.682-9.52-3.005-14.234-4.646-9.73-3.391-19.382-2.263-28.913.6-5.7 1.712-11.27 3.892-16.808 6.1a31.5 31.5 0 00-6.448 3.709 35.51 35.51 0 00-5.68 4.874c-2.45 2.682-5.065 5.381-6.815 8.513-4.672 8.355-10.124 16.335-13.125 25.556a9.859 9.859 0 01-.869 1.484 151.882 151.882 0 00-10.427 22.439 42.816 42.816 0 01-3.1 7.407 74.755 74.755 0 00-6.137 14.856 13.991 13.991 0 01-1.023 1.918 8.1 8.1 0 01-.6-1.577 256.6 256.6 0 00-3.668-25.661c-1.465-7.542-2.518-15.166-3.773-22.754-.191-1.135-.525-2.244-.753-3.376-1.918-9.419-4.054-18.8-5.669-28.272-1.154-6.774-3.289-12.967-7.4-18.52-4.706-6.355-9.58-12.5-15.867-17.422a72.987 72.987 0 00-31.633-14.5c-3.96-.76-7.913-1.585-11.836-2.525-4.575-1.094-9.119-.217-13.676.037-.258.015-.5.419-.742.689a4.343 4.343 0 00-1.409-.558c-3.541-.247-7.085-.509-10.633-.6-2.023-.049-4.17-.274-5.837 1.367l6.538.8c.39 2.132.723 4.181 1.143 6.215 1.963 9.58 3.923 19.16 5.95 28.726a46.073 46.073 0 002.095 7.782c2.69 6.62 4.357 13.515 6.077 20.412.6 2.413 1.611 4.724 2.218 7.138 1.072 4.267 1.81 8.621 2.994 12.855 1.959 7.025 4.031 14.024 6.305 20.951a66.332 66.332 0 013.129 11.656 19.283 19.283 0 001.484 5.533 42.676 42.676 0 012.9 9.843c1.394 6.744 3.541 13.327 5.38 19.977a20.01 20.01 0 01.925 3.327c.761 8.059 3 15.8 4.822 23.642.5 2.151 1.255 4.32.592 6.587-1.907-1.772-2.36-4.35-2.844-6.587-1.026-4.762-3.293-9-4.777-13.555-.712-2.184-1.731-4.283-2.319-6.5-3-11.349-7.325-22.233-11.379-33.218-1.791-4.859-3.282-9.835-5.182-14.649-3.728-9.457-7.89-18.749-11.424-28.276-4.533-12.237-9.895-24.17-13.537-36.733-.91-3.132-1.806-6.271-2.551-9.445-1.315-5.594-3.08-11.083-3.788-16.815a15.315 15.315 0 00-1.169-4.447c-1.956-4.276-2.536-8.82-3.069-13.766l5.706-1.592c1.236.925 2.525.475 3.807.1-1.251-.761-2.518-1.113-3.829-.172-5.242-1.3-10.408-.524-15.556.618-.318.071-.577.386-.858.615a9.533 9.533 0 00-2.578-.356c-8.779 1.016-17.557 2.015-26.309 3.207-5.062.686-9.667 2.511-13.087 6.594a19.383 19.383 0 01-2.132 1.937 24.328 24.328 0 01-14.474 6.422c-2.679.217-5.361.4-8.048.536a33.69 33.69 0 00-17.756 6.167 114.085 114.085 0 00-14.668 12.959 42.047 42.047 0 01-13.031 9.326 46.417 46.417 0 00-16.115 11.835c-3.736 4.129-7.7 8.048-11.487 12.136a24.019 24.019 0 01-10.247 6.235c-4.166 1.4-8.392 2.855-12.9 2.776a15.925 15.925 0 00-7.707 2.094c-7.385 3.855-12.84 9.727-17.25 16.617-3 4.691-5.668 9.595-8.568 14.353-4.972 8.165-4.125 16.081.843 23.874.929 1.457 1.956 2.866 2.765 4.387a34.875 34.875 0 0016.534 15.451c7.819 3.612 15.661 7.377 24.125 9.445a26.083 26.083 0 013.736 1.492c2.293.956 4.593 1.892 6.86 2.9 1.15.513 2.237 1.176 4.189 2.217a42.5 42.5 0 01-4.754 1.068c-3.443.307-6.909.356-10.345.735-4.38.483-8.966.524-13.053 1.941-6.688 2.319-13.387 4.811-19.479 8.606a97.456 97.456 0 00-15.17 12.282c-7.141 6.74-14.822 12.817-22.525 18.872-1.5 1.184-3.278 2.237-4.294 3.769a41.589 41.589 0 01-6.534 7.216 11.789 11.789 0 00-3.751 5.68c-1.457 5.777-2.993 11.536-4.4 17.324a11.478 11.478 0 00-.289 3.975 85.973 85.973 0 001.4 8.517 24.678 24.678 0 01-.064 10.3c-.457 2.263-1.109 4.5-1.383 6.785a52.286 52.286 0 01-6.845 21.233 7.382 7.382 0 00-1.109 4.957c.491 3.612.6 7.37 1.72 10.79 1.93 5.886 4.934 11.214 10.352 14.829a99.774 99.774 0 0110.2 7.546 30.6 30.6 0 0010.865 6.287c5.433 1.754 7.433 2.125 6.489 10.524-.911 8.108-2.027 16.47 2.686 24.155 1.259 2.05 1.105 4.979 2.4 6.992s3.612 3.357 5.44 5.036c9.6 8.823 21.045 11.375 33.682 10.1 5.193-.521 9.446-3.2 13.687-5.811a57.909 57.909 0 0112.548-5.721c3.653-1.187 7.28-2.454 10.922-3.687.821-.277 1.461-.142 1.768.851-2.285 3.031-5.009 5.868-6.834 9.2-7.1 12.968-12.113 26.583-11.622 41.7.067 2.114-.161 4.242-.03 6.347.195 3.057.5 6.114.925 9.149.768 5.515 1.825 11 2.439 16.53.566 5.088 1.96 9.775 5.114 13.848 3.642 4.7 7.152 9.517 11.064 13.986 2.634 3.012 5.519 6.1 8.917 8.066a28.765 28.765 0 0011.431 3.639c4.747.446 9.355 1.933 14.222 1.652a17.974 17.974 0 016.74 1.36c6.347 2.237 12.66 4.578 18.9 7.085a40.159 40.159 0 0112.78 7.7 20.073 20.073 0 0010.146 5.2 132.683 132.683 0 0116.058 4.44 32.594 32.594 0 0114.882 9.408c2.432 2.724 5.073 5.253 7.595 7.9 3.713 3.893 7.56 7.673 11.045 11.761a54.539 54.539 0 017.047 10.471 106.561 106.561 0 008.823 13.481 15.475 15.475 0 004.5 3.5c3.642 2.255 7.76 3.39 11.87 4.354a55.669 55.669 0 0111.746 4.653c5.519 2.709 11.015 5.466 16.463 8.318 3.477 1.817 7.328 2.229 11.038 3.158a6.168 6.168 0 003.394-.292c5.38-1.974 10.851-3.675 15.141-7.931 2.019-2 4.342-3.713 6.261-5.89a69.155 69.155 0 015.429-5.148c3.848-3.5 7.6-7.1 10.247-11.637 2.42-4.147 4.642-8.411 6.991-12.6 3.177-5.665 5.751-11.667 10.2-16.6a13.044 13.044 0 003.327-9c-.015-3.836.195-7.677.367-11.513a29.953 29.953 0 01.794-3.728c1.173 2.656 1.9 4.151 2.5 5.691 2.581 6.654 5.624 13.042 10.262 18.568 1.356 1.615 2.48 3.425 3.743 5.122a90.384 90.384 0 0014.125 15.125c4.991 4.211 10.071 8.314 15.133 12.442.588.48 1.315.78 1.941 1.214a35.322 35.322 0 015.118 3.694c5.069 5.092 11.161 8.678 17.216 12.383 6.815 4.17 14.309 5.279 22.072 5.466 3.188-1.248 6.385-2.48 9.562-3.751 2.143-.854 4.253-1.794 6.4-2.645a9.709 9.709 0 013.282-1.019c4.395 0 8.677-1.367 13.132-.854a26.813 26.813 0 006.894-.311c4.758-.716 9.524-1.776 13.713-4.129a166.074 166.074 0 0014.481-9.359c7.681-5.425 15.451-10.783 20.805-18.831a18.173 18.173 0 017.107-5.766c5.635-2.9 11.375-5.6 16.991-8.535a39.393 39.393 0 0016.697-16.209zm12.484-30.456c-1.529 3.274-2.278 6.972-5.159 9.887-4.211.528-7.5-1.383-10.764-2.821a120.933 120.933 0 01-19.587-10.978c-3.8-2.607-7.741-5.017-11.435-7.759a110.486 110.486 0 01-18.464-17.235c-2.859-3.368-5.864-6.62-8.846-9.88-5.605-6.126-9.539-13.436-14.316-20.142-2-2.814-4.058-5.594-6.051-8.415-6.647-9.4-13.323-18.76-19.322-28.614-3.683-6.051-8.318-11.517-12.45-17.3a84.589 84.589 0 01-5.032-7.722 127.219 127.219 0 00-12.563-17.9 176.6 176.6 0 01-10.854-14.886c-3.885-5.943-8.048-11.709-12.169-17.494-4.455-6.246-9-12.424-13.552-18.692.79-.81 1.626-.075 2.244.472 4.74 4.193 9.516 8.351 14.1 12.716a88.709 88.709 0 017.343 8.111c5.583 6.834 11.5 13.421 15.818 21.21a34.756 34.756 0 006.332 8.876 11.866 11.866 0 011.679 2.334c8.782 13.589 18.932 26.163 29.359 38.468 8.437 9.959 17.557 19.348 26.545 28.827 2.626 2.765 5.864 4.946 8.782 7.441 1.6 1.371 3.125 2.84 4.683 4.267 4.818 4.406 9.6 8.854 14.466 13.215 4.147 3.721 8.385 7.343 12.585 11.008a128.864 128.864 0 0021.266 14.811 73.827 73.827 0 0015.29 6.643c1.277.382 2.517.88 3.822 1.337.192 4.071-2.244 6.993-3.75 10.219zm12.619-39.1c1.454 9.131-2.8 16.8-5.74 25.054a46.152 46.152 0 01-4.773-.982 111.54 111.54 0 01-29.209-14.71 271.9 271.9 0 01-23.761-19.149c-2.312-2.023-4.477-4.215-6.729-6.306-3.095-2.877-6.032-5.957-9.352-8.546a130.08 130.08 0 01-19.041-18.377c-3.357-3.945-6.812-7.823-10.382-11.581-7.291-7.681-13.552-16.182-20.15-24.432-5.882-7.359-10.791-15.384-16.557-22.81-3.758-4.841-6.95-10.12-10.4-15.2a32.705 32.705 0 00-2-2.817q-8.4-9.852-16.849-19.674a13.894 13.894 0 01-.88-1.536c11.042 8.932 22.424 16.493 31.794 26.511a84.791 84.791 0 007.257 6.591 81.257 81.257 0 0112.48 13.511 182.605 182.605 0 0018.32 21.408c4.38 4.286 8.254 9.085 12.533 13.48 4.545 4.665 9.168 9.273 14 13.638 7.853 7.1 16.145 13.664 25.459 18.8 4.713 2.6 9.513 5.028 14.219 7.636 6.373 3.536 12.81 6.98 19 10.82 5.8 3.6 12.229 5.522 18.509 7.891.693.262 1.413.484 2.252.776zm-167.54-141.4l1.514 1.307-.236.378-1.806-1.031zm5.564 3.121c2.773 1.611 5.527 3.259 8.325 4.822 6.531 3.653 13.383 6.827 19.569 10.989 11.06 7.441 23.514 12.218 34.874 19.067 6.07 3.656 12.6 6.545 18.816 9.966 3.188 1.749 6.141 3.923 9.213 5.886 1.941 1.24 3.874 2.492 5.867 3.649 4.972 2.893 10.063 5.546 14.882 8.752a121.843 121.843 0 0023.582 12 140.931 140.931 0 0132.963 18.745c2.439 1.81 4.635 3.949 7.036 6.018-1.585 3.087-3.829 5.073-6.369 7.156l-3.649-1.5c-14.417-5.931-28.153-13.245-41.873-20.592-3.042-1.634-6.238-2.979-9.292-4.594-8.891-4.7-16.594-11.117-24.571-17.137-4.751-3.586-9.513-7.194-14.533-10.378-8.621-5.463-16.605-11.76-24.672-17.976-5.935-4.567-12.139-8.786-18.257-13.117-2.507-1.772-5.047-3.507-7.658-5.119-5.886-3.63-11.851-7.133-17.737-10.764-2.42-1.491-4.721-3.177-7.077-4.777zm166.926 111.22c-3.844 7.535-3.5 15.2-4.863 22.773a34.851 34.851 0 01-9.434-2.825 80.9 80.9 0 01-11.892-5.754c-7.07-4.328-14.623-7.685-21.933-11.518-10.933-5.732-21.5-11.918-30.528-20.483-5.286-5.025-10.892-9.723-16.073-14.848a366.35 366.35 0 01-30.708-34.349 170.392 170.392 0 00-21.615-22.319c-4.3-3.8-8.535-7.681-12.817-11.54 1.045-1.1 1.933-.524 2.668-.067 12.39 7.744 24.586 15.77 36.249 24.6 7.351 5.564 14.961 10.787 22.375 16.272 7.1 5.245 14.2 10.5 21.112 15.983 11.5 9.123 24.173 16.321 37.111 23.121 6.122 3.218 12.2 6.523 18.344 9.686 5.635 2.9 11.345 5.638 17 8.482 1.515.755 2.961 1.644 5.003 2.786zm11.39-14.724c-2.248-.146-3.526-1.562-4.844-3a19.181 19.181 0 00-5.448-4.14 92.464 92.464 0 01-8.786-5.515 91.775 91.775 0 00-21.045-10.626 126.051 126.051 0 01-22.281-10.76c-5.3-3.106-10.525-6.343-15.758-9.562-8.835-5.433-17.883-10.487-26.875-15.642-14.339-8.22-29.509-14.878-43.537-23.642-2.574-1.607-5.152-3.214-8.618-5.372a10.889 10.889 0 012.78.022c7.333 2.862 14.68 5.684 21.941 8.711 5.317 2.214 10.521 4.706 15.762 7.1 21.169 9.659 42.855 17.977 64.87 25.5 9.813 3.353 19.576 7.04 28.1 13.143 8.891 6.369 18.389 11.944 26.309 19.614 1.356 1.316 2.653 2.691 4.35 4.425-2.657 3.595-3.481 7.612-6.921 9.744zm9.033-14.005a16.788 16.788 0 01-2.956-1.9c-6.186-6.152-13.75-10.464-20.678-15.62a114.219 114.219 0 00-20.4-11.888 57.129 57.129 0 00-5.331-2.17q-28.342-9.779-56.23-20.764c-6.786-2.664-13.5-5.594-19.981-8.921-9.966-5.11-20.554-8.621-30.948-12.611a346.963 346.963 0 01-39.943-17.973c-6.774-3.638-13.488-7.362-20.626-10.221-8.021-3.211-16.137-6.181-24.2-9.288-.3-.112-.476-.528-1.563-1.806a166.365 166.365 0 0116.718 3.207c9.457 2.552 18.9 5.159 28.34 7.76 1.293.356 2.57.79 3.837 1.229a89.347 89.347 0 0013.851 3.9 49.213 49.213 0 017.2 2.042q12.015 4.063 23.99 8.247c5.8 2.031 11.569 4.166 17.362 6.227a53.326 53.326 0 006.572 2.144c5.144 1.1 9.771 3.4 14.447 5.676 5.009 2.435 10.2 4.515 15.148 7.07 7.864 4.057 16.118 7.208 24.14 10.884 11.693 5.358 23.143 11.244 34.694 16.9a15.385 15.385 0 002.563 1.3c8.1 2.188 14.983 6.845 22.233 10.767a15.755 15.755 0 001.963 1.2c7.9 2.833 12.046 9.689 17.231 15.474-1.345 4.208-4.597 6.321-7.434 9.134zm10.191-12.75c-1-.851-1.877-1.51-2.656-2.267-1.652-1.607-3.237-3.285-4.878-4.908a37.242 37.242 0 00-10.3-7.268c-4.687-2.211-9.149-4.886-13.777-7.227-2.563-1.3-5.257-2.338-7.9-3.466-2.462-1.052-5.054-1.854-7.388-3.132-11.457-6.291-23.5-11.357-35.29-16.946-7.636-3.616-15.328-7.115-23.027-10.6s-15.4-6.95-23.154-10.277c-2.814-1.207-5.811-1.986-8.722-2.968-12.743-4.3-25.616-8.243-38.186-13-11.9-4.507-24.395-6.864-36.425-10.881-8.542-2.855-17.358-4.908-26.069-7.246-4.264-1.142-8.565-2.154-12.862-3.147-1.967-.458-3.1-1.443-2.851-3.923a6 6 0 011.918-.468c4.98.412 9.955.862 14.919 1.4 5.538.607 11.128 1.008 16.586 2.057 8.857 1.7 17.715 3.541 26.414 5.909a293.455 293.455 0 0137.665 12.532c7.239 3.068 14.889 5.185 22.019 8.467 11.69 5.38 23.814 9.681 35.545 14.946 4.893 2.2 10.067 3.776 15.133 5.579a194.52 194.52 0 0129.378 13.136c8.389 4.657 16.879 9.138 25.32 13.7 1.686.914 3.327 1.918 5.039 2.784 4.788 2.417 9.621 4.751 14.4 7.179 2.911 1.48 5.834 2.963 8.629 4.642a21.288 21.288 0 017.407 6.485 45.673 45.673 0 01-6.888 8.908zm-263.53-99.887a45.266 45.266 0 01-4.886-3.009 7.9 7.9 0 00-7.452-1.75 2.2 2.2 0 01-2.844-1.068c6.107-1.495 12.33-1.667 18.565-1.734a4.169 4.169 0 014.073 5.864 19.2 19.2 0 01-5.163 7.208c-2.279-1.206-1.226-3.836-2.294-5.511zm-1.473 4.23c-5.039-.907-8.595-3.447-13.166-5.118 4.878-2.087 5.339-2.057 7.827-.206 1.379 1.026 2.866 1.911 4.193 3 .468.383.603 1.178 1.146 2.323zm-13.8-10.038h.015c-.116.285-.229.573-.363.851a2.31 2.31 0 01-.307.389c0-.172-.056-.386.022-.509a6.449 6.449 0 01.63-.73zm288.247 92.371a10.465 10.465 0 01-2.192-.985c-6.062-4.867-13.125-7.932-20.075-11.187-5.223-2.443-10.374-4.987-15.4-7.849-8.838-5.036-17.756-9.985-26.909-14.41a297.389 297.389 0 00-29.224-12.188c-7.4-2.653-14.627-5.811-21.918-8.763-2.139-.866-4.2-1.964-6.381-2.668-8.258-2.656-16.077-6.358-24.042-9.715s-16.07-6.4-24.159-9.456c-4.668-1.765-9.378-3.454-14.155-4.89-7.542-2.266-15.152-4.309-22.746-6.411-2.96-.82-5.916-1.689-8.925-2.292-5.837-1.176-11.686-2.319-17.572-3.222-7.029-1.079-14.091-1.99-21.161-2.776-4.384-.487-8.812-.6-13.218-.9-.858-.056-1.712-.217-3.3-.427 1.06-.78 1.42-1.218 1.87-1.349a75.473 75.473 0 0138.714-1.42c6.736 1.536 13.5 3.016 20.131 4.908 4.6 1.311 9.015 3.29 13.51 4.968a75.624 75.624 0 0010.438 3.087c4.668 1.019 9.131 2.953 13.7 4.44 6.744 2.2 13.563 4.185 20.243 6.564 7.943 2.829 16.088 4.994 24.061 7.714a25.772 25.772 0 004.99 1.4c8.542 1.079 16.182 4.785 23.922 8.146 6.152 2.675 12.214 5.574 18.239 8.531 8.966 4.4 18.374 7.752 27.5 11.772a249.278 249.278 0 0125.5 13.387c6.459 3.781 12.922 7.572 19.576 10.985 3.342 1.712 7.111 2.6 11.259 4.054.37 3.74.498 7.49-2.279 10.952zm-68.725-60.7c.791.544 1.529 1.169 2.312 1.723a93.052 93.052 0 0010.708 6.737c5.935 3.121 11.457 7.032 17.384 10.168 6.265 3.316 12.825 6.059 19.2 9.164 2.39 1.161 4.65 2.611 6.928 3.99 1.8 1.094 3.537 2.3 5.32 3.424 3.443 2.188 5.3 4.534 7.055 9.187a10.091 10.091 0 01-2.671-.127 38.3 38.3 0 01-5.89-2.346c-8.445-4.537-16.8-9.246-25.256-13.772-5.575-2.986-10.963-6.344-17.029-8.385-3.26-1.1-6.317-2.784-9.535-4.032-11.649-4.515-22.712-10.292-34.035-15.518a167.371 167.371 0 00-26.017-9.318q-18.321-5.019-36.331-11.147c-10.543-3.581-21.24-6.714-31.851-10.116-3.286-1.053-6.485-2.383-9.756-3.5-5.264-1.8-10.5-3.732-15.845-5.256-6.459-1.84-12.814-4.087-19.554-4.886a98.332 98.332 0 00-35.47 1.851c-4.106 1.011-8.239 1.9-12.364 2.825-.925.21-1.832.277-2.368-.72 6.017-2.93 12.034-5.792 17.6-9.524a7.587 7.587 0 013.773-1.225c11.678-.352 23.345-1.244 34.994.967 10.375 1.967 20.869 3.312 31.278 5.118 3 .521 5.886 1.734 8.857 2.525 13.012 3.454 25.451 8.546 37.988 13.364 2.686 1.03 5.414 1.952 8.123 2.919 1.266.449 2.555.839 3.8 1.338 10.7 4.267 21.375 8.606 32.1 12.813 4.279 1.679 8.632 3.174 13 4.594 3.29 1.068 6.568 1.971 9.374 4.219 2.072 1.663 4.915 1.506 7.25 1.071 2.837-.537 4.845.448 6.925 1.872zm-236.708-51.936a26.872 26.872 0 01-3.252 3.409c1.558-2.626 2.45-4.128 3.342-5.627l.734-.607c-.259.221-.513.442-.768.663-.018.738.263 1.638-.059 2.159zm28.269-34.028c-.952.183-1.753-1.176-1.285-2.012a5.259 5.259 0 01.929-1.435c4.016-3.578 8.145-7.021 13.252-8.977a10.455 10.455 0 013.357-.648 2.875 2.875 0 012.6 4.413c-.686 1.139-1.682 2.083-2.484 3.158-.454.611-.8 1.3-1.33 2.192.48 1.323 1.079 2.72 1.5 4.17 1.375 4.781.419 8.164-3.694 11.083-4.215 2.993-8.76 5.519-13.079 8.374-4.639 3.061-9.329 6.077-13.713 9.483-2.068 1.6-3.537 4-6.025 5.174a3.422 3.422 0 01-2.4.281c3.6-3.092 7.1-6.317 10.832-9.24 6.032-4.728 12.27-9.183 18.3-13.919a13.534 13.534 0 003.518-4.428 60.491 60.491 0 002.6-7c-2.708-2.747-5.088-3.2-7.924-1.993a24.628 24.628 0 01-4.957 1.321zm20.768-4.451l-.555 1.521-.581-.345zm-22.735 32.158c4.117.944 6.841-2.672 10.584-3.35a1.378 1.378 0 01-.371 2.36c-7.519 4.234-15.047 8.46-22.622 12.589a20.578 20.578 0 01-4.005 1.323c3.271-3.147 7.508-4.852 11.2-7.37a13.3 13.3 0 005.211-5.555zm10.225-26.223c.775 3.672-.738 5.976-3.132 7.834-2.267 1.761-4.642 3.376-6.946 5.084-5.069 3.754-9.37 8.494-14.93 11.607a4.648 4.648 0 01-1.132.259c5.294-7.418 10.521-14.739 16.1-22.563 3.311-.737 6.619-1.467 10.036-2.224zm-35.5 38.126l-.423.243.146-.464zm-5.785 7.568c4.552-2.465 8.839-5.587 14.17-6.294a29.75 29.75 0 01-3.736 2.964c-3.923 2.3-7.936 4.451-11.933 6.624a28.612 28.612 0 01-2.758 1.131c.597-2.596 2.534-3.499 4.254-4.428zm2.675 4.627c1.544-1.068 3.012-2.275 4.642-3.181 9.052-5.035 18.141-10 27.223-14.976a27.082 27.082 0 013.1-1.518c3.394-1.318 6.883-2.491 8.1-6.511 2.768-2.36 5.444-4.848 8.344-7.036a4.453 4.453 0 015.38-.135 4.606 4.606 0 01.63 5.823c-1.147 1.682-2.6 3.158-3.78 4.863-.637.918-2.3 1.259-3.578 1.555-1.064.247-2.36-.266-3.331.116a88.941 88.941 0 00-9.355 4.211c-7.43 3.987-14.694 8.284-22.177 12.166-3.9 2.023-8.1 3.458-12.188 5.106a18.524 18.524 0 01-2.581.644zm-11.03 13.544l-.307-.7.727.03zm30.7-16.017c-.731.266-1.461.528-2.188.771l-.1-.517zm-11.671 13.248l.491 1.154a4.585 4.585 0 01-1.409.292c-.187-.019-.326-.6-.487-.926zm51.962-33.742c2.923.274 5.841.573 9.581.951-4.459 1.5-5.294 1.473-10.315-.116.503-.583.631-.843.735-.838zm57.178 10.633c.109-.082.213-.232.326-.236a.691.691 0 01.255.075c-.194.05-.384.102-.584.158zm139.837 32.427c-1.472.42-2.941.862-4.395 1.338-6.2 2.038-12.416 4.05-18.6 6.16-4.061 1.387-7.392-.146-11.484-2.447 4.571-1.405 8.55-1.731 12.413-2.552 2.63-.558 5.3-.955 7.962-1.322a61.624 61.624 0 0016.658-4.391 21.376 21.376 0 019.835-2.241 44.188 44.188 0 01-12.387 5.452zm43.58-27.968a72.754 72.754 0 01-15.418 14.59 3.324 3.324 0 01-2.585.619 4.723 4.723 0 00-4.376.614c-3.675 2.263-7.872 2.971-11.926 4.114a87.566 87.566 0 00-9.393 2.761 74.863 74.863 0 01-16.744 4.125c-2.282.359-4.586.614-6.83 1.128a89.972 89.972 0 01-20.03 1.817 25.692 25.692 0 01-7.8-1.671c-3.279-1.072-6.415-2.57-9.652-3.784-3.773-1.416-7.587-2.72-11.379-4.084a24.38 24.38 0 01-3.769-1.435c-8.292-4.638-17.576-6.658-26.332-10.06-1.071-.412-2.147-.82-3.207-1.263-1.24-.517-2.439-1.142-3.7-1.592-8.839-3.162-17.463-6.98-26.714-8.906l-.236-.143.262.143c.63-.326 1.259-1.008 1.866-.993a38.034 38.034 0 016.853.615c4.5.963 8.932 2.218 13.4 3.316 4.657 1.146 9.322 2.259 13.987 3.372 1.308.315 2.634.551 3.934.888 6.5 1.686 12.948 3.627 19.509 5.039 10.326 2.218 20.715 4.144 31.318 4.578 7.291.3 14.575.813 21.866 1.072a113.4 113.4 0 0021.2-1.364c13.747-2.094 26.826-6.538 39.644-11.78a68.128 68.128 0 006.823-3.8 7.784 7.784 0 01-.571 2.084zm9.865-19.561c-1.135 4.249-2.3 8.381-6 11.4-4.953 4.051-10.135 7.512-16.287 9.509-6.208 2.012-12.214 4.754-18.512 6.369a190.743 190.743 0 01-20.959 3.769c-9.55 1.334-19.157.5-28.741.161a162.407 162.407 0 01-18.325-1.45c-8.722-1.311-17.456-2.458-26-4.829-7.576-2.106-15.286-3.747-22.933-5.609-5.024-1.225-10.157-2.143-15.039-3.8-6.8-2.308-13.964-2.345-20.869-3.945-3.908-.906-7.973-1.128-11.952-1.754-2.248-.352-4.466-.9-6.691-1.349-.038-1.577 1.011-1.075 1.528-1.045 9.948.562 19.891 1.195 29.865 1.229a103.263 103.263 0 0118.894 1.776c2.072.39 4.2.476 6.287.753 3.012.4 6.129.128 8.985 1.533a7.076 7.076 0 002.248.468q10.279 1.253 20.562 2.473a14.346 14.346 0 011.72.153c9.228 2.338 18.632 2.151 28.04 2.087 5.946-.041 11.9.21 17.845.218a68.79 68.79 0 0017.141-1.784c7.441-1.885 15.043-3.118 22.506-4.92a71.551 71.551 0 0012.39-4.548c6.635-2.971 13.638-5.126 20.509-7.565a18.777 18.777 0 013.218-.569c.285.598.645.996.57 1.273zm-7.3-40.4c.465-.251.955-.457 1.686-.806 2.63 6.542 5.088 12.937 4.9 20.015 1.9 5.591 2.121 8.531 1.18 15.8-8.8 3.248-17.643 6.328-26.32 9.887a149.536 149.536 0 01-18.632 5.972c-5.938 1.57-12 2.709-18.067 3.7a84.286 84.286 0 01-12.019.971c-8.452.154-16.9.082-25.357.086a101.714 101.714 0 01-20.064-1.817c-4.316-.862-8.741-1.233-13.132-1.671-10.322-1.038-20.449-3.447-30.76-4.477-6.677-.667-13.41-.727-20.116-1.09-4.972-.27-9.951-.588-14.908-.839-5.361-.27-10.7-.787-16.051-1.162a129.788 129.788 0 00-14.934-.325c-3.2.142-6.44-.8-9.674-1.2-1.708-.21-3.435-.247-5.144-.457-1.27-.157-2.518-.476-3.713-.708-.022-1.469.873-1.473 1.585-1.514 7.459-.408 14.923-.779 22.383-1.157a7.407 7.407 0 011.154.03c7.819.813 15.627 1.716 23.458 2.424 4.968.446 9.959.637 14.942.88a222.254 222.254 0 0028.73-.776 255.606 255.606 0 0127.059-.3c9.79.262 19.565 1.057 29.348 1.585 1.338.072 2.686-.082 4.031-.086 5.763-.022 11.532-.165 17.291 0a53.868 53.868 0 0013.735-1.214c4.863-1.116 9.831-1.806 14.676-2.986 5.032-1.225 9.959-2.866 14.957-4.226a44.183 44.183 0 009.183-3.3c4.736-2.484 10.2-3.282 14.773-6.223a5.5 5.5 0 012.757-.768c3.537-.057 5.676-1.956 7.036-5.009-1.78-.644-3.379-.015-4.983.678-6.175 2.667-12.413 5.2-18.516 8.014-3.514 1.622-7.227 2.559-10.85 3.814-12.049 4.174-24.563 6.276-37.074 8.4a7.96 7.96 0 01-2.274.289c-7.276-.993-14.575-.1-21.854-.337-5.762-.184-11.525-.364-17.283-.63-6.141-.281-12.27-.768-18.411-.966-3.256-.105-6.523.21-9.786.348-3.432.146-6.838.84-10.315.228a14.929 14.929 0 00-4.6.06c-13.226 1.829-26.455 1.229-39.681.139-9.34-.772-18.659-1.873-28.006-2.507-4.391-.3-8.831.2-13.248.266-3.432.06-6.875 1.011-10.524-.105l-.517-3.162c.615-.213.97-.475 1.274-.423 6.7 1.15 13.405-.046 20.108.074 8.647.154 17.3-.011 25.938.319a133.636 133.636 0 0024.706-1.139c11.431-1.693 22.941-2.342 34.432-3.121 8.033-.543 16.129-.127 24.2-.229 2.877-.034 5.747-.386 8.625-.491a286.237 286.237 0 0033.84-3.338 62.609 62.609 0 006.2-1.349q10.875-2.85 21.724-5.8a39.925 39.925 0 004.376-1.461c6.6-2.638 13.147-5.429 19.8-7.947 5.959-2.243 11.159-5.873 16.723-8.859zm.236-4.938a16.678 16.678 0 01-2.383 2.386c-4.8 3.185-9.629 6.411-15.193 8.1-6.466 1.967-12.394 5.163-18.617 7.681a50.41 50.41 0 01-4.844 1.791c-4.8 1.387-9.689 2.481-14.421 4.054-8.441 2.807-17.2 4.032-25.92 5.339-6.242.937-12.637.865-18.969 1.173-9.018.435-18.037 1.154-27.055 1.127-15.594-.049-31.008 1.8-46.477 3.335-8.947.884-18.021.457-27.04.554-9.79.1-19.58.18-29.366.173-3.263 0-6.531-.214-9.783-.48a30.1 30.1 0 01-4.41-1.135 12.277 12.277 0 012.139-1.727c8.078-3.324 16.669-4.267 25.227-5.208 9.726-1.072 19.5-1.72 29.235-2.758 9.543-1.015 19.048-2.356 28.587-3.413 4.005-.446 8.048-.536 12.076-.791 3.829-.24 7.654-.524 11.487-.719 8.441-.424 16.879-1.031 25.328-1.139 8.887-.113 17.594-1.608 26.35-2.754 5.9-.772 11.761-1.859 17.628-2.87a111.038 111.038 0 0042.948-17.359 48.651 48.651 0 0012.552-11.561 46.616 46.616 0 0110.918 16.2zm-211.193 22.982l-.517.578c-.366-.837.151-.612.514-.575zm.259-.048a10.682 10.682 0 012.96-1.368c6.055-.843 12.132-1.548 18.2-2.278 2.851-.341 5.725-.524 8.554-.982 6.662-1.083 13.365-.843 20.06-.847.244 0 .487.461.911.884-2.289 1.416-4.852.832-7.2 1.218-2.634.431-5.313.554-7.969.843-3.233.349-6.459.78-9.7 1.083-7.8.73-15.609 1.4-23.413 2.113-.922.089-1.799.172-2.406-.663zm194.535-53.046c.738 1.281 1.379 2.188 1.813 3.181 1.233 2.813 2.428 5.646 3.533 8.512a5.585 5.585 0 01.067 2.008c-.929-.69-1.929-1.053-2.952-.191-1.607 1.36-3.155 2.795-4.713 4.215-9.082 8.273-19.61 13.938-31.2 17.932a154.044 154.044 0 01-28.591 6.418c-7.6 1.086-15.193 2.229-22.788 3.345a12.436 12.436 0 01-6.995-.438c3.027-.926 5.17-1.473 7.242-2.229 8.831-3.226 17.733-6.287 26.429-9.854 6.905-2.829 13.567-6.257 20.292-9.512 3.106-1.5 6.167-3.129 9.15-4.863a235.856 235.856 0 0024.087-15.661c1.337-1.013 2.866-1.781 4.623-2.86zm-11.547-18.861c2.75 2.075 3.481 5.272 5.478 7.508 1.948 2.184 3 4.841 4.245 7.6a26.255 26.255 0 01-5.219 4.571c-5.631 3.987-11.154 8.172-17.047 11.735-13.646 8.246-27.718 15.668-42.967 20.64-4.927 1.608-9.79 3.443-14.575 5.437a63.1 63.1 0 01-18.969 4.548c-7.444.641-14.9 1.367-22.36 1.577-10.352.292-20.719.135-31.082.176a21.711 21.711 0 00-4.017.123c-6.624 1.3-13.338 1.446-20.041 1.892-3.8.255-7.557 1.1-11.337 1.675-.9.135-1.81.225-2.713.337l-.288-1.289c3.953-1.3 7.846-2.851 11.877-3.848 7.074-1.746 14.263-3.02 21.348-4.732 11.757-2.84 23.683-4.849 35.5-7.389a15.825 15.825 0 001.7-.318c9.648-3.162 19.423-6 28.9-9.618q15.012-5.732 29.839-11.956c7.419-3.1 14.428-7.171 21.63-10.8 3.762-1.892 7.58-3.676 11.3-5.642 5.073-2.691 10.345-5.066 14.5-9.255a28.118 28.118 0 014.295-2.969zm-20.655-9.082c2.469-1.81 5.215-3.241 7.785-4.811a26.5 26.5 0 0110.693 10.24 24.2 24.2 0 01-2.9 3.312 87.226 87.226 0 01-20.18 12.139c-1.566.678-3.009 1.633-4.526 2.431q-4.063 2.142-8.156 4.245c-4.1 2.1-8.134 4.357-12.338 6.227-7.2 3.192-14.545 6.036-21.749 9.206-8.273 3.634-16.838 6.433-25.317 9.494-8.385 3.027-17.07 4.514-25.556 6.9-2.93.828-6.058.937-9.067 1.51a61.112 61.112 0 00-9.535 2.162c-4.4 1.611-8.94 2.128-13.5 2.81-9.127 1.36-18.1 3.346-26.6 7.115-1.686.749-3.417 1.4-5.129 2.09a43.212 43.212 0 0113.608-8.062c2.33-.885 4.672-1.75 7.04-2.526 2.731-.9 5.489-1.7 8.242-2.506 2.211-.644 4.522-1.019 6.643-1.873 12.829-5.17 26.077-9.1 39.314-12.979 8.1-2.375 16.264-4.5 24.173-7.508a175.526 175.526 0 0027.523-13.106c4.942-2.945 9.917-5.845 15.006-8.516a63.825 63.825 0 0012.51-9.134c3.77-3.334 8.004-5.919 12.013-8.856zm-7.7-21.652c.615-.393 1.266-.716 2.124-1.2 3.724 5.032 7.954 9.442 10.944 15.1-1.982 1.435-3.758 2.873-5.676 4.08-4.41 2.769-8.3 6.174-12.345 9.415-5.83 4.661-11.734 9.236-18.43 12.739-9.179 4.8-17.8 10.659-27.373 14.72-5.83 2.477-11.78 4.665-17.677 6.98a78.161 78.161 0 01-15.47 4.275c-4.507.772-8.857 2.477-13.271 3.788-1.821.543-3.612 1.188-5.437 1.705a137.331 137.331 0 00-19.992 7.156 28.206 28.206 0 01-6.572 2.068 107.17 107.17 0 00-14.867 4.406 63.643 63.643 0 00-12.447 5.961c-4.747 2.893-9.576 5.657-14.417 8.393a25.29 25.29 0 01-3.72 1.412l-.435-.689c1.045-.78 2.076-1.589 3.147-2.331 8.048-5.568 16.219-10.967 24.11-16.744 4-2.933 7.6-6.384 11.929-8.928 4.957-2.915 9.689-6.208 14.646-9.123 3.136-1.843 6.568-3.17 9.753-4.942a80.913 80.913 0 0116.351-7.107c8.883-2.63 17.171-6.7 25.414-10.761 7.741-3.807 15.065-8.456 22.563-12.753 6.159-3.53 12.372-6.95 18.216-11.026a56.455 56.455 0 0110.139-5.414c6.773-2.889 12.634-7.261 18.786-11.174zm-5.088-17.441c2.05 4.642 4.53 8.344 5.272 12.866a5.97 5.97 0 01-1.124 1.27c-8.31 5.185-16.4 10.738-25.283 14.949a18.338 18.338 0 00-2.5 1.427c-12.855 8.812-26.643 16.062-40.123 23.814a134.754 134.754 0 01-24.2 10.73 147.325 147.325 0 00-33.683 16.13c-3.541 2.308-7.137 4.556-10.862 6.545a36.828 36.828 0 00-7.977 5.6 75.663 75.663 0 01-12.93 9.536c-4.042 2.435-7.782 5.372-12.042 7.617 2.3-1.967 4.6-3.926 6.886-5.9q9.144-7.907 18.28-15.826c2.323-2.016 4.631-4.043 6.946-6.062 5.789-5.05 11.405-10.311 17.411-15.08 5.1-4.057 10.745-7.426 15.983-11.319 4.84-3.6 10.408-5.714 15.725-8.355 9.456-4.7 18.932-9.367 28.347-14.147a75.179 75.179 0 007.411-4.455c10.251-6.785 21.472-11.986 31.333-19.438 4.271-3.225 9.063-5.777 13.66-8.565a22.663 22.663 0 013.463-1.333zm-32.263-31.394c2.233 2.642 4.32 5.4 6.557 8.04a38.055 38.055 0 0010.2 8.359c3.825 2.207 7.688 4.361 10.982 7.366 1.165 1.064 2.237 2.162 1.765 4.305-4.23 2.821-8.685 5.793-13.144 8.76-3.2 2.128-6.347 4.335-9.61 6.354-9.959 6.16-19.914 12.327-29.974 18.321-4.118 2.454-8.456 4.56-12.773 6.677-7.583 3.717-15.237 7.3-22.84 10.978-6.437 3.109-12.094 7.459-17.909 11.529a264.436 264.436 0 00-25.811 21.195c-5.122 4.642-10.435 9.071-15.676 13.578-3.923 3.368-7.875 6.7-11.8 10.063a34.167 34.167 0 01-2.563 2.293c-1.836 1.267-3.758 2.406-6.178 3.934 4.155-4.822 7.782-9.187 11.577-13.4q9.054-10.037 18.3-19.9c2.619-2.81 5.695-5.249 8-8.284 4.076-5.362 8.8-10.109 13.353-15.017 5.485-5.912 10.989-11.825 16.774-17.437a139.667 139.667 0 0127.3-21.015c7.632-4.414 14.949-9.363 22.416-14.058 6.493-4.076 13.027-8.085 19.494-12.207 3.234-2.064 6.384-4.267 9.479-6.531a2.007 2.007 0 00.258-1.974 2.1 2.1 0 00-1.948-.465 14.584 14.584 0 00-2.918 1.791c-9.948 6.887-19.891 13.769-30.416 19.79-7.163 4.1-14.289 8.325-21.071 13.012-6.456 4.466-12.99 8.9-18.5 14.638-2.51 2.615-5.541 4.721-8.317 7.081a26.319 26.319 0 00-2.51 2.375c-9.15 10.113-18.985 19.588-27.711 30.108-4.144 5-8.97 9.419-13.368 14.212-3.765 4.094-7.336 8.362-11.034 12.518-2.671 3-5.41 5.949-8.119 8.917l-.858-.544c.6-1.124 1.105-2.3 1.8-3.357 3.593-5.444 7.051-10.992 10.9-16.257 7.479-10.232 15.185-20.3 22.8-30.431a12.616 12.616 0 001.064-1.364c3.256-5.953 7.726-10.959 12.286-15.916 4.027-4.383 7.887-8.925 11.794-13.413 3.158-3.627 6.178-7.373 9.445-10.892 2.87-3.091 5.938-6 9.03-8.872 4.784-4.443 9.55-8.917 14.522-13.147 8.194-6.972 16.411-13.93 24.882-20.558a47.9 47.9 0 0114.282-7.658c1.99 2.244 3.942 4.33 5.782 6.507zm-8.775-9.921a40.97 40.97 0 01-4.575 3.237c-8.587 4.515-15.736 10.952-23.147 17.048-7.864 6.466-15.256 13.454-22.787 20.3a158.338 158.338 0 00-16.324 17.017c-3.507 4.294-7.55 8.153-11.353 12.2a6.729 6.729 0 00-.805.824c-4.556 7.123-11.416 12.338-15.8 19.689-3.125 5.238-7.441 9.76-11.139 14.668-4.039 5.365-8.036 10.768-11.944 16.231-2.454 3.432-4.89 6.9-7.025 10.539-5.365 9.138-11.9 17.426-18.265 25.849-1.5 1.982-2.833 4.087-4.3 6.092a29.873 29.873 0 01-2.293 2.406 8.975 8.975 0 011.289-8.029c3.4-4.874 6.823-9.738 10.026-14.74 7.246-11.307 14.953-22.315 21.281-34.218 5.4-10.154 11.824-19.775 16.969-30.045 4.485-8.955 10.64-16.86 15.009-25.871 2.409-4.968 5.777-9.521 9.09-13.982 7.673-10.338 15.571-20.5 25.08-29.281a111.208 111.208 0 0116.905-12.9c4.234-2.619 8.156-5.74 12.278-8.546 3-2.046 6.1-3.949 9.089-5.875 3.979 3.678 10.236 12.224 12.735 17.391zm-31.693-34.968c7.344 3.533 14.755 6.444 17.737 14.942a147.356 147.356 0 00-20.011 13.623c-2.716 2.128-5.639 3.994-8.523 5.9-8.913 5.905-16.126 13.6-23 21.671-1.12 1.315-2.3 2.585-3.338 3.964-3 3.986-6 7.977-8.895 12.038-5.684 7.977-10.828 16.317-15.77 24.758-3.481 5.957-7.628 11.562-10.1 18.089a9.539 9.539 0 01-1.012 2.068c-4.826 6.972-8.318 14.683-12.356 22.094-3.574 6.56-7.171 13.117-11.03 19.509-2.278 3.769-5.166 7.163-7.624 10.827-2.563 3.826-4.961 7.764-7.392 11.672a47.546 47.546 0 01-6.572 8.422 25.217 25.217 0 01.543-2.555c1.341-4.226.184-6.744-4-8.613-.513-.229-.993-.54-1.761-.963a6.642 6.642 0 01.7-2c5.845-7.426 10.277-15.751 15.166-23.78a27.568 27.568 0 002.113-4.088c2.068-5.16 4.032-10.363 6.073-15.53.633-1.6 1.409-3.151 2.091-4.736 2.514-5.815 4.788-11.746 7.579-17.422 3.724-7.572 7.864-14.938 11.8-22.409 1.342-2.548 2.964-5.028 3.8-7.74a22.858 22.858 0 014.623-7.861 54.024 54.024 0 005.009-7.684c6.328-11.008 13.125-21.69 21.536-31.281a99.023 99.023 0 0116.025-14.863c6.362-4.638 12.742-9.247 19.2-13.742 2.321-1.623 4.91-2.88 7.383-4.306zm-46.953 4.96c.944-.659 1.873-1.345 2.776-2.06a23.18 23.18 0 0112.405-5.32c4.5-.461 8.865-2.4 13.271-3.747 5.1-1.555 9.371.266 13.357 3.226.236.176.214.7.352 1.21-3.885 2.99-7.781 6.062-11.765 9.022-3.383 2.517-6.943 4.8-10.281 7.365-7.01 5.392-13.739 11.027-19.164 18.187-3.938 5.2-8.273 10.109-11.757 15.654-1.937 3.091-3.78 6.238-5.68 9.356-2.885 4.736-5.009 9.951-8.947 14.028a10.9 10.9 0 00-1.881 2.892c-6.01 12.649-13.192 24.683-18.94 37.5-4.95 11.042-8.943 22.469-14.133 33.394a123.166 123.166 0 01-11.184 19.442c-3.488 4.826-6.553 9.978-10.884 14.144a40.28 40.28 0 01-3.915 3.308c-2 1.48-4.155 2.773-6.141 4.279-4.369 3.316-4.975 5.62-3.027 10.922-3 3.4-5.953 6.9-9.119 10.191-.843.88-2.349 1.12-3.484 1.622-2.623 3.47-3.039 8.254-7.138 11.48a6.756 6.756 0 011.042-6.272c7.13-9.828 12.477-20.663 17.935-31.442 2.338-4.62 4.927-9.116 7.516-13.6a211.588 211.588 0 0015.077-32.289c2.132-5.755 4.35-11.472 6.59-17.182.281-.715.506-1.454.821-2.154 2.364-5.238 4.59-10.543 7.152-15.68 4.11-8.246 8.37-16.418 12.7-24.548 5.324-9.993 10.76-19.925 16.193-29.853 1.843-3.365 3.754-6.7 5.755-9.967 4.215-6.883 8.505-13.72 12.772-20.569a42.5 42.5 0 0111.719-12.534zM368.32 271.353c3.181-6.556 6.7-12.952 9.959-19.471 1.971-3.942 3.507-8.115 5.62-11.974 3.51-6.407 6.272-13.144 9.344-19.745 2.331-5 5.515-9.6 8.337-14.372.056-.094.315-.067.858-.165-2.975 7.655-5.35 15.3-9.213 22.416a132.431 132.431 0 00-6.369 14.171c-3.144 7.879-7.389 15.148-11.72 22.4-3.049 5.1-5.8 10.385-8.7 15.582-.633 1.135-1.334 2.229-2 3.346-.293-4.863 2.064-8.444 3.877-12.184zm-14.065 16.6l-.434.18.247-.439zm-.641-68.535c2.143.061 3.207 1.1 3.447 2.638a21.6 21.6 0 01.281 6.26c-1.3 9.258-2.788 18.486-4.268 27.718a18.405 18.405 0 01-1.053 3.053c-1.993-6.957.592-13.42.453-20.112-.138-6.414.703-12.859 1.133-19.555zm-5.841 18.76c-.539-3.346-1.079-6.692-1.63-10.112l2.874-1.986c.4.487.794.738.809 1.008a23.158 23.158 0 01-2.06 11.093zm10.262 5.215c.775-5.5 1.577-11.008 2.312-16.519a20.246 20.246 0 00-1.367-10.517l-5.564-.671c-3.777 1.671-2.941 6.812-7.336 7.756a21.254 21.254 0 01-.554-12.39c.476-1.979 1.495-4.02 4.459-4.474a33.115 33.115 0 0012.008 5.811 7.046 7.046 0 014.369 3.17c-.262 3.012-.517 5.819-.753 8.625a40.588 40.588 0 01-.382 4.59c-1.521 7.538-1.911 15.2-2.754 22.825a136.715 136.715 0 01-4.537 23.147 25.771 25.771 0 01-1.641 4.3c-.929 1.866-2.049 3.638-3.087 5.451l-1.109-.277c.247-1.652.378-3.335.757-4.957a108.827 108.827 0 002.78-18.19c.362-5.916 1.561-11.787 2.393-17.677zm11.712-25.354l-.1 3.93c-1.761-.094-1.229-1.323-1.308-2.068-.037-.349.544-.765 1.397-1.859zm-2.424 17.991l-.082-.791.6.248zm-.034.277c1.083 1.244.513 2.653.311 4.106-1.917-1.311-.764-2.727-.317-4.102zm-.88 23.458a8.575 8.575 0 01-.805 2.012c-.649-.7-1.551-1.277-1.473-1.648.967-4.571.435-9.4 2.312-13.807a14.97 14.97 0 01.487 3.083c-.094 3.458-.303 6.913-.528 10.368zm4.657-14.878l.322.109c-.09.273-.183.547-.277.824l-.375-.142c.1-.263.2-.532.323-.787zm-4.814.243l.671.063-.431.716zm34.05-50.764a5.944 5.944 0 01.165 6.512c-2.3 4.215-4.7 8.378-6.834 12.671-2.994 6.013-5.792 12.128-8.67 18.2a4.73 4.73 0 01-1.165 1.768 76.3 76.3 0 013.192-16.257c1.9-6.635 3.923-13.237 5.9-19.854a28.786 28.786 0 014.237-9.468 70.884 70.884 0 003.168 6.435zm5.234-13.809c2.649-1.39 3.267-1.492 7.134-.982 2.739 4.2 2.376 8.149-.839 12.011-2.027 2.435-4.065 4.837-6.74 7.992-.419-1.945-.562-2.807-.8-3.646-.562-2-1.008-3.979-2.859-5.418-1.742-1.356-1.6-3.357-.693-5.219a10.563 10.563 0 014.797-4.738zm61.9-126.934c3.717-3.338 7.546-6.557 11.315-9.839 1.15-1 2.267-2.05 3.466-3.136 6.159.394 11.821 2.653 17.868 5.231-.746.963-1.143 1.873-1.84 2.312-9.415 5.908-15.6 14.68-21.232 23.915-4.3 7.055-8.509 14.166-12.529 21.375s-7.733 14.593-11.63 21.869c-4.627 8.633-9.408 17.186-13.926 25.875-2.3 4.417-4.166 9.059-6.212 13.6a18.916 18.916 0 01-.817 2.155c-3.315 5.463-5.294 11.513-7.666 17.388-3.593 8.9-7.362 17.733-10.581 26.766-1.517 4.263-4.256 7.707-6.234 11.637-4.309 8.561-8.692 17.1-13.45 25.414-3.885 6.792-6.89 14.14-12.218 19.966 4.1-6.654 6.279-14.091 9.61-20.982 1.588-3.282 3.147-6.583 4.586-9.933 2.8-6.526 5.575-13.064 8.209-19.658a27.141 27.141 0 015.009-8.333 62.8 62.8 0 005.867-7.823c3.687-5.643 2.885-10.255-2.5-15.3-4.949-.378-8.707 2.188-12.551 5.852-.131-1.181-.465-1.944-.232-2.439 5.433-11.457 9.873-23.312 14.3-35.178 1.746-4.668 3.825-9.22 5.927-13.746 4.361-9.4 8.681-18.831 13.3-28.1a197.71 197.71 0 0120.7-33.15c4.251-5.472 8.279-11.088 13.461-15.738zm-17.235-7.37c.757-.865 1.926-1.446 2.462-2.405 1.585-2.84 4.282-3.679 7.1-4.458a40.093 40.093 0 0116.564-.663c.476.067.881.626 1.581 1.154-3.2 3.188-6.036 6.6-9.457 9.262a65.02 65.02 0 00-9.925 9.588c-4.069 4.851-7.831 9.977-11.536 15.121-5.624 7.8-10.217 16.264-14.885 24.646-3.357 6.028-6.156 12.379-9.033 18.662s-5.557 12.648-8.262 19c-1.652 3.882-3.331 7.759-4.747 11.727-4.14 11.589-9.378 22.712-14.117 34.042a230.224 230.224 0 00-10.184 29.974q-4.788 18.107-9.614 36.2c-.524 1.964-.884 4.065-3.218 5.729 1.012-5.8 1.686-11.117 2.892-16.306 3.308-14.222 6.823-28.4 10.292-42.588.727-2.982 1.611-5.927 2.424-8.887 2.049-7.463 1.99-15.223 3.211-22.81a161.162 161.162 0 018.363-32.817c3.889-10.064 8.88-19.576 13.308-29.363a70.546 70.546 0 014.71-7.9q11.133-17.844 22.3-35.665c2.656-4.267 6.5-7.507 9.767-11.243zm-60.093 79.932c.607-1.4 1.33-2.754 1.967-4.141a43.247 43.247 0 002.791-6.32c1.7-6.167 4.751-11.757 7.295-17.55 2.072-4.713 4.672-9.2 7.021-13.792 2.619-5.129 5.215-10.269 7.831-15.4A54.874 54.874 0 01432.292 50.5a27.341 27.341 0 0113.428-5.785c.719 1.562-.652 2.116-1.169 3a12.194 12.194 0 01-1.761 2.278c-4.331 4.455-7.351 9.831-10.6 15.05-5.481 8.8-10.937 17.628-16.444 26.418a133.862 133.862 0 00-11.266 22c-1.9 4.811-4.177 9.475-6.294 14.2a32.355 32.355 0 00-1.9 4.2c-2.69 9.4-5.875 18.692-7.2 28.43-.776 5.71-1.087 11.483-1.922 17.178a98.8 98.8 0 01-2.81 13.5c-2.218 7.554-4.185 15.151-5.755 22.866-1.383 6.781-2.881 13.537-4.376 20.292a29.638 29.638 0 01-1.094 3.271c-.412 1.181-.843 2.357-1.266 3.537a82.042 82.042 0 011.1-20.019 123.969 123.969 0 016.055-21.6 31.727 31.727 0 001.562-8.483c.363-4.395.311-8.823.577-13.23.3-4.976.689-9.947 1.143-14.912.311-3.439.791-6.868 1.192-10.3a16.235 16.235 0 01.157-1.72c1.887-8.241 3.053-16.659 6.455-24.486zM344.874 19.697a89.507 89.507 0 0111.619 12.757 74.847 74.847 0 014.65 6.591 30.8 30.8 0 014.376 11.12c2.128 11.7 4.833 23.286 7.314 34.919.12.562.273 1.121.356 1.69 1.049 7.014 2.068 14.031 3.14 21.041.2 1.323.637 2.6.862 3.923.581 3.4 1.15 6.8 1.634 10.221.348 2.473.629 4.957.794 7.445a41.639 41.639 0 01.18 8.045c-1.068 8.04-.9 16.1-.847 24.162.068 9.97-.727 19.906-1.446 29.831-.229 3.192-1.427 6.339-2.39 9.437-1.412 4.556-3.016 9.056-4.631 13.848-2.582-2.919-5.26-5.549-9.4-5.83-1.27-3.522-.974-6.991-.727-10.371.318-4.4 1.049-8.763 1.607-13.144.858-6.661 2.1-13.308 1.727-20.052q-.741-13.511-1.9-27.006c-.791-9.164-2.3-18.25-2.915-27.452-.341-5.136-1.716-10.206-2.634-15.305-.274-1.51-.682-3-.85-4.522-.884-8.029-3-15.823-4.444-23.735-2.743-15-8.127-29.179-12.315-43.731-.727-2.532-1.274-5.118-1.941-7.812a14.239 14.239 0 018.177 3.93zM316.916 6.273c4.222 1.285 8.449 2.57 12.615 4.027 1.888.659 2.8 2.053 3.316 4.226 1.251 5.219 3.08 10.3 4.668 15.433 2.671 8.621 5.519 17.193 7.939 25.882 1.645 5.9 2.7 11.959 3.99 17.954.967 4.5 1.99 9 2.807 13.525 1.326 7.359 2.817 14.7 3.679 22.121 1.7 14.676 3.26 29.374 4.414 44.1a124.033 124.033 0 01-1.54 33.281c-1.012 5.242-.974 10.686-1.427 16.036-.109 1.266-.277 2.525-.479 4.338a24.005 24.005 0 01-3.751-2.337c-1.933-1.832-3.889-2.319-6.231-.862a8.434 8.434 0 01-1.922.551 30.07 30.07 0 01-.633-3.346c-1.165-15.14-2.364-30.273-3.406-45.42a277.2 277.2 0 00-4.492-35.429c-1.282-6.388-1.959-12.915-2.6-19.408a290.382 290.382 0 00-7.2-39.633c-2.342-9.7-4.207-19.509-7.156-29.081-1.971-6.4-3.02-13.091-4.485-19.651a18.612 18.612 0 01-.555-6.373 10.007 10.007 0 012.449.066zm-6.785-1.237c.333 1.139.749 2.406 1.072 3.695 2.825 11.367 5.717 22.72 8.426 34.117 2.128 8.962 4.065 17.969 6.017 26.976 1.506 6.943 3.177 13.87 4.282 20.881 1.281 8.149 1.993 16.384 3.031 24.571a48.434 48.434 0 001.461 7.921 53.905 53.905 0 011.626 10.191c.315 3.05.8 6.081 1.1 9.134 1.139 11.649 2.308 23.293 2.439 35.02.037 3.26.431 6.52.746 9.771a220.474 220.474 0 011.356 29.341 67.508 67.508 0 00.993 10.869c.686 5.444 2.312 10.8 1.525 16.534-.39-.337-.783-.509-.866-.776a57.211 57.211 0 01-1.611-5.53c-1.3-6.2-2.3-12.465-3.8-18.614-2.327-9.554-2.657-19.4-4.582-29-.528-2.634-1.139-5.256-1.581-7.906q-2.085-12.488-4.058-25c-.663-4.171-1.109-8.378-1.9-12.521-1.817-9.43-3.683-18.857-5.732-28.239-1.308-5.987-3.016-11.885-4.477-17.838q-2.816-11.465-5.523-22.952c-2.394-10.089-4.811-20.176-7.122-30.288-2.226-9.723-4.32-19.475-6.489-29.209-.993-4.459-2.053-8.9-2.135-13.5 4.753-.795 9.373-.117 15.802 2.355zm24.945 217.113c-1.435-1.075-1.345-2.439-.948-3.866a4.433 4.433 0 01.948 3.869zm-10.663-42.367c-1.206-5.422-2.405-10.843-3.7-16.245-4.859-20.318-9.419-40.708-15.579-60.7-1.581-5.125-3.395-10.206-4.758-15.361-1.81-6.856-4.147-13.574-5.759-20.434-1.933-8.231-4.5-16.234-6.8-24.343-2.18-7.711-3.308-15.717-4.908-23.593-.266-1.315-.51-2.634-.858-3.927a37.084 37.084 0 01-1.105-12.754c2.368-.363 4.713-.723 7.07-1.083 3.095 4.1 4 8.943 5.066 13.825 2.75 12.562 5.826 25.054 8.741 37.579.828 3.545 1.544 7.119 2.312 10.679.12.566.214 1.135.356 1.693 4.02 15.624 7.04 31.491 11.476 47.006a129.111 129.111 0 012.964 14.653c.525 3.207 1.4 6.358 2.136 9.532a253.126 253.126 0 014.893 28.373c.7 6.092 2.015 12.109 3 18.172 1.079 6.632 2.1 13.275 3.151 19.914.543 3.413 1.154 6.819 1.615 10.247.21 1.581.191 3.192.251 4.792-2.518-3.87-3-8.389-3.975-12.75-1.876-8.416-3.708-16.85-5.589-25.272zm0 10.022c-1.892-.892-2.094-1.656-1.615-2.6zM250.094 2.549c2.214.109 4.428.217 6.516.322 1.686 5.328 3.619 10.543 4.96 15.909 1.626 6.5 2.627 13.155 4.136 19.689a94.578 94.578 0 003.125 9.823q2.456 7.064 5.088 14.069 2.715 7.284 5.564 14.511c4.975 12.683 9.711 25.466 15.08 37.98 2.8 6.534 5.2 13.158 7.358 19.91 1.285 4.02 2.953 7.921 4.282 11.933 1.146 3.443 2.087 6.954 3.046 10.453a6.178 6.178 0 01-.244 1.982c-.57-.49-1.109-.749-1.33-1.173-4.593-8.879-9.94-17.313-15.3-25.732-6.388-10.037-13.132-19.857-19.31-30.019a108.014 108.014 0 01-10.794-22.877c-.648-2-1.51-3.946-2.289-5.909-5.44-13.751-10.659-27.55-14.339-41.933-1.761-6.9-3.2-13.8-4.335-20.8-.307-1.9-.674-3.8.191-5.762 2.69-1.272 6.037-.452 8.592-2.373zm-28.958 4.934c4.889-.929 9.891-1.263 14.852-1.813.333-.037.7.255 1.12.419 1.251 6.351 2.244 12.8 3.836 19.108a260.87 260.87 0 007.306 25.433c4.728 12.99 10.052 25.766 15.38 38.523a72.519 72.519 0 007.5 14.245c3 4.215 5.41 8.835 8.183 13.211 1.431 2.263 3.087 4.383 4.631 6.579a15.21 15.21 0 011.57 2.4c3.953 8.8 9.764 16.5 14.552 24.8 2.2 3.814 4.594 7.512 6.815 11.315a53.262 53.262 0 012.878 5.646c3.121 7.213 6.182 14.451 9.235 21.693.438 1.042.7 2.158 1.442 4.53a28.29 28.29 0 01-2.428-2.548c-3.645-5.417-7.111-10.962-10.91-16.268-3.9-5.452-8.123-10.674-12.192-16.01-1.51-1.982-3.027-3.964-4.458-6a114.427 114.427 0 00-12.578-15 141.071 141.071 0 01-17.059-21.011c-3.852-5.744-7.872-11.345-12.24-16.722a124.3 124.3 0 01-14.193-21.655c-2.813-5.471-5.571-10.985-8.741-16.246-4.721-7.831-7.5-16.422-10.423-24.964a35.482 35.482 0 01-1.536-7.325c-.69-5.882-2.825-11.593-2.207-17.61 2.43-3.307 6.151-4.063 9.665-4.73zm-13.649 8.168c.907 3.732 1.881 6.631 2.293 9.61 1.844 13.331 6.887 25.507 13.11 37.283 3.5 6.605 6.965 13.226 10.558 19.779 1.1 2 2.641 3.754 3.848 5.706a156.572 156.572 0 0011.128 15.373c1.907 2.386 3.511 5.017 5.279 7.516.663.933 1.428 1.795 2.11 2.713 2.18 2.919 4.443 5.781 6.489 8.794a133.459 133.459 0 0014.47 17.115c1.308 1.367 2.387 2.956 3.559 4.451 2.6 3.323 5.178 6.666 7.793 9.974 4.623 5.852 9.408 11.589 13.862 17.568 3.312 4.447 6.287 9.15 9.262 13.841 3.874 6.107 7.493 12.382 11.435 18.448 1.611 2.477 2.125 5.253 2.9 8.078-1.251-1.618-2.649-3.143-3.732-4.867-5.077-8.082-12.057-14.361-19.172-20.528-2.75-2.387-5.436-4.848-8.145-7.276-.573-.513-1.113-1.064-1.7-1.562-7.456-6.354-14.942-12.675-22.368-19.063-5.683-4.886-11.585-9.565-16.864-14.863a225.912 225.912 0 01-19.367-21.319c-7.94-10.33-15.965-20.64-22.169-32.244-6.875-12.859-13.72-25.7-19.606-39.067a183.8 183.8 0 01-8.325-21.45c-.6-2.027-1.36-3.982-.715-6.3 8.571-.116 16.701-1.802 24.067-7.711zm-29.029 8.3c2.926 7.61 5.47 15.028 8.61 22.192 4.009 9.138 8.07 18.306 12.877 27.036 7.4 13.439 14.811 26.916 24.08 39.228 2.653 3.525 5.024 7.268 7.789 10.7a141.418 141.418 0 009.535 10.768c5.942 5.995 12.057 11.824 18.183 17.635 6.673 6.34 13.432 12.6 20.183 18.854a37.929 37.929 0 003.207 2.424 65.986 65.986 0 0111.2 9.895 16.106 16.106 0 003.874 3.4c6.19 3.724 10.817 9.116 15.751 14.219a56.477 56.477 0 0111.045 17.321 26.4 26.4 0 01.835 2.641l-.9.393c-1.457-1.765-2.93-3.522-4.372-5.3a77.78 77.78 0 00-13.75-13.859c-11.562-8.6-23-17.362-34.5-26.043a20.778 20.778 0 00-2.421-1.566c-11.184-6.2-20.6-14.7-30.059-23.143-4.436-3.964-9.041-7.752-13.357-11.847-7.1-6.74-14.069-13.634-21.034-20.524-4.65-4.594-9.284-9.21-13.769-13.961q-6.918-7.334-13.5-14.983a41.33 41.33 0 01-3.679-5.818c-1.682-2.8-3.189-5.71-5.005-8.415-7.239-10.753-11.75-22.382-11.784-35.515 0-.577-.037-1.154-.071-2.117 5.783-6.15 12.077-11.856 21.032-13.613zm-24.683 17.407a17 17 0 01.809 3.462c.026 5.114 1.63 9.891 3.507 14.481 2.9 7.1 5.717 14.3 10.682 20.352a15.658 15.658 0 011.5 2.454 56.342 56.342 0 007.928 11.266c4.556 4.919 8.925 10.011 13.447 14.96 1.678 1.84 3.541 3.511 5.343 5.234 7.913 7.572 16.1 14.889 23.675 22.787 5.864 6.1 12.772 11.019 18.362 17.452 3.47 3.994 8.254 6.849 12.461 10.2 2.559 2.034 5.118 4.072 7.737 6.028 2.915 2.18 5.8 4.432 8.868 6.376 6.179 3.908 11.63 8.79 17.7 12.84 4.144 2.761 7.954 6.028 12.105 8.779a83.122 83.122 0 0120.078 18.887c3.267 4.264 6.868 8.277 9.9 12.709a34.067 34.067 0 012.851 5.572c.236.543-.06 1.323-.176 2.791-3.136-4.118-5.68-7.684-8.464-11.056-4.766-5.778-9.247-11.828-14.916-16.789-2.6-2.275-5.44-4.271-8.123-6.456-7.321-5.957-15.492-10.678-23.319-15.893a123.909 123.909 0 00-24.541-12.668 178.623 178.623 0 01-36.526-19.565c-12.161-8.269-22.491-18.617-32.274-29.528-1.027-1.143-2.019-2.334-3.151-3.364a87.367 87.367 0 01-14.672-16.977c-5.324-8.22-11.416-15.934-15.961-24.66-2.128-4.081-4.691-7.947-6.613-12.113-2.686-5.823-3.2-10.626-2.593-17.362 4.96-3.517 9.456-6.705 14.376-10.197zm-18.868 12.218c.956 3.952 1.619 7.339 2.608 10.629a46.386 46.386 0 005.4 12.649c4.56 6.875 8.722 14.013 13.14 20.981 4.841 7.643 10.614 14.6 16.249 21.656a5.166 5.166 0 00.749.877c5.335 4.173 9.033 9.966 14.08 14.383 4.069 3.567 7.516 7.658 11.15 11.607a18.274 18.274 0 002.971 2.709c7.126 4.878 14.177 9.876 21.5 14.436 2.746 1.712 5.639 3.185 8.235 5.163a11.6 11.6 0 003.065 1.566 58.166 58.166 0 0113.492 6.437 19.119 19.119 0 005.845 2.368 41.915 41.915 0 0114.162 7.332c1.068.8 2.3 1.371 3.436 2.09 7.276 4.638 14.814 8.925 21.738 14.043a156.9 156.9 0 0118.288 15.841c4.964 5.024 9.1 10.881 13.466 16.482 1.154 1.484 1.78 3.376 3.211 6.193-4.088-4.005-7.268-7.227-10.562-10.329-5.039-4.74-9.85-9.8-15.324-13.979-5.916-4.522-11.75-9.243-18.651-12.431-5.219-2.409-10.015-5.714-15.174-8.269-5.848-2.9-11.9-5.38-17.841-8.093-3.125-1.424-6.238-2.889-9.292-4.463-5.631-2.9-11.225-5.882-16.819-8.857-4.241-2.256-8.411-4.646-12.7-6.8-3.589-1.806-7.306-3.368-10.974-5.013a12.383 12.383 0 01-2.158-.79c-6.493-4.586-14.091-6.958-21.112-10.484a61.243 61.243 0 01-10.918-7.467c-6.126-4.946-12.173-9.989-17.111-16.2-2.034-2.555-4.2-5.009-6.324-7.489a76.957 76.957 0 01-6.987-9.854c-2.821-4.564-6.141-8.82-9.262-13.2a63.6 63.6 0 01-9.962-22.472c-.371-1.548-.5-3.061.551-4.4 4.987-6.345 9.951-12.71 17.834-16.85zm-22.36 21.629c1.071 2.678 1.892 4.968 2.9 7.171.952 2.094 2.331 4.012 3.117 6.155 2.226 6.047 5.961 11.158 9.772 16.216 2.308 3.061 4.766 5.98 6.493 9.461a24.15 24.15 0 003.447 4.582c4.455 5.272 8.752 10.7 13.5 15.7 5.935 6.26 12.21 12.248 19.614 16.781 3.387 2.072 6.935 3.934 10.517 5.729 8.063 4.046 16.216 7.819 24.545 11.281 4.039 1.678 7.7 4.256 11.528 6.448 1.922 1.1 3.822 2.244 5.957 3.5-.776.363-1.158.715-1.439.645-10.045-2.5-20.3-4.152-30.12-7.565-1.27-.442-2.57-.817-3.8-1.364-4.724-2.106-9.381-4.372-14.147-6.384-8.681-3.664-17.014-8.021-25.346-12.394a103.537 103.537 0 01-20.243-14.17c-2-1.765-3.638-3.945-5.538-5.837-7.089-7.059-13.117-15-19.183-22.907a49.078 49.078 0 01-9.348-18.973c-.375-1.645-.476-3.35-.753-5.38 6.616-2.127 13.052-3.987 18.526-8.693zm-45.174 23.45c6.973-9.562 13.833-13.762 22.488-13.615.285.948.63 1.993.91 3.054 2.544 9.674 7.486 18.036 13.964 25.56 5.89 6.834 11.66 13.776 17.726 20.449a131.624 131.624 0 009.741 8.966c6.351 5.7 13.867 9.618 21.2 13.81a5.38 5.38 0 001 .577c6.478 1.922 12.143 5.661 18.348 8.183 4.8 1.952 9.685 3.69 14.129 6.47 3.642 2.274 7.973 2.7 12.019 3.825 5.688 1.589 11.574 2.488 17.231 4.167 4.736 1.405 9.779 1.821 14.2 4.294 6.583 3.687 13.8 5.68 20.992 7.707a5.649 5.649 0 011.079.382q13.538 6.98 27.066 13.983a6.4 6.4 0 011.439.951c4.1 3.852 9.217 6.242 13.668 9.573 3.529 2.638 6.886 5.511 10.3 8.3a16.5 16.5 0 002.132 1.93c5.245 2.878 8.232 7.91 11.884 12.3 4.785 5.747 9.292 11.731 15.107 16.557a11.779 11.779 0 012.4 3.788c.146.289-.378.922-.6 1.4l.375.375-.352-.292a50.966 50.966 0 00-9.6-10.693c-3.736-3.323-7.493-6.62-11.236-9.936-8.1-7.179-17.254-12.844-26.384-18.553-7.036-4.406-14.867-7.179-22.207-10.952-2.049-1.056-4.234-1.9-6.163-3.136-7.707-4.953-16.415-7.422-24.961-10.307-1.978-.667-3.874-1.585-5.789-2.432-3.331-1.476-6.568-3.181-9.974-4.447a407.961 407.961 0 00-40.5-13.147c-8.363-2.151-16.527-5.088-24.773-7.684q-4.125-1.3-8.228-2.675a72.223 72.223 0 01-14.1-6.5c-6.1-3.627-12.326-7.115-18.752-10.124-6.186-2.892-11.532-6.887-16.774-11.094-5.721-4.6-10.408-10.184-14.908-15.935-2.252-2.877-4.346-5.893-6.77-8.609-3.436-3.855-4.908-8.659-6.875-13.226a11.939 11.939 0 01-.453-3.241zm38.5 70.4a83.127 83.127 0 00-9.648-3.751 135.042 135.042 0 01-19.3-7.557c-11.8-5.631-19.172-15.073-23.053-27.4a15.781 15.781 0 011.9-13.3c2.548-4.248 5.362-8.34 8.31-12.885a11.852 11.852 0 011.735 2.248c3.147 7.359 8.4 13.327 13.222 19.505a106.963 106.963 0 0027.388 24.477c2.173 1.379 4.586 1.862 6.793 2.922s3.986 3.2 6.257 4.013c5.68 2.05 10.558 5.492 15.639 8.542a56.083 56.083 0 009.355 4.358c4.118 1.54 8.46 2.472 12.679 3.758 3.3 1.008 6.572 2.12 9.839 3.245a160.049 160.049 0 0019.382 5.268 37.494 37.494 0 018.734 2.7 41.481 41.481 0 009.8 3.286 38.9 38.9 0 018.677 2.945c3.312 1.51 6.8 2.63 10.157 4.046 2.106.888 4.106 2.031 6.175 3.013a15.728 15.728 0 003.162 1.285c8.91 2 16.815 6.463 25.021 10.169 6.122 2.761 12.038 5.991 18.2 8.647 7.126 3.068 13.439 7.43 19.869 11.637a51.428 51.428 0 004.3 2.9c5.725 2.967 10.135 7.576 14.912 11.731 1.884 1.645 3.72 3.346 5.642 4.946a75.39 75.39 0 0112.173 13.057 46.962 46.962 0 014.38 8.074c.963 2.038 1.607 4.226 2.394 6.351l-.506.54c-3.136-3.353-6.283-6.7-9.4-10.067a141.954 141.954 0 00-20.389-17.771c-5.406-3.971-10.682-8.1-16.272-11.862-8.494-5.71-17.531-10.345-26.512-15.11-6.781-3.6-13.672-7-20.554-10.4-2.4-1.191-4.912-2.173-7.385-3.222-8.816-3.743-17.763-7.212-26.425-11.289-8.044-3.784-16.463-6.253-24.976-8.569-1.847-.5-3.6-1.345-5.414-1.978a65.685 65.685 0 00-7.643-2.514c-8.644-1.855-17.242-3.818-25.451-7.22a13.859 13.859 0 00-3.361-.75c-5.129-.727-10.266-1.416-15.4-2.1a21.352 21.352 0 00-3.439-.311c-7.572.256-14.294-2.659-20.971-5.604zm205.172 93.82l-.236.165-.113-.364zm-6.156-3.488a4.224 4.224 0 012.391 2.405c-5.159-1.9-10.333-3.758-15.47-5.717a4.921 4.921 0 01-1.488-1.349c1.993.476 4.017.843 5.957 1.476 2.904.952 5.767 2.049 8.607 3.189zm-.637-4.714l3.095 1.1c-1.825.7-2.402-.343-3.098-1.1zm-217.39-73.289a113.682 113.682 0 0129.737-2.851 7.331 7.331 0 001.154.019c13.881-1.708 27.1 1.675 40.307 5.186 5.009 1.33 10.1 2.353 15.1 3.724s9.933 2.96 14.878 4.514c4.567 1.432 9.112 2.93 13.661 4.422a33.586 33.586 0 014.324 1.573c8.958 4.388 18.276 7.9 27.489 11.679 3.9 1.6 7.666 3.548 11.5 5.32 1.731.8 3.514 1.495 5.219 2.345 2.9 1.453 5.777 2.967 8.636 4.507 3.878 2.087 7.628 4.443 11.611 6.294 10.341 4.8 19.464 11.566 29.01 17.64a23.654 23.654 0 012.552 2.169c-5.1.248-9.176-1.914-13.4-3.585-5.526-2.192-10.97-4.552-16.759-6.058-7.609-1.974-15.08-4.485-22.727-6.283s-15.417-3.012-23.14-4.459c-3-.562-6.013-1.1-9.033-1.566a84.318 84.318 0 00-9.1-1.206c-8.617-.394-17.25-.446-25.86-.907-4.762-.251-9.505-1-14.241-1.626q-8.846-1.169-17.669-2.514a148.421 148.421 0 01-33.682-9.625A226.6 226.6 0 0185.8 195.413c-2.151-1.274-4.343-2.476-6.448-3.817-2.087-1.334-4.211-2.694-4.859-5.557 3.843-2.508 8.121-3.672 12.366-4.651zm-17.261 6.77c5.062 5.077 11.458 8.187 17.621 11.615a276.709 276.709 0 0025.522 11.989c7.763 3.335 15.792 5.755 23.773 8.355 7.714 2.518 15.818 3.128 23.806 4.249 2.274.315 4.552.577 6.823.914 8.362 1.24 16.736 2.323 25.223 1.405a5.88 5.88 0 011.15 0c6.1.517 12.2 1.277 18.31 1.506 8.119.307 15.9 2.593 23.881 3.672 5.83.791 11.5 2.705 17.25 4.11 1.678.412 3.357.82 5.047 1.18a20.424 20.424 0 012.829.465c9.157 3.413 18.812 5.4 27.587 9.921a90.779 90.779 0 0010.671 4.308 12.054 12.054 0 014.829 2.634 8.364 8.364 0 01-2.6.053c-5.695-1.652-11.375-3.353-17.021-5.159a135.9 135.9 0 00-17.347-3.889c-4.14-.749-8.344-1.165-12.529-1.611-14.875-1.577-29.734-3.342-44.638-4.564-8.209-.671-16.5-.584-24.747-.475-6.905.1-13.78.435-20.7-.057-5.152-.37-10.356.109-15.538.052-10.566-.116-21.143-.277-31.528-2.57-3.563-.787-7.085-1.75-10.622-2.637-12.105-3.035-24.174-6.231-36.335-9.037a59.427 59.427 0 01-18.385-8.026c-3.054-1.922-6.021-3.982-9.247-6.126 8.238-8.473 15.683-17.54 26.912-22.273zM19.37 230.673c1.825-1.694 3.413-3.638 5.2-5.381 2.053-2 4.147-3.968 6.332-5.822 2.765-2.353 5.639-4.583 8.239-6.68 4.5 2.713 8.767 5.178 12.926 7.812a55.571 55.571 0 0018.666 7.2c7.287 1.533 14.417 3.81 21.615 5.766a8.082 8.082 0 001.1.333c8.056.941 15.519 4.241 23.4 5.863a68.859 68.859 0 0013.688 1.709c7.475.019 14.942.573 22.417.771 5.182.139 10.367.094 15.552.064s10.4.251 15.53-.3c8.277-.9 16.478.513 24.713.236a66.091 66.091 0 0114.893 1.083c4.106.79 8.37.779 12.563 1.12a9.057 9.057 0 011.15.06c8.063 1.787 16.306 2.158 24.477 3.1 3.8.438 7.52 1.585 11.311 2.15 5.875.881 11.278 3.278 16.92 4.909-.633.847-1.555.742-2.447.588-5.489-.933-10.951-2.02-16.459-2.795a116.058 116.058 0 00-12.012-1.027c-7.081-.255-14.151-1.57-21.255-.322-6.328-1.221-12.649.165-18.962.049-7.34-.139-14.556.876-21.817 1.532q-9.149.82-18.328 1.364c-10.925.641-21.843 1.353-32.679 2.986a10.65 10.65 0 01-1.716.165c-8.25-.1-16.5-.128-24.751-.345-8.419-.221-16.834-.6-25.249-.971-5.369-.236-10.734-.588-16.1-.9a333.414 333.414 0 01-35.4-4.4c-3.7-.618-7.212-2.492-10.749-3.946-3.012-1.24-5.931-2.7-8.9-4.054a19.035 19.035 0 01-7.066-4.845c-.227-2.959 1.111-5.136 3.198-7.072zm-4.391 36.23a7.269 7.269 0 01-2.169-3.271c-1.525-7.235-1.536-14.391 1.847-21.36 4.02 1.844 8.007 3.316 11.637 5.414 8.033 4.639 16.9 6.141 25.837 7.542 11.768 1.844 23.675 2.368 35.5 3.713a36.831 36.831 0 006.328.266c9.988-.577 19.917.671 29.872.974 5.946.184 11.9-.577 17.846.367 1.454.229 3.031-.315 4.552-.521a307.6 307.6 0 0130.955-2.278c5.362-.18 10.708-.828 16.058-1.326 7.272-.675 14.545-1.338 21.8-2.151a78 78 0 0113.773-.333 79.677 79.677 0 008.621.023 183.944 183.944 0 0119.449.577c9.206.577 18.333 1.649 27.452 2.993a39.337 39.337 0 019.895 2.69c2.274.971 4.717 1.548 7.081 2.3l.191.484-.285-.472a7.289 7.289 0 01-1.158 1.169 1.559 1.559 0 01-1.117.011c-8.344-2.428-17.006-2.817-25.541-4.024a21.7 21.7 0 00-2.278-.352c-7.284-.259-14.567-.513-21.854-.7-2.877-.071-5.759.057-8.64.06-4.8.008-9.6-.082-14.309 1.165a24.019 24.019 0 01-4.005.48 174.178 174.178 0 00-25.425 4.724c-7.808 1.9-15.361 4.837-23.068 7.171-5.867 1.776-11.708 3.6-17.89 4.193-4.766.457-9.461 1.659-14.219 2.293-4.178.558-8.411.678-12.6 1.18-7.838.944-15.71.21-23.556.641q-13.224.731-26.455 1.4a105.273 105.273 0 01-25.245-1.772c-10.007-1.907-19.94-4.129-29.5-7.8a26.626 26.626 0 01-9.38-5.47zm-.911 5.118c3.443 1.3 6.86 2.447 10.165 3.852 9.827 4.185 20.187 6.193 30.674 7.7a96.939 96.939 0 0012.012 1.424c5.725.093 11.48.539 17.2-.393a36.789 36.789 0 015.155-.195c.379-.008.787.221 1.135.142 6.268-1.409 12.63-.188 18.94-.7 6.7-.543 13.428-.562 20.127-1.031 8.033-.566 16.13-.742 23.934-3.1 7.014-.1 13.515-2.675 20.217-4.252 3.911-.922 7.692-2.406 11.525-3.665a189.911 189.911 0 0132.93-8c3.042-.424 6.073-.907 9.108-1.36 6.864-1.027 13.777-.776 20.674-.795a237.533 237.533 0 0133.286 2.222 193.232 193.232 0 0123.237 4.174c8.861 2.349 17.92 4.387 25.9 9.284.794.487 1.577.989 2.364 1.483-9.157-1.521-18.052-3.016-26.4-6.632a53.94 53.94 0 00-19-4.418c-10.742-.491-21.487-1.161-32.236-1.3a122.952 122.952 0 00-34.72 4.612c-11.281 3.139-22.626 6.051-33.934 9.1-2.038.547-4.031 1.27-6.04 1.926-8.943 2.926-17.875 5.882-26.826 8.782q-14.247 4.62-28.524 9.134a37.585 37.585 0 01-6.729 1.574c-7.253.873-14.514 1.881-21.8 2.259-9.805.506-19.539 1.543-29.228 3.016a106.166 106.166 0 01-35.556-.584c-8.224-1.525-15.29-4.908-20.809-11.288-.371-.431-.809-.806-1.3-1.289a132.215 132.215 0 014.519-21.683zm-10.1 39.464c-1.266-2.244-.862-4.949.15-7.291a53.73 53.73 0 013.29-5.654c1.128.7 2.109 1.225 2.994 1.877 7.576 5.632 15.9 9.165 25.47 9.644 3.612.184 7.133 1.161 10.835 1.15a187.138 187.138 0 0033.8-3.188c5.886-1.086 11.847-.558 17.748-1.2 9.925-1.079 19.951-1.525 29.595-4.328 5.519-1.6 10.9-3.694 16.336-5.571a8.021 8.021 0 011.053-.457c7.973-1.558 15.106-5.687 22.922-7.59 6.193-1.51 11.986-3.987 17.977-5.987 3.443-1.151 7.032-1.874 10.562-2.769 7.25-1.836 14.563-3.454 21.742-5.534a128.474 128.474 0 0142.682-5 17.58 17.58 0 002.3.109 77.035 77.035 0 0117.711.371c7.359 1.087 14.987 1.045 21.978 4.14.139.063.2.3.528.809-2.608-.03-4.991-.086-7.37-.075-6.9.038-13.833-.449-20.64 1.251a9.437 9.437 0 01-2.87.206c-11.094-.734-21.806 1.484-32.431 4.241-7.448 1.93-14.968 3.466-22.555 4.724a20.065 20.065 0 00-3.357.787c-8.692 3.065-17.441 5.984-26.024 9.322-7.152 2.78-14.065 6.16-21.15 9.112-8.67 3.612-17.287 7.422-26.163 10.453-7.051 2.405-14.455 3.784-21.708 5.59-7.823 1.948-15.833 3.338-23.439 5.924-9.906 3.364-20.123 4.829-30.344 6.365a66.1 66.1 0 01-12.6.251c-5.564-.244-11.109-.866-16.669-1.267a27.329 27.329 0 01-9.423-2.495c-3.5-1.593-6.868-3.474-10.423-4.9-6.172-2.485-9.477-7.659-12.504-13.021zm39.321 40.157a5.127 5.127 0 00-3.724-4.661c-1.626-.558-3.117-1.6-4.769-1.974-4.3-.955-7.606-3.447-10.9-6.178-3.54-2.941-7.325-5.59-11.034-8.322-2.012-1.484-3.87-3.02-4.2-5.923 5.579 2.675 10.809 5.357 16.185 7.71a38.558 38.558 0 0013.428 3.027c5.942.33 11.881.929 17.827 1.012a96.084 96.084 0 0013.773-.81 166.441 166.441 0 0029.16-6.7 206.579 206.579 0 0121.24-5.271c6.392-1.323 12.746-2.889 19.011-4.721a108.741 108.741 0 0012.345-4.721c8.46-3.627 17.212-6.576 25.4-10.846a34.349 34.349 0 014.721-2.053c6.53-2.263 13.079-4.478 19.116-7.924a3.376 3.376 0 011.06-.439c6.272-1.015 11.922-4.271 18.295-4.99 3.8-.431 7.381-2.1 11.278-2.106a4.136 4.136 0 001.682-.379c4.56-2.147 9.595-2.222 14.4-3.278 4.867-1.072 9.816-1.8 14.754-2.518 2.076-.3 4.219-.116 6.324-.277 2.477-.195 4.946-.54 7.418-.786 1.529-.154 3.057-.308 4.59-.356 4.612-.146 9.228-.386 13.836-.307 4 .071 8 .528 11.96.813.079 1.694-.937 1.42-1.578 1.428-6.905.1-13.822-.064-20.708.292-5.939.307-11.855 1.116-17.763 1.839-11.3 1.383-22 5.136-32.907 8.186-12.866 3.6-24.687 9.419-36.661 15.013a287.874 287.874 0 01-37.456 14.837 38.506 38.506 0 00-6.365 2.641c-7.673 3.968-15.275 8.086-22.945 12.061a129.942 129.942 0 01-26.909 10.1c-10.191 2.679-20.442 5.129-30.685 7.591a49.766 49.766 0 01-20.022.4c-2.83-.47-5.674-.879-9.174-1.411zm-.109 4.009c1.652.011 2.953-.09 4.226.048 4.009.435 8.018.9 12.008 1.465 4.32.607 8.415-.577 12.518-1.513 10.843-2.477 21.731-4.815 32.454-7.748a135.974 135.974 0 0031.97-12.761c9.307-5.324 18.692-10.739 29.213-13.571 4.091-2.619 9.063-2.788 13.376-4.848 4.5-2.154 9.172-3.949 13.709-6.028 4.365-2 8.595-4.305 12.99-6.239 12.641-5.564 25.219-11.293 38.879-14.121 5.249-1.086 10.318-3.046 15.567-4.14 9.764-2.031 19.621-3.364 29.659-2.66a32.551 32.551 0 006.328-.248c8.28-1.053 16.4.229 24.571 1.207 0 1.589-1.064 1.169-1.637 1.191-3.26.128-6.527.1-9.79.217a171.386 171.386 0 00-17.212 1.491c-8.745 1.2-17.572 1.9-26.384 2.417a95.86 95.86 0 00-40.6 11.851c-2.851 1.544-5.968 2.585-8.883 4.02a573.76 573.76 0 00-53.409 29.528c-6.163 3.893-11.937 8.4-17.928 12.57-10.082 7.025-20.262 13.9-31.659 18.707a15.133 15.133 0 01-2.638 1.128c-7.542 1.536-14.754 4.248-22.177 6.193a29.632 29.632 0 01-6.279.82c-5.759.236-11.544.7-17.284.386-6.171-.333-12.008-2.488-17.692-4.882-1.4-.588-2.713-1.4-4.556-2.372.229-4.186.439-7.999.664-12.109zm8.082 33.484a4.857 4.857 0 01-2.417-1.386c-2.982-4.234-5.223-8.79-5.609-14.7 2.076.629 3.728.989 5.264 1.622 9.161 3.773 18.741 3.705 28.4 3.41a65.442 65.442 0 0019.756-3.574c5.459-1.922 11.2-2.81 16.526-4.856 6.028-2.319 12.233-4.593 17.227-9.011a4.087 4.087 0 011.364-1.026c3.822-1.056 6.722-3.694 9.9-5.8 5.118-3.39 10.225-6.83 15.073-10.588a188.316 188.316 0 0121.255-13.743c7.973-4.619 15.987-9.191 24.192-13.368 6.83-3.481 13.417-7.482 20.651-10.161a37.959 37.959 0 005.227-2.42c7.951-4.406 16.47-7.141 25.271-9.284 5.474-1.33 11.03-1.323 16.53-1.772 9.58-.783 19.123-1.716 28.662-2.915 6.452-.813 13.046-.566 19.576-.644 4.028-.045 8.063.139 12.087.345a15.369 15.369 0 013.267.941c-1.008 1.821-2.5 1.394-3.709 1.57a21.067 21.067 0 01-4.6.274c-10.273-.749-20.273 1.409-30.36 2.675-2.664.334-5.346.536-8.022.787-6.692.63-13.507.656-20.037 2.035-7.482 1.577-14.766 4.188-22.03 6.65s-14.3 5.68-21.648 7.876a110.568 110.568 0 00-30 14.462 106.182 106.182 0 01-13.773 8.389 77.225 77.225 0 00-7.392 4.451c-13.443 8.265-26.148 17.591-38.763 27.047-3.072 2.3-6.351 4.342-9.6 6.4-7.287 4.623-14.144 9.906-21.888 13.848a58.377 58.377 0 01-15.017 5.631c-3.016.607-6.051 1.124-9.063 1.757a26.8 26.8 0 01-13.668-.926c-4.206-1.314-8.429-2.618-12.629-3.997zm94.083-25.08a28.309 28.309 0 00-7.737 7.647c-4.829 6.729-11.3 11.442-18.73 14.9a35.959 35.959 0 01-4.885 1.66c-6.662 1.978-13.113 4.443-18.775 8.572-7.542 5.5-15.875 6.373-24.7 4.35-2.982-.686-5.912-1.626-8.85-2.507a11.1 11.1 0 01-4.724-3.072c.689-1.431 1.641-.656 2.424-.494 3.563.734 7.1 1.622 10.682 2.236a17.369 17.369 0 005.178.082c11.315-1.525 22.237-4.29 32-10.547 4.369-2.795 8.778-5.523 13.169-8.28a5.473 5.473 0 00.967-.619c4.406-4.383 10.2-6.748 15.084-10.408 5.68-4.26 11.33-8.55 17.175-12.585 10.273-7.1 20.6-14.1 31.536-20.184 5.864-3.26 11.42-7.085 17.089-10.7 6.871-4.383 14.488-6.976 22.165-9.5 5.834-1.918 11.656-3.937 17.317-6.316a139.548 139.548 0 0126.4-8.075 146.62 146.62 0 0115.425-1.8c5.148-.487 10.3-.948 15.436-1.518 8.022-.892 16.028-1.915 24.121-1.843.573.007 1.143.079 2.7.187-3.743 2.559-7.347 2.316-10.652 2.967-7.16 1.409-14.447 1.844-21.731 2.338-7.654.521-15.376.81-22.828 2.933-4.8 1.372-9.566 2.878-14.316 4.406-3.1.993-6.025 2.521-9.344 2.81a6.832 6.832 0 00-2.162.769c-6.088 2.824-12.312 5.4-18.216 8.576-6.8 3.657-14.091 6.01-21.2 8.85-7 2.8-13.375 6.725-19.838 10.49-4.638 2.7-9.116 5.643-13.945 8.052a139.938 139.938 0 00-12.855 7.635c-4.523 2.906-8.851 6.106-13.377 8.987zm-25.755 127.81c-1.783-2.263-3.364-4.68-5.091-6.983a21.249 21.249 0 01-4.212-11.735 130.224 130.224 0 00-2.046-15.407c-1.648-8.774-1.255-17.549-.712-26.365.3-4.893 2.143-9.363 3.522-13.937a61.861 61.861 0 0112.1-22.743c4.5-5.252 8.913-10.577 13.353-15.882 1.6-1.915 3.229-3.818 4.74-5.811a32.63 32.63 0 019.516-8.262c1.956-1.172 3.683-2.72 5.579-4 4.133-2.791 8.228-5.658 12.488-8.246 6.879-4.189 13.8-8.329 20.854-12.218a190.5 190.5 0 0124.938-11.9 69.959 69.959 0 0011.064-4.8c3.114-1.821 6.834-2.574 10.116-4.151a144.526 144.526 0 0125.916-9.543c3.155-.828 6.2-2.09 9.356-2.915 7.287-1.9 14.773-2.458 22.263-2.847a167.763 167.763 0 0031.39-4.167c3.342-.824 6.568-2.11 9.869-3.117 3.582-1.091 7.018-2.687 10.824-3.121 1.439 1.892 1.139 3.78-.064 5.74a20.282 20.282 0 01-5.908 6.189c-6.313 4.357-13.53 5.047-20.832 5.766-10.127 1-20.255 2.076-30.337 3.454a92.869 92.869 0 00-14.578 3.252c-8.981 2.754-18.246 4.608-26.751 8.9-3.743 1.885-7.984 2.754-11.892 4.35a101.171 101.171 0 00-21.315 12.435 10.678 10.678 0 01-1.4 1.012c-8.31 4.245-14.994 10.708-22.124 16.512a224.719 224.719 0 00-24.717 23.241 156.745 156.745 0 00-10.858 14.189 176.491 176.491 0 00-18.318 31.3c-3.878 8.779-7.883 17.564-9.756 27.063-1.042 5.271-1.746 10.607-2.521 15.927-.858 5.909-1.51 11.828-.877 17.819a32.45 32.45 0 01-.15 4.009 28.505 28.505 0 01-3.426-3.009zm11.78 12.661c-1.615-1.641-3.2-3.309-4.676-4.837-.2-3.013-.36-5.849-.573-8.678-.547-7.134.307-14.189 1.019-21.262 1.405-13.979 6.339-26.852 12.139-39.472 7.029-15.286 16.418-29.1 26.991-42.071 4.83-5.928 10.539-11.18 16.118-16.456 10.914-10.318 22.941-19.28 35.354-27.692a124.825 124.825 0 0123.956-12.529 274.264 274.264 0 0134.6-10.842 186.339 186.339 0 0136.362-5.5 136.351 136.351 0 0013.735-1.39c9.91-1.5 17.328-6.9 22.618-15.268 1.2-1.9 1.907-4.1 3.365-7.3.558 1.87 1.049 2.627.922 3.26-.262 1.285-1.154 2.477-1.259 3.751-.349 4.2-2.806 6.965-5.736 9.625a49.564 49.564 0 01-25.961 12.825c-4.74.746-9.536 1.165-14.324 1.54-9.442.742-18.513 2.956-27.6 5.632-6.272 1.847-12.274 4.38-18.531 6.208a58.709 58.709 0 00-9.573 3.9c-8.767 4.365-17.722 8.374-25.9 13.862a127.8 127.8 0 00-24.709 21.5c-4.717 5.324-9.093 10.9-13.586 16.388a114.909 114.909 0 00-12.192 18.831c-3.882 7.276-7.422 14.754-11.66 21.817-2.473 4.121-4.788 8.306-7.168 12.469-4.133 7.227-6.74 15.043-9.479 22.814-1.656 4.709-3.23 9.468-4.425 14.308a66.868 66.868 0 00-2 12.507c-.195 3.8.521 7.635.787 11.461.075 1.121-.019 2.252-.041 3.657-3.396-.028-6.266-.711-8.57-3.059zm13.02 5.121c-3.706-13.608-2.308-26.553 2.518-39.261.712-5.62 3.342-10.641 5.444-15.74 2.769-6.714 6.474-13.05 9.88-19.494 2.694-5.088 5.568-10.079 8.325-15.133 5.8-10.622 11.45-21.307 19.25-30.693 5.4-6.5 10.506-13.259 16.643-19.1 3.192-3.042 6.609-5.86 10.034-8.647 2.967-2.421 6.051-4.71 9.153-6.962 6.1-4.432 13.068-7.31 19.707-10.779 15.635-8.179 32.386-13.151 49.508-16.826 6.905-1.48 14.084-1.761 21.161-2.3a46.733 46.733 0 0010.157-1.963 54.279 54.279 0 0023.447-13.979c2.342-2.387 4.207-4.863 4.755-8.288.408-2.574.6-2.541 3.972-2.87.614 4.489-1.2 8.366-3.529 11.836-3.844 5.721-7.617 11.581-13.4 15.687a16.628 16.628 0 00-1.679 1.581 52.62 52.62 0 01-24.683 12.855q-6.733 1.573-13.5 3.012a66.258 66.258 0 00-16.62 6.426c-8.007 4.163-15.86 8.632-22.754 14.578a42.768 42.768 0 01-3.851 2.507c-15.1 10.4-28.31 23.024-41.315 35.826a159.549 159.549 0 00-17 20.33c-4.859 6.7-9.415 13.589-13.582 20.681-8.078 13.766-15.182 28.04-20.007 43.342-2.207 7-5.6 13.47-9.063 19.9-.7 1.312-1.645 2.548-.693 4.076-4.232 1.132-8.259-.558-12.275-.603zm23.84 4.148q-5.547-1.714-11.1-3.425c1.611-.179 2.372-1.5 2.983-2.739 2.12-4.3 4.26-8.6 6.062-13.031 3.687-9.063 7.017-18.276 10.761-27.314 4.638-11.214 10.82-21.633 17.167-31.944a166.432 166.432 0 0121.394-27.834c5.155-5.391 10.154-10.963 16.051-15.661 6-4.785 11.472-10.236 17.426-15.092 7.883-6.426 15.923-12.671 24.724-17.838 4.136-2.424 8.246-4.9 12.439-7.216 6.291-3.48 13.121-5.279 20.154-6.632a76.63 76.63 0 0021.245-6.946 73.044 73.044 0 0013.57-8.632c.015.787.165 1.244.008 1.412-6.276 6.751-12.645 13.413-20.629 18.209a38.517 38.517 0 01-8.142 4.17 70.712 70.712 0 00-15.987 7.8c-8 4.923-16.069 9.794-23.139 16.073a5.862 5.862 0 01-.926.69c-7.928 4.5-14.646 10.539-21.1 16.871a222.061 222.061 0 00-18.7 20.161 240.5 240.5 0 00-14.567 21.352c-4.935 7.786-9.951 15.534-14.533 23.53a158.46 158.46 0 00-11.319 24.559c-3.941 10.809-8.258 21.48-12.533 32.517-4.026.222-7.552-1.88-11.303-3.041zm22.881 9.352a85.27 85.27 0 01-7.936-4.2 91.3 91.3 0 013.1-12.053c3.649-9.708 7.238-19.442 11.1-29.067a105.852 105.852 0 016.875-14.552c6.246-10.58 12.836-20.959 19.378-31.367 2.45-3.9 5-7.759 7.763-11.446a163.837 163.837 0 0120.873-22.986c1.562-1.424 3-2.971 4.537-4.429a98.072 98.072 0 0115-11.566c1.768-1.131 3.361-2.544 5.043-3.814a205.87 205.87 0 0128.677-18.186 26.958 26.958 0 014.185-1.911 54.8 54.8 0 0021.85-13.525c1.784-1.743 3.657-3.406 5.579-5a77.26 77.26 0 0012.683-13.766 6.854 6.854 0 01-.39 2.023 86.483 86.483 0 01-18.722 24.631c-8.325 7.733-17.478 14.458-25.893 22.057-5.695 5.144-11.154 10.55-16.669 15.894-3.308 3.207-6.605 6.437-9.76 9.8a316.415 316.415 0 00-25.3 29.91c-5.422 7.441-11.334 14.522-16.635 22.042-7.744 10.989-15.661 21.9-21.832 33.9-2.806 5.459-5.2 11.124-7.782 16.7-.645 1.394-1.2 2.829-1.911 4.189a42.064 42.064 0 00-4.215 13.117c-.378 2.45-.618 4.942-2.113 7.512-2.855-.668-4.893-2.867-7.482-3.909zm158.945-198.249l.7-1.484.555.408zm-147.57 205.183c1.045-7.853 1.716-15.841 5.463-23.229a132.05 132.05 0 005.358-12.739c2.2-5.792 5.477-11.023 8.741-16.189 6.347-10.057 12.889-19.993 20.079-29.505 3.571-4.725 7.2-9.416 10.453-14.421 3.541-5.444 8.209-10.146 12.293-15.249 9.389-11.727 20.236-22.09 30.715-32.795 2.672-2.727 5.785-5.02 8.67-7.538 6.654-5.8 13.432-11.45 20.232-17.084a126.259 126.259 0 0016.5-16.055c2.7-3.23 4.979-6.8 7.411-10.247.94-1.334 1.5-2.979 3.657-4.11-1.319 5.223-3.567 9.4-5.819 13.578-3.008 5.571-6.01 11.15-9.082 16.688a32 32 0 01-2.66 3.75c-3.267 4.253-6.759 8.333-9.221 13.178-.941 1.854-2.529 3.371-3.739 5.1-5.384 7.7-10.715 15.436-16.111 23.125a137.021 137.021 0 01-15.129 18.13c-3.222 3.234-7.044 5.995-9.228 10.195a2.884 2.884 0 01-.731.877c-6.834 5.455-11.6 12.784-17.133 19.378a120.3 120.3 0 00-11.184 16.711c-5.429 9.28-10.435 18.8-15.687 28.19-1.971 3.519-4.013 7.006-6.238 10.363-4.676 7.048-6.92 14.931-8.359 23.125-.127.735-.27 1.461-.4 2.166-5.772-.377-14.787-2.939-18.852-5.393zm44.709 24.511a68.812 68.812 0 01-6.264-5.954c-5.238-6.126-6.688-6.95-14.871-10.891a16.293 16.293 0 01-.135-8.906 65 65 0 016.8-17.658q7.182-12.494 14.166-25.1c4.376-7.886 8.6-15.856 13.732-23.3.543-.791 1.023-1.637 1.637-2.369 7.894-9.377 15.133-19.3 23.919-27.935 2.866-2.818 5.751-5.609 8.629-8.408a69.322 69.322 0 007.992-9.805c5.425-7.673 10.94-15.279 15.976-23.229a171.248 171.248 0 0112.338-17.34 103.974 103.974 0 0013.083-20.963c2.338-4.818 4.994-9.483 7.355-14.29a153.2 153.2 0 009.442-25.934c.408-1.435.618-2.907 1.918-3.856 1.491 3.114 1.019 6.283-.1 9.315-3.574 9.7-7.16 19.4-11.015 28.991-1.566 3.889-3.878 7.479-5.774 11.24-2.065 4.107-3.949 8.307-6.085 12.376-2.548 4.87-5.137 9.714-7.9 14.476-4.133 7.13-8.943 13.818-12.664 21.237-4.035 8.037-9.119 15.548-13.717 23.308-2.154 3.634-4.226 7.317-6.343 10.97-.866 1.5-1.656 3.039-2.641 4.451-7.587 10.884-13.956 22.514-20.786 33.863-4.766 7.917-8.621 16.29-12.585 24.6-3.4 7.13-5.448 14.762-7.223 22.45-1.806 7.834-3.627 15.669-5.35 23.518-.442 2.008-.543 4.092-.775 5.927-1.531.781-2.118-.203-2.76-.785zm14.642 16.239c-2.847-3.38-5.639-6.8-8.745-10.554.172-2.316.18-5.013.6-7.644 1.278-7.943 2.866-15.815 4.695-23.664 1.832-7.883 3.84-15.68 7.107-23.072 2.791-6.317 5.819-12.54 9.018-18.658 3.728-7.141 7.7-14.156 11.679-21.157 1.8-3.162 3.833-6.194 5.845-9.228 7.643-11.532 14.436-23.57 21.334-35.549 3.068-5.328 6.235-10.6 9.247-15.965 2.63-4.68 5.107-9.442 7.647-14.17a9.742 9.742 0 01.547-1.012c4.916-6.9 8.344-14.646 12.619-21.9 3.908-6.624 7.336-13.473 10.731-20.337 2.207-4.458 3.829-9.209 5.7-13.832 1.708-4.215 3.4-8.438 5.481-13.616a22.946 22.946 0 01-.517 11c-1.581 6.5-3.215 12.993-4.96 19.456a33 33 0 01-2.69 7.508c-3.376 6.047-5.114 12.769-8.168 18.951-3.893 7.883-6.751 16.264-11.6 23.686a23.608 23.608 0 00-2.252 4.665c-2.214 5.965-5.6 11.334-8.449 16.976-1.81 3.594-3.387 7.325-5.406 10.795-4.357 7.467-7.591 15.488-11.63 23.109a119.59 119.59 0 00-6.65 14.031 68.311 68.311 0 01-4.668 9.85 73.384 73.384 0 00-5.092 11.581c-2.439 6.861-5.223 13.608-8.011 20.341-4.342 10.484-8.6 21.019-10.91 32.151-1.75 8.441-3.38 16.942-3.717 25.619-.128 3.26-.521 6.516-.866 9.764a12.024 12.024 0 01-.907 2.409c-3.413-3.592-4.195-8.197-7.013-11.535zm23.743 26.586a39.946 39.946 0 01-5.736-2.694c-6.212-3.582-7.591-6.414-6.988-13.631.334-4.016.54-8.04.847-12.06.217-2.859.4-5.729.794-8.569.667-4.747 1.251-9.531 2.3-14.2a218.991 218.991 0 019.621-30.187c3.166-8.254 6.287-16.53 9.55-24.743 1.206-3.031 2.814-5.9 4.155-8.872 2.522-5.6 4.923-11.259 7.493-16.834 1.525-3.308 3.3-6.5 4.916-9.767 2.8-5.68 5.485-11.416 8.363-17.059 2.439-4.792 5.129-9.457 7.621-14.223 2.226-4.256 4.373-8.55 6.478-12.862 2.949-6.04 5.909-12.072 8.7-18.179q5.873-12.819 11.506-25.755a174.168 174.168 0 008.1-21.562c2.746-9.6 5.242-19.235 5.346-29.318.023-2.109.154-4.219.333-6.321.037-.461.487-.888 1.008-1.772 1.877 3.7 2.064 7.265 2.169 10.835.064 2.113-.067 4.234.06 6.344.273 4.458-1.023 8.752-1.232 13.151-.116 2.4-1.008 4.886.487 7.171a10.638 10.638 0 00-1.4 2.937c-1.551 10.067-4.211 19.891-6.456 29.809a3.948 3.948 0 01-.1.566c-3.616 9.479-6 19.393-10.322 28.629-1.618 3.458-2.664 7.179-4.065 10.742-.629 1.6-1.566 3.065-2.24 4.646-3.533 8.3-7.074 16.6-10.517 24.934-1.978 4.792-3.694 9.689-5.669 14.481-3.44 8.351-7.063 16.624-10.476 24.983-3.114 7.639-5.785 15.474-9.146 23-2.675 5.984-4.934 12.1-7.078 18.258-3.282 9.438-6.53 18.9-9.419 28.459-1.266 4.2-1.678 8.67-2.357 13.039-.592 3.788-1.075 7.595-1.5 11.405-.566 5.136-1.023 10.285-1.566 15.818a17.513 17.513 0 01-3.581-.6zm15.556 5.223a32.055 32.055 0 00-3.683-1.6 5.814 5.814 0 01-4.215-5.6 51.352 51.352 0 01-.037-6.917c.435-5.74.839-11.495 1.607-17.193a142.247 142.247 0 012.784-14.664 130.65 130.65 0 014.241-14.357c4.7-12.792 8.674-25.849 14.35-38.288 3.1-6.8 5.474-13.937 8.348-20.854s6.085-13.7 8.906-20.637c3.323-8.179 6.242-16.523 10.532-24.282a14.285 14.285 0 00.9-2.735c2.784-9.007 6.74-17.531 10.472-26.167 2.652-6.141 4.477-12.656 6.444-19.07 2.7-8.8 5.234-17.647 7.737-26.5a53.789 53.789 0 001.266-6.8c.45-3.031.817-6.077 1.147-9.127a4.02 4.02 0 00-.352-1.488 4.776 4.776 0 00.7-1.48c.955-7.82 2.566-15.579 2.368-23.507-.045-1.716-.416-3.421-.558-5.133-.079-.907.011-1.825.037-3.454a10.147 10.147 0 012.117 1.491 14.513 14.513 0 012.432 7.006c.813 7.052 1.72 14.062.536 21.206-.971 5.864-1.3 11.832-2.076 17.733-.375 2.848-1.221 5.627-1.716 8.464-1.326 7.572-2.847 15.1-4.912 22.5a36.063 36.063 0 00-.952 5.1c-1.09 8.415-3.679 16.474-6.04 24.563-3.492 11.978-7.508 23.8-11.045 35.769-2.064 6.988-3.593 14.133-5.418 21.191-.817 3.162-1.746 6.294-2.656 9.434-2.776 9.584-5.515 19.179-8.381 28.737-.824 2.75-2.121 5.358-3.057 8.078-2.574 7.441-4.751 15.039-7.669 22.338-4.683 11.719-6.541 24.043-8.812 36.32a107.426 107.426 0 00-1.445 22.956 17.073 17.073 0 01-.641 3.42c-4.65-2.266-8.947-4.371-13.259-6.454zm43.334 4.687c-3.826 3.492-8.452 5.32-13.271 6.684-3.462.982-6.875-.131-10.138-1.3a3.7 3.7 0 01-1.888-2.012 14.142 14.142 0 01-.963-4.47 123.2 123.2 0 01-.064-13.207c.382-5.163 1.27-10.289 2.016-15.422.468-3.225 1.056-6.433 1.633-9.644a109.486 109.486 0 014.736-18.351q5.912-16.237 11.281-32.672c3.559-10.958 6.763-22.03 10.116-33.053a15.78 15.78 0 00.727-2.787c1.053-9.835 4.938-18.91 7.441-28.359 3.889-14.683 9.835-28.745 12.9-43.66.229-1.131.641-2.229.787-3.368 1-7.846 3.406-15.381 5-23.083 2.379-11.462 4.492-22.994 6.212-34.571.843-5.654.551-11.476.757-17.224.071-2.075.09-4.151.131-6.227l1.289-.067c2.147 6.309 4.241 12.618 4.013 19.472-.12 3.645.225 7.321-.12 10.94-.509 5.343-.914 10.8-2.342 15.932-1.723 6.186-2.038 12.488-2.889 18.748-.644 4.755-.731 9.592-1.517 14.316-1.139 6.815-2.686 13.563-4.065 20.341-.116.562-.326 1.109-.416 1.679-2.128 13.323-6.343 26.126-10.157 39-2.237 7.557-4.054 15.2-6.024 22.81-1.154 4.455-2.023 9-2.814 13.533-1.349 7.752-2.491 15.537-3.792 23.3-1.4 8.329-2.885 16.646-4.316 24.972-.394 2.271-.734 4.552-1.087 6.83-.581 3.8-1.135 7.6-1.731 11.39-1.113 7.07-.94 14.185-.682 21.285.165 4.41.671 8.812 1.169 13.2a5.361 5.361 0 01-1.933 5.044zm27.2-31.472c-2.267 3.788-4.492 7.621-7.037 11.221a49.818 49.818 0 01-14.214 13.593 16.6 16.6 0 01-.821-2.375 106.213 106.213 0 01-.5-32.132c.319-2.282.6-4.571.9-6.853 1.491-11.618 3.256-23.188 5.59-34.679 1.416-6.958 2.312-14.02 3.5-21.03a343.208 343.208 0 018.5-36.474c3.312-11.633 6.883-23.192 9.337-35.062 1.4-6.766 3.357-13.417 4.8-20.176.918-4.316 1.439-8.722 1.978-13.106.685-5.53 1.068-11.1 1.839-16.617.821-5.878 1.945-11.716 2.93-17.538 1.45-.135 1.3.85 1.244 1.517-.423 4.972-.506 10.015-1.473 14.886a221.548 221.548 0 00-3.608 24.459c-.487 5.71-.843 11.45-2.2 17.077-.9 3.728-1.293 7.576-2.1 11.33-.727 3.369-1.784 6.666-2.574 10.019-1.592 6.725-3.241 13.439-4.609 20.209-1.412 6.984-1.663 14.1-2.008 21.21-.54 11.142-1.027 22.271-.2 33.428.468 6.3.273 12.66.832 18.955.577 6.5 1.7 12.944 2.589 19.411a11.144 11.144 0 00.311 1.7c1.884 6.191.149 11.751-3.009 17.026zm14.852-36.6c-.06 2.885-.214 5.762-.307 8.644a11.523 11.523 0 01-3.466 8.28c-1.221 1.191-2.256 2.578-3.739 4.3a19.755 19.755 0 01-1.278-2.784c-3.319-12.941-4-26.178-4.346-39.452-.161-6.137-.4-12.278-.577-18.415-.03-1.15.1-2.3.15-3.455.187-4.6.423-9.206.543-13.81a135 135 0 014.226-30.187c1.289-5.017 2.773-9.981 4.043-15.006.749-2.964 1.386-5.972 1.836-9 1.071-7.2 1.941-14.44 3.008-21.648 1.24-8.355 2.593-16.692 3.923-25.031.146-.906.465-1.783.7-2.671 1.832 8.445 3.395 16.744 2.761 25.234a62.586 62.586 0 00.146 6.905 414.186 414.186 0 01-1 43.776c-.835 12.072-1.577 24.155-2.405 36.227-.157 2.3-.468 4.59-.8 6.872-1.307 9.119-1.641 18.344-3.11 27.459-.728 4.48-.218 9.166-.312 13.756zm20.985 19.381c-4.065-5.436-6.995-11.446-10.341-17.253-1.971-3.421-2.533-7.25-3.155-11a118.24 118.24 0 01-1.832-19.479 77.441 77.441 0 01.955-13.705 17.183 17.183 0 00.3-2.863c.071-5.56.082-11.124.165-16.688a39.113 39.113 0 01.371-5.174c.959-6.268.925-12.6 1.278-18.9.217-3.829.453-7.661.881-11.472 1.165-10.348.052-20.715.352-31.075a171.519 171.519 0 00-.746-25.856c-.967-7.846-.94-15.7-1.671-23.526-.708-7.621-.678-15.312-2.383-22.824-1.105-4.863-2.125-9.757-3.473-14.552a53.289 53.289 0 00-3.008-6.842c-.776-1.753-1.611-3.488-2.211-5.3a2.209 2.209 0 01.554-1.974 2.519 2.519 0 012.136-.191 6.393 6.393 0 012.252 1.72c5.766 6.6 10.228 13.93 12.386 22.51a266.364 266.364 0 016.939 46.066c.7 9.756 1.248 19.528 1.9 29.288.382 5.725-.026 11.506-.127 17.261-.146 8.644-.431 17.273.052 25.924.266 4.762-.495 9.572-.645 14.365-.292 9.209-.292 18.43-.772 27.624-.36 6.92-.3 13.814.026 20.719a208.5 208.5 0 005.3 39.943c.682 2.78 1.956 5.411 2.844 8.149.558 1.723.929 3.511 1.379 5.275-3.928-2.742-6.84-6.339-9.71-10.176zm10.4 11.742c-.169-.4-.292-.817-.431-1.233a7.594 7.594 0 01.948.847c.1.113-.064.461-.109.7-.141-.106-.351-.181-.411-.319zm34.825 28.471c-5.777-4.777-11.772-9.336-17.16-14.522a103.233 103.233 0 01-11.974-13.983c-4.665-6.451-7.306-13.926-8.909-21.7a210.551 210.551 0 01-4.271-40.063c-.116-10.18.27-20.367.566-30.547.172-5.95.667-11.889.892-17.834.124-3.26.011-6.531-.041-9.8-.161-10.547.146-21.083.461-31.622.109-3.638-.217-7.291-.431-10.933-.109-1.918-.731-3.855-.558-5.733.648-6.943-.757-13.75-1.15-20.617-.42-7.288-.974-14.586-1.941-21.813-.783-5.845-2.241-11.6-3.451-17.377-1.023-4.878-1.768-9.794-3.552-14.526a49.531 49.531 0 00-5.83-11.195c-.933-1.327-1.776-2.713-2.66-4.072a37.269 37.269 0 019.981 13.192c3.934 9.179 8.022 18.276 10.877 27.92 2.248 7.6 3.376 15.347 4.724 23.083.528 3.024 1.072 6.051 1.488 9.093.551 3.987 1.252 7.932 1.416 12 .232 5.736 1.15 11.446 1.84 17.164a72.529 72.529 0 01.63 13.769 96.689 96.689 0 00.322 10.352c.333 8.64.723 17.279.993 25.919.2 6.523-.12 13.087.472 19.569.614 6.729-.06 13.432.337 20.124.513 8.628 2.121 17.126 3.758 25.6a26.791 26.791 0 01.693 3.376c.738 12.821 5.163 24.77 8.771 36.9a44.17 44.17 0 003.282 7.363c1.75 3.42 3.63 6.778 5.508 10.131a32.717 32.717 0 007.34 9.546c1.266 1.056 2.177 2.54 3.927 4.638a18.517 18.517 0 01-6.352-3.408zm-49.629-278.861l.4-.442 1.933 2.162zm81.73 288.056a10.515 10.515 0 01-6.8-.449c-4.226-1.828-8.475-3.615-12.686-5.474a7.691 7.691 0 01-2.421-1.555c-4.515-4.7-9.4-9-12.7-14.83-3.893-6.883-7.545-13.829-9.857-21.408-2.743-9-5.594-17.961-6.856-27.351-.922-6.845-2.289-13.623-3.395-20.446A127.926 127.926 0 01428.784 497c-.056-7.108-.614-14.208-.959-21.311a60.758 60.758 0 01-.3-6.328c.573-9.8-.33-19.573-.487-29.359-.064-4.016-.629-8.022-.91-12.034-.064-.933.161-1.884.184-2.829a43.51 43.51 0 00.011-5.181c-.907-9.367-1.454-18.8-2.978-28.063-1.5-9.1-2.626-18.246-4.144-27.332a79.4 79.4 0 00-3.3-12.218c-2.765-8.187-5.8-16.283-8.644-24.443-.67-1.918-2.034-3.687-1.573-5.912a68.216 68.216 0 0111.529 18.955c3.986 10.4 8.606 20.565 12.214 31.09 3.728 10.884 7.692 21.754 9.389 33.252.585 3.975 1.866 7.842 2.544 11.81 1.225 7.179 2.285 14.383 2.859 21.656.333 4.211.828 8.411 1.289 12.611.1.952.476 1.877.539 2.829.5 7.849.944 15.7 1.439 23.552.18 2.874.5 5.74.671 8.618.195 3.248.345 6.5.427 9.756a211.28 211.28 0 002.473 24.638c.791 5.515 1.4 11.075 2.54 16.515a111.914 111.914 0 007.519 24.17 86.283 86.283 0 013.264 8.628 35.782 35.782 0 005.448 10.108c2.889 3.837 5.935 7.565 8.726 11.473a27.724 27.724 0 0012.079 9.505c1.562.663 3.207 1.154 4.47 2.634-3.206 2.427-6.739 3.383-10.267 4.248zm29.131-6.774c-7.943.288-15.691-.394-23.023-3.957a24.8 24.8 0 01-8.269-6.111c-3.372-3.938-6.568-8.029-9.948-11.96-2.694-3.132-4.1-6.924-5.766-10.588a148.137 148.137 0 01-12.057-39.614c-1.9-12.911-4.106-25.848-3.567-39a9.874 9.874 0 00.011-1.154c-.719-8.423-1.753-16.83-2.079-25.264-.266-6.943-1.5-13.742-2.132-20.625a316.058 316.058 0 00-7.28-45.481c-1.573-6.523-3.81-12.889-5.848-19.292-1.8-5.669-3.608-11.349-5.669-16.927-2.259-6.115-4.811-12.128-7.242-18.179a57.428 57.428 0 00-2.443-5.83q-2.86-5.316-6.055-10.449a70.5 70.5 0 01-5.024-8.411 8.374 8.374 0 011.518 1.214c5.365 6.77 10.922 13.4 15.965 20.4a86.4 86.4 0 019.333 17.842c3.215 7.815 6.257 15.7 9.483 23.51 2.42 5.856 5.238 11.558 7.456 17.49a141.853 141.853 0 014.863 15.968c1.87 7.654 4.871 14.99 6.111 22.828.929 5.868 2.33 11.656 3.451 17.5q2.012 10.465 3.9 20.955a60.981 60.981 0 011.191 14.9 21.524 21.524 0 00.277 5.748c1.42 6.777 1.757 13.7 2.87 20.505a111.478 111.478 0 002.66 11.191c2.417 8.9 4.428 17.962 7.546 26.62 2.585 7.175 4.916 14.552 9.168 21.09a62.906 62.906 0 0014.013 15.141c1.046.828 2.211 1.51 3.282 2.308 3.409 2.537 6.928 4.841 11.214 5.65.442.082.806.588 1.9 1.435-3.795.211-6.804.432-9.812.541zm17.958-4.357a24.413 24.413 0 01-6.3-.442c-4.339-.79-8.719-1.573-12.027-4.957a6.426 6.426 0 00-1.948-1.214c-4.7-2.135-8.126-5.83-11.311-9.663a65.64 65.64 0 01-10-16.737c-3.96-9.449-6.381-19.321-9.1-29.13-.667-2.405-1.394-4.8-1.978-7.227-1.439-5.972-3.08-11.9-3.3-18.115a33.275 33.275 0 00-1-6.842 53.321 53.321 0 01-1.341-14.885 58.113 58.113 0 00-1.431-13.728c-1.836-9.041-3.739-18.067-5.545-27.115-.529-2.63-.847-5.3-1.229-7.958-.8-5.553-2.593-10.828-4.275-16.144-1.967-6.219-3.589-12.551-5.609-18.752-1.72-5.286-3.676-10.505-5.744-15.669-1.21-3.02-3.013-5.8-4.264-8.808-3.17-7.621-6.362-15.234-9.19-22.982a84.649 84.649 0 00-9.6-18.328c-2.893-4.286-6.291-8.232-9.445-12.342-3.372-4.4-6.721-8.8-10.555-13.833 2.064 1.053 3.709 2.2 5.429.232a24.516 24.516 0 013.6 2.7 75.493 75.493 0 017.115 8.31c3.256 4.732 6.073 9.764 9.168 14.609 2.169 3.394 4.526 6.661 6.729 10.029q8.34 12.78 16.594 25.612a21.44 21.44 0 011.615 3.664c2.769 6.943 5.669 13.837 8.224 20.858 1.573 4.316 2.656 8.812 3.9 13.248 1.96 7.025 4.208 13.967 5.193 21.243a40.9 40.9 0 001.993 6.6c3.009 9.513 5.882 19.074 9.086 28.527 2.952 8.715 5.766 17.456 8 26.4.971 3.893 2.379 7.673 3.608 11.5a87.09 87.09 0 003.069 9.3c4.17 9.269 8.572 18.437 12.873 27.646a194.16 194.16 0 0013.319 23.552 80.621 80.621 0 0014.612 16.223 33.991 33.991 0 004.38 2.682c.922.588 1.768 1.3 2.656 1.956-3.377 4.24-11.882 9.64-15.973 9.973zm29.67-18.588c-1.813 1.915-4.237 3.26-6.411 4.83-1.379 1-2.81.847-4.372.292a35.739 35.739 0 01-14.6-10.023 123.8 123.8 0 01-17.763-26.174c-2.735-5.275-5.377-10.6-7.984-15.942-2.435-4.987-4.844-9.989-7.126-15.046-1.019-2.26-1.735-4.654-2.529-7.006-.922-2.728-1.813-5.467-2.649-8.22-3.17-10.461-6.291-20.937-9.475-31.39-.67-2.2-1.63-4.316-2.316-6.515-2.978-9.528-5.991-19.052-8.8-28.629-1.027-3.488-1.375-7.171-2.323-10.689-2.094-7.793-4.335-15.549-6.594-23.3-.536-1.836-1.356-3.589-2.065-5.373s-1.589-3.514-2.125-5.346c-.817-2.765-1.573-5.507-3.32-7.9a7.756 7.756 0 01-1.36-3.162c-.742-4.32-3.188-7.8-5.485-11.315-3.668-5.62-7.625-11.056-11.315-16.669s-7.194-11.36-10.8-17.032c-4.736-7.444-9.258-15.043-15.193-21.648a11.591 11.591 0 01-.9-2.027c1.562.1 2.578-.124 3.233.259a75.483 75.483 0 0121.075 17.651 14.863 14.863 0 011.255 1.926c2.383 4.151 4.545 8.449 7.175 12.435 4.672 7.073 7.846 14.9 11.795 22.341 2.244 4.23 4.792 8.3 6.954 12.57 1.555 3.072 2.656 6.373 4.039 9.539 1.068 2.45 2.285 4.837 3.387 7.276 3.488 7.7 6.924 15.417 10.434 23.1 1.113 2.435 2.413 4.781 3.593 7.186a40.188 40.188 0 011.656 3.668 176.507 176.507 0 0010.03 22.019c2.188 4.042 3.9 8.351 5.8 12.551 4.5 9.974 8.789 20.053 13.54 29.91s9.794 19.6 15.028 29.22c5.429 9.985 12.177 19.1 19.22 28.018a98.928 98.928 0 0010.386 10.749c2.184 2.042 5.178 3.218 8.123 4.968-3.727 4.316-7.313 8.756-11.221 12.892zm15.706-15.785c-2.458-.993-4.934-1.933-7.359-3a12.353 12.353 0 01-3.477-2.008c-2.952-2.746-6.122-5.369-8.546-8.542q-9.442-12.358-18.265-25.174c-4.47-6.467-7.677-13.691-11.225-20.686-5.987-11.809-11.78-23.724-17.546-35.646-1.416-2.933-2.248-6.148-3.634-9.1-3.192-6.771-6.575-13.45-9.85-20.18a50.97 50.97 0 01-2.585-5.781c-2.8-8.2-7.018-15.755-10.465-23.657-2.919-6.68-6.272-13.174-9.277-19.82-3.945-8.738-7.831-17.49-12.713-25.777-2.72-4.616-4.882-9.554-7.407-14.282-1.442-2.7-3.125-5.264-4.676-7.9a4.25 4.25 0 01-.637-2.042 39.136 39.136 0 017.34 8.5c4.575 6.624 9.869 12.8 13.346 20.127 4.357 9.195 10.51 17.4 14.459 26.845 2.207 5.287 5.346 10.187 8.1 15.241 4.14 7.591 8.239 15.2 12.491 22.731 2.642 4.676 5.657 9.138 8.284 13.821 6.961 12.413 14.931 24.181 22.866 35.972 2.035 3.027 3.8 6.241 5.856 9.254a78.391 78.391 0 005.935 7.789 91.877 91.877 0 019.775 13.515c4.923 8.13 11.619 14.8 18 21.7 3.781 4.088 7.981 7.79 12.046 11.6a33.6 33.6 0 003.653 2.776 16.509 16.509 0 014.264 3.705c-3.608 3.49-3.881 3.633-18.755 10.013zm21.461-14.3a25.436 25.436 0 01-6.92-4 278.282 278.282 0 01-26.054-26.115 42.55 42.55 0 01-4.623-6.59 103.332 103.332 0 00-11.3-15.275 41.792 41.792 0 01-4.564-5.905c-5.935-10.116-13.2-19.34-19.385-29.28-4.054-6.523-7.931-13.151-11.847-19.756-3.526-5.946-7.051-11.892-10.479-17.894-3.994-6.995-7.984-13.994-11.791-21.086-4.361-8.127-8.531-16.351-12.746-24.552a3.4 3.4 0 01-.123-1.45c2.24 2.791 4.571 5.5 6.631 8.407 4.328 6.1 8.472 12.334 12.75 18.471 2.308 3.308 4.788 6.493 7.093 9.8 1.532 2.2 2.844 4.548 4.339 6.778q7.385 11 14.841 21.952c5.084 7.456 10.086 14.976 15.388 22.278 3.5 4.811 7.347 9.378 11.232 13.885 4.388 5.091 8.76 10.232 13.552 14.93 8.273 8.108 17.8 14.616 27.793 20.423 4.646 2.7 9.341 5.321 14.136 7.737 3.061 1.543 6.347 2.645 9.82 4.065a4.8 4.8 0 01-.217 1.873c-2.443 4.564-4.867 9.138-7.512 13.578a67.688 67.688 0 01-4.792 6.444 4.233 4.233 0 01-5.225 1.279z" fill="#e6d8d0" opacity=".15"/>
</svg>
