<?xml version="1.0" encoding="utf-8"?>
<!-- Generator: Adobe Illustrator 25.2.3, SVG Export Plug-In . SVG Version: 6.00 Build 0)  -->
<svg version="1.1" id="Layer_1" xmlns="http://www.w3.org/2000/svg" xmlns:xlink="http://www.w3.org/1999/xlink" x="0px" y="0px"
	 viewBox="0 0 174.8 47.3" style="enable-background:new 0 0 174.8 47.3;" xml:space="preserve">
<style type="text/css">
	.st0{fill:#FFFFFF;}
</style>
<path id="Path_8474" class="st0" d="M153.9,46.3c-1.7-0.7-2.5-1.7-2.5-3c0-0.9,0.5-1.8,1.2-2.4c1-0.8,2.3-1.4,3.6-1.7l0.4,0.7
	c-0.9,0.7-1.5,1.8-1.5,3c0,1.2,0.6,2.2,1.6,2.8c1.4,0.7,2.9,1.1,4.5,1c1.7,0.1,3.4-0.3,4.9-1.2c1.2-0.7,1.9-2,1.9-3.4
	c0-0.9-0.4-1.7-1.1-2.2c-1.1-0.6-2.4-0.9-3.7-0.8h-2.7c-1.5,0.1-3-0.2-4.3-0.9c-1-0.6-1.6-1.7-1.5-2.8c0-1.1,0.4-2.1,1.1-2.8
	c1-1,2.1-1.8,3.4-2.4c-1.8-0.2-3.5-0.9-4.9-2.1c-1.2-1.2-1.9-2.9-1.8-4.6c-0.1-2,0.8-3.9,2.3-5.1c1.8-1.2,4-1.8,6.2-1.7
	c2.9,0,5.1,0.7,6.6,2c0.5-0.8,1.2-1.4,2-1.9c0.7-0.4,1.6-0.7,2.5-0.7c0.8,0,1.5,0.2,2,0.8c0.5,0.5,0.8,1.2,0.8,2
	c0,0.7-0.2,1.4-0.7,1.9c-0.4,0.4-1,0.7-1.6,0.7c-0.5,0-1.1-0.2-1.5-0.6c-0.4-0.4-0.6-1-0.6-1.7c0-0.7,0.2-1.5,0.5-2.1
	c-0.6,0.2-1.2,0.6-1.7,1c-0.5,0.4-0.8,0.8-1.1,1.4c0.9,1.2,1.4,2.6,1.3,4.1c0.1,2-0.8,3.9-2.3,5.1c-1.8,1.2-4,1.8-6.2,1.7h-0.8
	c-1.2,0.7-1.8,1.4-1.8,2.3c0,0.9,0.6,1.4,1.7,1.4h4.7c2.1-0.1,4.2,0.4,6,1.4c1.5,0.9,2.4,2.5,2.3,4.3c0,1.4-0.5,2.9-1.4,4
	c-1.1,1.3-2.6,2.3-4.2,2.9c-2.2,0.8-4.6,1.1-7,1.1C158.3,47.4,156,47.1,153.9,46.3z M159.2,18.6c-0.5,1.5-0.7,3.1-0.6,4.7
	c-0.1,1.6,0.1,3.2,0.6,4.7c0.3,0.8,1,1.4,1.8,1.4c0.8,0,1.6-0.6,1.8-1.4c0.5-1.5,0.7-3.1,0.6-4.7c0.1-1.6-0.1-3.2-0.6-4.7
	c-0.3-0.8-1-1.3-1.8-1.4C160.2,17.2,159.4,17.8,159.2,18.6L159.2,18.6z M96.3,36.9c-1.6-2-2.4-4.9-2.3-8.9c-0.1-2.2,0.4-4.4,1.2-6.4
	c0.7-1.6,1.9-3,3.4-3.9c1.5-0.9,3.2-1.3,5-1.3c1.7-0.1,3.5,0.5,4.8,1.6v-7.3c0.1-1-0.1-2-0.6-2.9c-0.5-0.6-1.3-1-2.1-0.9V6.1
	c0.9,0.1,1.8,0.1,2.7,0.1c2.1,0,4.2-0.2,6.3-0.6v28.9c-0.1,1,0.1,2,0.6,2.9c0.5,0.7,1.3,1,2.2,0.9v0c0.7,0,1.3-0.2,1.8-0.7
	c0.5-0.7,0.7-1.6,0.6-2.4V21.7c0.1-1-0.1-2-0.6-2.9c-0.5-0.7-1.3-1-2.1-0.9V17c0.9,0.1,1.8,0.1,2.7,0.1c2.1,0,4.2-0.2,6.3-0.6v18.7
	c-0.1,0.9,0.1,1.7,0.6,2.4c0.5,0.5,1.3,0.7,2,0.7c0.7,0.1,1.5-0.2,2-0.7c0.5-0.7,0.7-1.6,0.6-2.4V21.7c0.1-1-0.1-2-0.6-2.9
	c-0.5-0.7-1.3-1-2.2-0.9V17c0.9,0.1,1.8,0.1,2.7,0.1c2.1,0,4.2-0.2,6.3-0.6v3.9c1.3-2.7,3.6-4,7-4c2.2,0,3.8,0.6,4.7,1.7
	c0.5,0.6,0.9,1.3,1,2.1c0.2,1.1,0.3,2.3,0.3,3.5v11.6c-0.1,0.9,0.1,1.7,0.6,2.4c0.6,0.5,1.4,0.7,2.1,0.7v0.9
	c-2.9-0.1-4.8-0.2-5.7-0.2c-0.9,0-2.7,0.1-5.6,0.2v-0.9c0.7,0.1,1.3-0.2,1.8-0.7c0.4-0.7,0.6-1.6,0.5-2.4V21.9
	c0.1-0.9-0.1-1.8-0.6-2.7c-0.5-0.6-1.3-1-2.1-0.9c-1.2,0-2.3,0.5-3,1.4c-0.8,1-1.3,2.3-1.2,3.5v12c-0.1,0.8,0.1,1.7,0.5,2.4
	c0.5,0.5,1.1,0.7,1.8,0.7v0.9c-2.6-0.1-4.4-0.2-5.3-0.2c-0.8,0-2.7,0.1-5.6,0.2v0l-0.1,0l-0.2,0v0c-2.7-0.1-4.5-0.2-5.4-0.2
	c-0.9,0-2.9,0.1-6,0.2v-0.1c-0.8-0.1-1.5-0.1-2.3-0.1c-2.1,0-4.2,0.2-6.3,0.6V36c-0.7,2.4-3.1,4-5.6,3.9
	C100.2,40,97.8,38.9,96.3,36.9z M101.6,20.3c-0.8,1.7-1.2,4.4-1.2,7.8c0,3.5,0.3,6,1,7.6c0.7,1.5,1.7,2.3,3,2.3c0.9,0,1.8-0.4,2.5-1
	c0.8-0.7,1.2-1.7,1.3-2.8v-15c-0.7-1-1.9-1.5-3.1-1.5C103.6,17.7,102.4,18.5,101.6,20.3L101.6,20.3z M72.7,36.9
	c-1.6-2-2.4-4.9-2.3-8.9c-0.1-2.2,0.4-4.4,1.2-6.4c0.7-1.6,1.9-3,3.4-3.9c1.5-0.9,3.2-1.3,5-1.3c1.7-0.1,3.5,0.5,4.8,1.6v-7.3
	c0.1-1-0.1-2-0.6-2.9c-0.5-0.6-1.3-1-2.1-0.9V6.1c0.9,0.1,1.8,0.1,2.7,0.1c2.1,0,4.2-0.2,6.3-0.6v28.9c-0.1,1,0.1,2,0.6,2.9
	c0.5,0.7,1.3,1,2.2,0.9v0.9c-0.9-0.1-1.8-0.1-2.7-0.1c-2.1,0-4.2,0.2-6.3,0.6V36c-0.8,2.4-3.1,4-5.6,3.9
	C76.6,40,74.2,38.9,72.7,36.9z M78.1,20.3c-0.8,1.7-1.2,4.4-1.2,7.8c0,3.5,0.3,6,1,7.6c0.7,1.5,1.7,2.3,3,2.3c0.9,0,1.8-0.4,2.5-1
	c0.8-0.7,1.2-1.7,1.3-2.8v-15c-0.7-1-1.9-1.5-3.1-1.5C80.1,17.7,78.9,18.5,78.1,20.3L78.1,20.3z M53.5,37c-1.8-1.9-2.7-4.8-2.7-8.6
	c0-3.9,1-6.8,2.9-8.9c2-2.1,4.8-3.2,7.7-3.1c5.4,0,8.1,3.2,8.1,9.5H57.3c0,0.4,0,1.1,0,2c0,1.6,0.2,3.2,0.8,4.7
	c0.4,1.1,1.1,2.1,2.1,2.7c0.8,0.6,1.8,0.9,2.7,0.9c2.4,0,4.6-1.3,5.7-3.4l0.8,0.3c-0.6,1.8-1.6,3.5-3.1,4.8c-1.5,1.3-3.5,2-5.5,2
	C58,40,55.4,38.9,53.5,37z M58.5,19.2c-0.8,1.9-1.2,3.9-1.3,5.9H64c0.1-1.9-0.1-3.8-0.7-5.6c-0.5-1.5-1.3-2.2-2.3-2.2
	C59.9,17.4,58.9,18.2,58.5,19.2L58.5,19.2z M32.3,38.7l-7-20.8l-7.1,20.8c0,0.1-0.1,0.2-0.3,0.2c-0.4,0-0.9,0-1.7,0s-1.3,0-1.7,0
	c-0.1,0-0.2-0.1-0.3-0.2L3.1,8.5C2.9,7.7,2.4,6.9,1.8,6.3c-0.4-0.4-1-0.6-1.5-0.7C0.1,5.6,0,5.5,0,5.4v-1c0-0.1,0-0.1,0.1-0.2
	c0.1,0,0.1-0.1,0.2-0.1c2,0.1,4.4,0.1,7.4,0.1c2.8,0,4.8-0.1,6.1-0.1c0.1,0,0.1,0,0.2,0.1c0,0,0.1,0.1,0.1,0.2v1
	c0,0.1-0.1,0.2-0.2,0.3c-1,0.1-1.5,0.7-1.5,1.6c0,0.7,0.2,1.4,0.4,2.1l7,19.7l4.7-13.6L21.9,8c-0.2-0.7-0.6-1.3-1.1-1.8
	c-0.4-0.3-0.9-0.5-1.4-0.6c-0.1,0-0.2-0.1-0.2-0.3v-1c0-0.1,0-0.1,0.1-0.2c0.1,0,0.1-0.1,0.2-0.1c1.8,0.1,4.2,0.1,7.1,0.1
	c3.2,0,5.6-0.1,7.1-0.1c0.1,0,0.1,0,0.2,0.1c0.1,0,0.1,0.1,0.1,0.2v1c0,0.1-0.1,0.2-0.2,0.3c-0.8,0-1.7,0.1-2.5,0.4
	c-0.4,0.2-0.7,0.7-0.6,1.1c0,0.7,0.2,1.5,0.5,2.2l6.5,19.5l1.9-5.8c-0.8-0.5-1.5-1.1-2-1.9c-0.7-0.9-1.2-2-1.4-3.2
	c-0.2-1.6-0.1-3.2,0.4-4.8l0.2-0.6c0-0.1,0.1-0.1,0.1-0.2c0.1,0,0.1,0,0.2,0l0.6,0.3c1.8,0.7,3.2,2.1,4,3.9l0.5-1.6
	c0.3-1.1,0.5-1.7,0.7-2.2c0-0.1,0.1-0.3,0.1-0.4c-1.5-2-1.9-4.6-1.2-7c0.6-1.6,1.5-3,2.8-4.1c0.3-0.3,0.7-0.6,1.1-0.9L45.8,0
	C45.9,0,46,0,46.1,0.1l0.3,0.4c0.8,1.1,1.3,2.4,1.5,3.8c0.2,1.3,0,2.7-0.5,4c-0.7,1.8-1.7,3.3-3.1,4.6l-0.4,1.3
	c0.4-0.3,0.8-0.7,1.3-0.9c1.5-0.9,3.2-1.4,5-1.5l0.6-0.1c0.1,0,0.1,0,0.2,0.1c0.1,0.1,0.1,0.1,0.1,0.2l0,0.6c0,2.4-1.2,4.7-3.2,6.1
	c-1.4,0.9-2.9,1.4-4.5,1.4c-0.2,0-0.5,0-0.7,0c-0.3,0-0.4,0-0.5,0l-0.3,0.8c-0.1,0.4-0.2,0.8-0.3,1.2c-0.1,0.2-0.2,0.5-0.3,0.7
	c0.5-0.3,1-0.6,1.5-0.8c1.5-0.6,3.1-0.9,4.7-0.8l0.6,0c0.1,0,0.1,0,0.2,0.1c0,0.1,0.1,0.1,0,0.2L48.2,22c-0.3,2-1.5,3.8-3.3,4.9
	c-1.3,0.7-2.7,1.1-4.1,1c-0.2,0-0.4,0-0.7,0s-0.4,0-0.5,0l-3.4,10.9c0,0.1-0.1,0.2-0.3,0.2c-0.4,0-0.9,0-1.7,0s-1.3,0-1.7,0
	c0,0,0,0,0,0C32.4,38.9,32.3,38.8,32.3,38.7L32.3,38.7z M41.2,24.8c-0.4,0.5-0.8,1-1,1.6c0,0,0.1,0,0.1,0c0.2,0,0.4,0,0.6,0
	c2.5,0.2,4.9-1.4,5.6-3.9C44.5,22.5,42.6,23.3,41.2,24.8L41.2,24.8z M38.6,20.2c0.4,0.5,0.8,0.9,1.3,1.3l0.6-1.8
	c0.1-1-0.1-1.9-0.5-2.8c-0.5-1-1.3-1.9-2.4-2.5C37.1,16.5,37.4,18.6,38.6,20.2L38.6,20.2z M46,14.5c-0.9,0.5-1.6,1.2-2.2,2.1
	c-0.4,0.6-0.7,1.3-0.8,2c0.1,0,0.1,0,0.2,0c1.3-0.1,2.6-0.5,3.8-1.2c1.3-0.9,2.2-2.4,2.4-4C48.2,13.5,47,13.9,46,14.5L46,14.5z
	 M45.4,2.3c-1.1,1-1.9,2.2-2.4,3.6c-0.5,1.8-0.2,3.7,0.9,5.3c0.9-1,1.7-2.2,2.1-3.4c0.4-1.1,0.5-2.2,0.4-3.3
	c-0.1-0.8-0.4-1.6-0.7-2.4C45.5,2.1,45.4,2.2,45.4,2.3L45.4,2.3z M119.6,11.7c-0.7-0.6-1.1-1.5-1.1-2.4c0-0.9,0.3-1.8,1.1-2.4
	c0.8-0.6,1.8-0.9,2.9-0.9c1-0.1,2,0.3,2.9,0.9c0.7,0.6,1.1,1.5,1.1,2.4c0,0.9-0.3,1.8-1.1,2.4c-0.8,0.6-1.8,0.9-2.9,0.9
	C121.4,12.6,120.4,12.3,119.6,11.7L119.6,11.7z"/>
</svg>
