<?xml version="1.0" encoding="utf-8"?>
<!-- Generator: Adobe Illustrator 25.2.3, SVG Export Plug-In . SVG Version: 6.00 Build 0)  -->
<svg version="1.1" id="Layer_1" xmlns="http://www.w3.org/2000/svg" xmlns:xlink="http://www.w3.org/1999/xlink" x="0px" y="0px"
	 viewBox="0 0 40 40" style="enable-background:new 0 0 40 40;" xml:space="preserve">
<path d="M20,10.5c-2.9,0-5.2,2.4-5.2,5.3c0,2.9,2.4,5.2,5.2,5.2c0,0,0,0,0.1,0c2.9,0,5.2-2.4,5.2-5.3c0-1.4-0.6-2.7-1.6-3.7
	C22.7,11,21.4,10.5,20,10.5z M20.1,19C20.1,19,20.1,19,20.1,19c-1.8,0-3.3-1.5-3.3-3.3c0-1.8,1.5-3.3,3.3-3.3h0c0,0,0,0,0,0
	c0.9,0,1.7,0.3,2.3,0.9c0.6,0.6,1,1.4,1,2.3C23.4,17.5,21.9,19,20.1,19z M34.3,9.5C33.6,7.7,32.4,6,31,4.6c-1.4-1.4-3.1-2.6-4.9-3.3
	C24.1,0.4,22.1,0,20,0c-2.1,0-4.1,0.4-6.1,1.2C12.1,2,10.4,3.1,9,4.6S6.4,7.7,5.7,9.5c-0.8,1.9-1.2,4-1.2,6.1c0,3.1,1.8,7.3,5.4,13
	c2.8,4.3,6,8.3,7.6,10.3C18.1,39.6,19,40,20,40c1,0,1.9-0.4,2.5-1.2c1.6-2,4.8-6,7.6-10.3c3.6-5.6,5.4-9.9,5.4-13
	C35.6,13.5,35.2,11.4,34.3,9.5z M21,37.6c-0.5,0.7-1.5,0.7-2.1,0c-3.2-3.8-12.6-15.8-12.6-22C6.4,8,12.5,1.9,20,1.9
	c7.5,0,13.6,6.1,13.6,13.6C33.6,21.8,24.2,33.7,21,37.6z"/>
</svg>
