<?xml version="1.0" encoding="utf-8"?>
<!-- Generator: Adobe Illustrator 25.2.3, SVG Export Plug-In . SVG Version: 6.00 Build 0)  -->
<svg version="1.1" id="Layer_1" xmlns="http://www.w3.org/2000/svg" xmlns:xlink="http://www.w3.org/1999/xlink" x="0px" y="0px"
	 viewBox="0 0 40 40" style="enable-background:new 0 0 40 40;" xml:space="preserve">
<path d="M31.5,0h-23C6,0,3.9,2.1,3.9,4.6v30.8C3.9,37.9,6,40,8.5,40h23c2.5,0,4.6-2.1,4.6-4.6V4.6C36.1,2.1,34,0,31.5,0z M34.3,35.4
	c0,1.5-1.2,2.8-2.8,2.8h-23c-1.5,0-2.8-1.2-2.8-2.8V4.6c0-1.5,1.2-2.8,2.8-2.8h23c1.5,0,2.8,1.2,2.8,2.8V35.4z M23.5,32.5
	c0,0.5-0.4,0.9-0.9,0.9h-5.7c-0.5,0-0.9-0.4-0.9-0.9s0.4-0.9,0.9-0.9h5.7C23.1,31.5,23.5,31.9,23.5,32.5z"/>
</svg>
