<?xml version="1.0" encoding="utf-8"?>
<!-- Generator: Adobe Illustrator 25.2.3, SVG Export Plug-In . SVG Version: 6.00 Build 0)  -->
<svg version="1.1" id="Layer_1" xmlns="http://www.w3.org/2000/svg" xmlns:xlink="http://www.w3.org/1999/xlink" x="0px" y="0px"
	 viewBox="0 0 40 40" style="enable-background:new 0 0 40 40;" xml:space="preserve">
<path d="M31.6,13.6c0.3,0.4,0.2,1-0.2,1.3l-10.9,8.3c-0.2,0.1-0.4,0.2-0.5,0.2c-0.2,0-0.4-0.1-0.5-0.2L8.6,14.9
	c-0.4-0.3-0.5-0.9-0.2-1.3c0.3-0.4,0.9-0.5,1.3-0.2L20,21.3l10.4-7.9C30.7,13.2,31.3,13.2,31.6,13.6z M40,9.9v20.2
	c0,2.8-2.3,5.1-5.1,5.1H5.1c-2.8,0-5.1-2.3-5.1-5.1V9.9c0-2.8,2.3-5.1,5.1-5.1h29.9C37.7,4.8,40,7.1,40,9.9z M38.2,9.9
	c0-1.8-1.5-3.3-3.3-3.3H5.1c-1.8,0-3.3,1.5-3.3,3.3v20.2c0,1.8,1.5,3.3,3.3,3.3h29.9c1.8,0,3.3-1.5,3.3-3.3V9.9z"/>
</svg>
