<svg xmlns="http://www.w3.org/2000/svg" width="57.784" height="45.022">
  <path d="M40.607 45.021c-.4-.037-1.043-.055-1.9-.055s-1.5.018-1.9.055h-.045a.5.5 0 01-.474-.343l-7.7-23.242-7.754 23.243a.5.5 0 01-.475.342h-.045c-.4-.037-1.04-.055-1.9-.055s-1.5.018-1.9.055h-.046a.5.5 0 01-.471-.331L3.538 10.062a5.944 5.944 0 00-1.471-2.448 2.721 2.721 0 00-1.592-.761.5.5 0 01-.471-.5V5.248a.5.5 0 01.5-.5h.025c2.2.11 4.981.166 8.262.166 3.091 0 5.38-.056 6.8-.166h.039a.5.5 0 01.5.5v1.105a.5.5 0 01-.428.495 1.506 1.506 0 00-1.518 1.661 8.674 8.674 0 00.476 2.336L22.3 32.86l5.091-14.947-2.781-8.411a4.634 4.634 0 00-1.157-2.019 2.673 2.673 0 00-1.483-.633.5.5 0 01-.445-.5V5.245a.5.5 0 01.5-.5h.026c2.052.11 4.719.166 7.925.166 3.611 0 6.295-.056 7.976-.166h.032a.5.5 0 01.5.5V6.35a.5.5 0 01-.487.5 7.494 7.494 0 00-2.693.425c-.28.129-.6.376-.6 1.123a7.968 7.968 0 00.527 2.437v.007l7.135 21.65 1.832-5.8a8.713 8.713 0 01-2.178-2.1 8.886 8.886 0 01-1.566-3.753 12.782 12.782 0 01.418-5.589l.191-.67a.5.5 0 01.7-.312l.625.3a9.123 9.123 0 014.379 4l.415-1.312c.393-1.275.589-1.985.744-2.554.033-.12.065-.232.094-.341a9.442 9.442 0 01-1.339-8.168 11.422 11.422 0 013.17-4.816 10.9 10.9 0 011.229-1l.01-.006.452-.3a.5.5 0 01.671.112l.329.428a9.563 9.563 0 011.684 4.419 10.217 10.217 0 01-.533 4.663 14.847 14.847 0 01-3.49 5.344l-.218.708a10.389 10.389 0 01.869-.6 13.663 13.663 0 015.679-1.81l.693-.076a.492.492 0 01.4.135.5.5 0 01.154.4l-.047.692a8.922 8.922 0 01-3.714 7.185 10.509 10.509 0 01-5.16 1.693c-.267.019-.534.028-.791.028-.172 0-.315 0-.423-.009l-.229.744a11.419 11.419 0 01-.345 1.336c-.019.058-.038.115-.058.172a9.28 9.28 0 011.147-.6 12.347 12.347 0 014.942-.932c.156 0 .314 0 .471.007l.7.02a.5.5 0 01.379.191.507.507 0 01.1.413l-.145.679a8.431 8.431 0 01-3.776 5.8 9.23 9.23 0 01-4.726 1.217c-.256 0-.514-.009-.767-.027-.161-.011-.31-.024-.44-.039l-3.766 12.3a.5.5 0 01-.479.354zm6.042-16.261a6.429 6.429 0 00-.966 1.512c.154.007.308.011.458.011a5.9 5.9 0 005.97-3.975 7.614 7.614 0 00-5.462 2.451zm-2.91-5.472a6.6 6.6 0 001.151 1.232l.536-1.7a5.8 5.8 0 00-2.781-5.622 7.774 7.774 0 001.094 6.089zm8.249-6.291a7.092 7.092 0 00-3.211 4.218 8.209 8.209 0 004.062-1.342 6.38 6.38 0 002.559-4.161A10.6 10.6 0 0051.988 17zM51.322 2.97a9.137 9.137 0 00-2.632 4.061 7.2 7.2 0 00.8 5.589 11.716 11.716 0 002.157-3.63 8.094 8.094 0 00.427-3.685 7.958 7.958 0 00-.689-2.4z" fill="#fff"/>
</svg>
