<svg xmlns="http://www.w3.org/2000/svg" viewBox="0 0 70 70">
  <path d="M69.9 59.6c-.2-.4-.5-.6-.9-.6h-4.2V46.5c0-3.9-3.1-7-6.9-7.2v-11c0-3.1-2.6-5.7-5.7-5.7h-2.4v-2.8c.8-.3 1.5-1 1.8-1.9.1-.2.1-.4.1-.6 1.3.5 2.7.1 3.6-1 .1-.1.1-.2.2-.3.5-1.3.1-2.8-1-3.7 1.1-.8 1.5-2.3 1-3.6 0-.1-.1-.2-.2-.3-.9-1.1-2.4-1.5-3.7-.9-.2-1.6-1.4-2.7-2.8-2.7h-.2c-1.4.2-2.5 1.3-2.7 2.7-.4-.2-.8-.2-1.3-.2-.2-.1-.4-.2-.6-.2h-4.1C39.3 6 38.4 5 37.4 4.2c0 0-.1 0-.1-.1-1.5-.8-3.3-1.1-5-.7-.3.1-.6.2-.7.5-.2.3-.2.6-.1.9.3.8.7 1.6 1.2 2.3h-5.5c-3.1 0-5.7 2.6-5.7 5.7v9.9H19c-3.1 0-5.7 2.6-5.7 5.7v2.7c-1-.1-2.1.3-2.8 1.2-.1.1-.1.2-.2.3-.5 1.3-.1 2.8 1 3.7-1.1.8-1.5 2.3-1 3.7l.1.1c-2.4 1.2-4.1 3.6-4.1 6.5V59H2.2c-.4 0-.8.2-.9.6-.2.4-.1.8.1 1.1l4.4 5.7c.2.3.5.4.8.4h58c.3 0 .6-.1.8-.4l4.4-5.7c.2-.4.3-.8.1-1.1zM46.6 11c.3.4.9.6 1.4.3.5-.3.7-.8.4-1.3-.3-.6-.4-1.2-.5-1.9-.1-.5.3-1 .8-1.1.3 0 .7.5.7 1.1-.1.6-.2 1.2-.5 1.8-.2.5 0 1.1.4 1.3.5.3 1.1.1 1.4-.3.4-.5.8-1 1.4-1.4.4-.3 1-.3 1.3.1.1.5-.1 1-.6 1.2-.6.3-1.2.4-1.9.5-.5.1-.9.5-.9 1s.4 1 .9 1c.6.1 1.3.2 1.9.5.5.2.7.7.6 1.2-.4.3-.9.4-1.3.1-.5-.4-1-.8-1.4-1.4-.3-.4-.9-.6-1.4-.3-.5.3-.7.8-.4 1.3.3.6.4 1.2.5 1.9V17.2c-.1.4-.5.7-1 .5-.4-.1-.7-.5-.5-1v-.2c.1-.6.2-1.3.5-1.9.2-.5 0-1.1-.4-1.3-.2-.1-.3-.1-.5-.1-.3 0-.6.2-.8.4-.4.5-.8 1-1.4 1.4-.4.3-1 .3-1.3-.1-.1-.5.1-1 .6-1.2.6-.3 1.2-.4 1.9-.5.5-.1.9-.5.9-1s-.4-1-.9-1c-.6-.1-1.3-.2-1.9-.5-.5-.2-.7-.7-.6-1.2.4-.3.9-.4 1.3-.1.5.6 1 1.1 1.3 1.6zM36.2 6c.5.3.9.8 1.3 1.3l-.3.3c-.6-.2-1.2-.3-1.7-.6-.6-.4-1.2-1-1.6-1.7.8.1 1.6.3 2.3.7zM12.3 33.5c.4-.3.9-.4 1.3-.1.5.4 1 .9 1.4 1.4.3.4.9.6 1.4.3.5-.3.6-.8.4-1.3-.3-.6-.4-1.2-.5-1.9-.1-.5.3-1 .8-1.1.3.1.6.6.6 1.2-.1.6-.2 1.2-.5 1.8-.2.5 0 1.1.4 1.3.5.3 1.1.1 1.4-.3.4-.5.8-1 1.4-1.4l.1-.1c.1-.1.2-.2.4-.2.4-.1.8.1 1 .6.1.2 0 .4-.1.6-.1.2-.3.3-.5.4-.1 0-.1 0-.1.1-.6.3-1.2.4-1.9.5-.5.1-.9.5-.9 1s.4 1 .9 1c.7.1 1.3.2 1.9.5 0 0 .1 0 .2.1.1 0 .3.1.4.2.3.3.3.8 0 1.1-.1.1-.1.1-.2.1h-.7c-.1 0-.1-.1-.2-.1l-.1-.1c-.5-.4-1-.8-1.4-1.4-.3-.4-.9-.6-1.4-.3-.5.3-.7.8-.4 1.3.3.6.4 1.2.5 1.9.1.5-.3 1-.8 1.1-.3-.1-.6-.5-.6-1.2.1-.6.2-1.2.5-1.8.2-.5 0-1.1-.4-1.3-.5-.3-1.1-.1-1.4.3-.4.5-.8 1-1.4 1.4-.4.3-1 .3-1.3-.1-.1-.5.1-1 .6-1.2.6-.3 1.2-.4 1.9-.5.5-.1.9-.5.9-1s-.4-1-.9-1c-.6-.1-1.3-.2-1.9-.5-.7-.3-.9-.8-.8-1.3zm-3.8 13c0-2.8 2.3-5.1 5.1-5.1h.7c.3 1.4 1.4 2.4 2.7 2.4h.2c1.3-.2 2.3-1.2 2.6-2.4h.6c.4.1.9.1 1.4 0h1.5c-.7.4-1.2 1.1-1.5 1.9v.2c-.1.7.1 1.3.6 1.9.4.6 1.1 1 1.9 1.2-.7 1.2-.5 2.7.4 3.8.1.1.2.2.3.2 1.3.7 2.8.4 3.7-.6.6 1 1.6 1.6 2.7 1.6.3 0 .5 0 .8-.1.1 0 .2-.1.3-.1 1.2-.8 1.7-2.2 1.4-3.5 1.4 0 2.6-.9 3-2.3v-.2c.1-1.4-.9-2.6-2.4-3.1.1-.2.2-.5.3-.7h2.6c.6 0 1-.5 1-1 0-.6-.5-1-1-1h-2.7c-.1-.3-.3-.7-.6-.9-.1-.1-.2-.2-.3-.2-1.3-.7-2.8-.4-3.8.6-.7-1.2-2.1-1.8-3.5-1.5-.1 0-.2.1-.3.1-.7.4-1.2 1.1-1.4 1.9h-1c.2-.9 0-2-.7-2.7-.1-.1-.3-.2-.4-.3.9-.7 1.4-1.9 1.1-3.1-.4-1.5-2-2.5-3.5-2.1-.2.1-.4.1-.6.2-.3-1.5-1.4-2.7-2.8-2.7h-.2c-.6.1-1 .3-1.5.6v-.9c0-2 1.6-3.6 3.6-3.6h15.4c.6 0 1.1-.5 1.1-1 0-.6-.5-1-1.1-1H23.5v-9.9c0-2 1.6-3.6 3.6-3.6h8c1 .4 2 .6 3 .6.5 0 .9 0 1.4-.1.3-.1.5-.2.7-.4h1.7c-.3 1.2.2 2.5 1.1 3.2-1.1.8-1.5 2.3-1 3.6 0 .1.1.2.2.3.9 1.1 2.4 1.5 3.6 1 .1 1.1.7 2 1.8 2.5v2.9H46c-.6 0-1 .5-1 1 0 .6.5 1 1 1h6.1c2 0 3.6 1.6 3.6 3.6v10.9H41.2c-.6 0-1 .5-1 1 0 .6.5 1 1 1h16.3c2.8 0 5.1 2.3 5.1 5.1V59H8.5V46.5zm18.7-7.2c.5 0 1 .3 1.1.7.2.6.3 1.3.3 1.9 0 .5.4 1 .9 1.1.5.1 1-.3 1.1-.8.2-.6.4-1.3.7-1.8.3-.4.8-.6 1.3-.5.3.4.2 1-.1 1.3-.4.5-1 .9-1.5 1.2-.5.3-.7.8-.4 1.3.2.5.8.7 1.3.6.6-.2 1.2-.3 1.9-.3.7.1 1.1.5 1.1.8-.2.5-.7.8-1.2.6-.6-.1-1.2-.4-1.8-.7-.5-.3-1.1-.2-1.4.3-.3.4-.3 1 .1 1.4.5.4.9 1 1.2 1.5.3.4.2 1-.2 1.3-.5.1-1-.3-1.1-.7-.2-.6-.3-1.3-.3-1.9 0-.5-.4-1-.9-1h-.1c-.5 0-.9.3-1 .8-.1.6-.4 1.2-.7 1.8-.3.4-.8.6-1.2.5-.3-.4-.2-1 .1-1.3.5-.5 1-.9 1.5-1.2.5-.3.7-.8.4-1.3-.2-.5-.8-.7-1.3-.6-.6.2-1.2.3-1.9.3-.4-.1-.8-.3-1-.5-.1-.1-.1-.2-.1-.3.2-.5.7-.8 1.2-.6.6.1 1.2.4 1.8.7.5.3 1.1.1 1.4-.3.3-.4.3-1-.1-1.4-.5-.4-.9-1-1.2-1.5 0-.1-.1-.2-.1-.2v-.2c-.1-.5 0-.8.2-1zM64 64.6H7.1l-.6-.7h33.8c.6 0 1-.5 1-1 0-.6-.5-1-1-1H4.9l-.6-.7H66.6l-.6.7H52.7c-.6 0-1 .5-1 1 0 .6.5 1 1 1h11.9l-.6.7zM48.8 46.4c.4-1.3-.1-2.8-1.3-3.6-.1-.1-.2-.1-.3-.1-1.3-.4-2.7.1-3.5 1.2-.8-.9-2-1.3-3.2-.9-1.5.5-2.3 2.2-1.7 3.7l.3.6c-.7.2-1.4.6-1.8 1.1-.5.5-.7 1.2-.6 1.9v.2c.3 1.4 1.6 2.3 2.9 2.4-.4 1.3.1 2.8 1.3 3.6.1.1.2.1.3.1.3.1.6.1.9.1 1.1 0 2.1-.6 2.7-1.5.9 1 2.4 1.3 3.7.7 0 0 .1 0 .1-.1.5-.4.9-.9 1-1.6.1-.7 0-1.5-.4-2.3.8-.2 1.4-.6 1.9-1.1.5-.5.7-1.2.6-1.9v-.2c-.3-1.3-1.5-2.3-2.9-2.3zm.7 3c-.2.2-.6.4-1 .5-.6 0-1.2-.1-1.8-.3-.5-.2-1.1.1-1.3.5-.2.5-.1 1.1.4 1.3.5.3 1 .7 1.5 1.2.3.5.4.9.3 1.1 0 .1-.1.2-.1.2-.5.2-1.1 0-1.3-.5-.3-.6-.5-1.2-.7-1.8-.1-.5-.6-.9-1.1-.8-.5 0-.9.5-1 1 0 .7-.1 1.3-.3 1.9-.2.5-.7.8-1.2.7-.4-.3-.5-.9-.2-1.3.3-.5.8-1 1.2-1.5.4-.3.5-.9.2-1.4-.3-.4-.9-.6-1.4-.3-.6.3-1.2.5-1.8.7-.5.1-1-.2-1.2-.7 0-.1.1-.2.1-.3.2-.2.6-.4 1-.5.6 0 1.3.1 1.8.3.5.2 1.1-.1 1.3-.6.2-.5.1-1.1-.4-1.3-.6-.3-1.1-.8-1.5-1.2l-.1-.1c-.1-.1-.2-.2-.2-.3-.1-.2-.1-.4 0-.6.1-.2.2-.3.4-.4.4-.1.9.1 1 .5 0 0 0 .1.1.1.3.6.5 1.2.6 1.8.1.5.6.9 1.1.9.5 0 1-.5 1-1 0-.6.1-1.3.3-1.9.2-.5.7-.8 1.2-.7.4.3.5.9.2 1.3-.3.6-.8 1.1-1.3 1.5-.4.4-.5 1-.2 1.4.3.4.9.6 1.4.3.6-.3 1.2-.5 1.8-.7.5-.1 1 .2 1.2.7.2.2.1.3 0 .3zM5.7 42.9h.1c1.6-.7 2.9-1.9 3.8-3.4.1-.3.2-.6.1-.9 0 0 0-.1-.1-.1.1-.2.2-.4.1-.7-.3-1.7-1.1-3.3-2.4-4.5l-.1-.1c-1.4-1-3.1-1.5-4.8-1.5-.3 0-.6.1-.8.4-.2.2-.3.5-.2.8.3 1.7 1.1 3.3 2.4 4.5l.1.1c.1.1.2.1.3.2H4h-.1c-1.6.7-2.9 1.9-3.8 3.4-.1.4-.1.7 0 1 .1.3.3.5.6.6.9.4 1.9.5 2.9.5.7 0 1.4-.1 2.1-.3zM3.9 34c.7.2 1.5.5 2.1 1 .6.5 1 1.2 1.3 1.9-.7-.2-1.5-.5-2.1-.9-.5-.6-1-1.3-1.3-2zm.8 5.8c.7-.2 1.5-.3 2.3-.2-.5.6-1.2 1-1.9 1.3-.7.2-1.5.3-2.3.2.5-.6 1.2-1 1.9-1.3zm47.8-21.7c-.3.1-.5.3-.6.6-.1.3-.1.6 0 .8 1.1 2.6 3.7 4.3 6.4 4.3.8 0 1.6-.1 2.4-.5.3-.1.5-.3.6-.6.1-.3.1-.6 0-.8-1.4-3.5-5.3-5.1-8.8-3.8zm6.2 3.5c-1.6.2-3.3-.5-4.3-1.9 1.7-.1 3.3.6 4.3 1.9z"/>
</svg>
