<svg xmlns="http://www.w3.org/2000/svg" viewBox="0 0 70 70">
  <path d="M60.1 39.1c-.2.3-.5.5-.8.5-.1 0-.3 0-.4-.1-7.8-4.1-12-12.7-10.3-21.3.1-.5.6-.8 1.1-.7.5.1.8.6.7 1.1-1.5 7.9 2.3 15.6 9.4 19.3.4.2.6.7.3 1.2zm.7-6.1c-.1-.5-.6-.8-1.1-.7-.5.1-.8.6-.7 1.1l.6 2.8c.1.4.5.8.9.8h.2c.5-.1.8-.6.7-1.1l-.6-2.9zm-2.2 10.8c-.5-.2-1 0-1.2.4l-1.2 2.6c-.2.5 0 1 .4 1.2.1.1.3.1.4.1.3 0 .7-.2.8-.5L59 45c.3-.4.1-.9-.4-1.2zm2-.3c-.5-.1-1 .3-1.1.8l-1.2 7.1c-.1.5.3 1 .8 1.1h.2c.5 0 .8-.3.9-.8l1.2-7.1c.1-.6-.3-1-.8-1.1zM20.4 17.4c-.5.1-.8.6-.7 1.1 1.5 7.9-2.3 15.6-9.4 19.3-.5.2-.6.8-.4 1.3.2.3.5.5.8.5.1 0 .3 0 .4-.1 7.8-4.1 12-12.7 10.3-21.3 0-.6-.5-.9-1-.8zm-9.9 18.8l.6-2.8c.1-.5-.2-1-.7-1.1-.5-.1-1 .2-1.1.7l-.6 2.8c-.1.5.2 1 .7 1.1h.2c.4 0 .8-.3.9-.7zm1.7 11.5c.2.3.5.5.8.5.1 0 .3 0 .4-.1.5-.2.7-.8.4-1.2l-1.2-2.6c-.2-.5-.8-.7-1.2-.4-.5.2-.7.8-.4 1.2l1.2 2.6zm-2.4 4c.1.5.5.8.9.8h.2c.5-.1.9-.6.8-1.1l-1.2-7.1c-.1-.5-.6-.9-1.1-.8-.5.1-.9.6-.8 1.1l1.2 7.1zM70 63c0 .5-.4.9-.9.9H42.2c-.5 0-.9-.4-.9-.9s.4-.9.9-.9h5.4c0-.6 0-1.2.1-1.7h-8.3c-.5 0-.9-.4-.9-.9s.4-.9.9-.9H48c.9-6.9 3.8-13.1 7.7-16.4C45.5 39.1 37.9 29.9 37.2 19c-.9.6-1.5 1-1.7 1.2-.2.1-.3.1-.5.1s-.3 0-.5-.1-.9-.6-1.8-1.2c-.7 11-8.2 20.1-18.4 23.2 4.6 3.8 7.8 11.7 8 20h5.4c.5 0 .9.4.9.9s-.3.9-.8.9H.9c-.5 0-.9-.4-.9-1s.4-.9.9-.9h5V27.6c0-9.4 7.7-17.1 17.1-17.1h3.6c.2-2.4 2.2-4.4 4.7-4.5 1.5 0 2.8.7 3.7 1.8.9-1.1 2.2-1.8 3.6-1.8h.1c2.5.1 4.5 2.1 4.6 4.5H47c9.4 0 17.1 7.7 17.1 17.1v34.5h5c.5 0 .9.4.9.9zM12 42.7c-1.4.3-2.8.4-4.2.5v18.9h12.6c-.2-8.3-3.6-16.3-8.4-19.4.1.1.1 0 0 0zm18.9-25.2c-1.7-1.4-3.5-3.3-4.1-5.1H23c-8.4 0-15.2 6.9-15.2 15.2v13.7c12.8-.4 23-10.9 23.1-23.8zm10.6-6.1v-.5c0-1.6-1.2-3-2.9-3.1-1.3 0-2.5 1-2.7 2.3-.1.4-.5.7-.9.7s-.8-.3-.9-.7c-.3-1.3-1.4-2.3-2.8-2.3-1.6.1-2.9 1.4-2.8 3.1v.5c.2 2 3.9 5.1 6.5 6.8 2.6-1.6 6.3-4.7 6.5-6.8zm20.7 29.9V27.6c0-8.4-6.8-15.2-15.2-15.2h-3.7c-.6 1.9-2.4 3.7-4.1 5.2 0 12.8 10.2 23.3 23 23.7zM49.6 62.1h12.6V43.2c-1.4-.1-2.8-.2-4.2-.5l-.1.1c-4.7 3-8.1 11-8.3 19.3z"/>
</svg>
