<svg xmlns="http://www.w3.org/2000/svg" viewBox="0 0 70 70">
  <path d="M55 23h-6.6l-2.3-3.3c-.2-.3-.6-.5-.9-.5h-4.1v-3.1h10c.6 0 1.1-.5 1.1-1.1V1.1C52.2.5 51.7 0 51 0H19c-.6 0-1.1.5-1.1 1.1V15c0 .6.5 1.1 1.1 1.1h10.1v3.1h-4.2c-.4 0-.7.2-.9.5L21.6 23h-2.3l-.5-2.9c-.1-.5-.6-.9-1.1-.9h-5.3c-.5 0-1 .4-1.1.9l-.6 3.5v.4c-3.5 1.6-5.9 5.2-5.9 9.3v26.5c0 1.8.5 3.5 1.3 5-.2.2-.3.4-.3.7 0 .6.5 1.1 1.1 1.1h.5C9.3 68.7 12 70 15 70h40c3 0 5.7-1.3 7.6-3.4h.4c.6 0 1.1-.5 1.1-1.1 0-.3-.1-.5-.3-.7.8-1.5 1.3-3.2 1.3-5V33.2C65.2 27.6 60.6 23 55 23zM20.1 2.3h29.8v11.6H20.1V2.3zm11.2 13.8h7.5v3.1h-7.5v-3.1zm-5.8 5.4h19l1.1 1.5H24.4l1.1-1.5zm-12.2 0h3.5l.3 1.5H15c-.7 0-1.3.1-2 .2l.3-1.7zM7 33.2c0-4.4 3.6-8 8-8h40c4.4 0 8 3.6 8 8v5.1h-2.5c-.5-2.2-2.5-3.8-4.8-3.8s-4.3 1.6-4.8 3.8h-2.4c-2.8-4.6-7.8-7.7-13.6-7.7s-10.8 3.1-13.6 7.7h-10c-.6 0-1.1.5-1.1 1.1 0 .6.5 1.1 1.1 1.1h8.9c-.7 1.8-1.2 3.8-1.2 5.9 0 8.8 7.1 15.9 15.9 15.9s15.9-7.1 15.9-15.9c0-2.1-.4-4.1-1.2-5.9H51c.5 2.2 2.5 3.8 4.8 3.8s4.3-1.6 4.8-3.8H63v19.2c0 1.7-.6 3.3-1.5 4.6h-53C7.6 63.1 7 61.5 7 59.8V33.2zm51.4 6.2c0 1.5-1.2 2.7-2.7 2.7-1.5 0-2.7-1.2-2.7-2.7 0-1.5 1.2-2.7 2.7-2.7 1.5.1 2.7 1.3 2.7 2.7zM35 32.9c7.5 0 13.6 6.1 13.6 13.6S42.5 60.1 35 60.1 21.4 54 21.4 46.5 27.5 32.9 35 32.9zm20 34.8H15c-1.5 0-2.9-.4-4-1.1h48c-1.1.7-2.5 1.1-4 1.1zM27.1 46.5c0-.6.5-1.1 1.1-1.1.6 0 1.1.5 1.1 1.1 0 3.1 2.5 5.6 5.6 5.6.6 0 1.1.5 1.1 1.1s-.5 1.1-1.1 1.1c-4.2.1-7.8-3.5-7.8-7.8zM35 58.1c6.4 0 11.6-5.2 11.6-11.6 0-6.4-5.2-11.6-11.6-11.6s-11.6 5.2-11.6 11.6c0 6.4 5.2 11.6 11.6 11.6zm0-21c5.2 0 9.4 4.2 9.4 9.4s-4.2 9.4-9.4 9.4-9.4-4.2-9.4-9.4 4.2-9.4 9.4-9.4zM8.9 8.5c0-.6.5-1.1 1.1-1.1h4.6c.6 0 1.1.5 1.1 1.1s-.5 1.1-1.1 1.1H10c-.6 0-1.1-.5-1.1-1.1zm6.7 3c.3.5.1 1.2-.4 1.5l-3.9 2.2c-.2.1-.4.1-.6.1-.4 0-.8-.2-1-.6-.3-.5-.1-1.2.4-1.5L14 11c.6-.2 1.2 0 1.6.5zM9.7 2.1c.3-.5 1-.7 1.5-.4l3.9 2.2c.5.3.7 1 .4 1.5-.2.4-.5.6-.9.6-.2 0-.4 0-.6-.1l-3.9-2.2c-.5-.3-.7-1-.4-1.6zm44.6 6.4c0-.6.5-1.1 1.1-1.1H60c.6 0 1.1.5 1.1 1.1s-.5 1.1-1.1 1.1h-4.6c-.6 0-1.1-.5-1.1-1.1zm.1-3c-.3-.5-.1-1.2.4-1.5l3.9-2.2c.5-.3 1.2-.1 1.5.4.3.5.1 1.2-.4 1.5L56 5.9c-.2.1-.4.1-.6.1-.4 0-.7-.2-1-.5zm5.5 7.8c.5.3.7 1 .4 1.5-.2.4-.6.6-1 .6-.2 0-.4 0-.6-.1L54.9 13c-.5-.3-.7-1-.4-1.5.3-.5 1-.7 1.5-.4l3.9 2.2zM38 4.5c0-.6.5-1.1 1.1-1.1h7.6c.6 0 1.1.5 1.1 1.1s-.5 1.1-1.1 1.1h-7.6c-.5 0-1.1-.5-1.1-1.1zm-4.2 0c0-.6.5-1.1 1.1-1.1h1.6c.6 0 1.1.5 1.1 1.1s-.5 1.1-1.1 1.1H35c-.7 0-1.2-.5-1.2-1.1z"/>
</svg>
