<svg xmlns="http://www.w3.org/2000/svg" width="98.021" height="42.149" viewBox="0 0 98.021 42.149">
  <path id="Signature" d="M26.887-15.289a.8.8,0,0,0-.835-.656c-.179,0-.358.06-.537.06a21.165,21.165,0,0,0-2.8.537,3.789,3.789,0,0,1-.894.179c-.358,0-.358-.3-.417-1.133a2.028,2.028,0,0,0-.06-.6c-.179-3.816-.417-7.571-.6-11.387a3.556,3.556,0,0,0-1.252-2.623c-.894-.715-1.371-1.133-2.027-1.133a3.739,3.739,0,0,0-1.729.715c-1.848,1.192-3.7,2.623-5.485,3.875A15.789,15.789,0,0,1,3.4-24.41a2.242,2.242,0,0,0,1.908.835c.358,0,.656-.06.954-.06A10.89,10.89,0,0,0,11.089-25.3c1.61-.894,3.219-1.848,4.829-2.8.358-.179.775-.417,1.371-.715v1.431c-.119,4.412-.119,8.764-.119,13.175a2.236,2.236,0,0,1-1.431,2.146A42.435,42.435,0,0,0,1.788.808,12.3,12.3,0,0,0,.3,3.729,3.99,3.99,0,0,0,.536,7.306,6.233,6.233,0,0,0,5.6,9.929a3.4,3.4,0,0,0,.775-.06C13.116,8.856,19.495-.146,20.747-6.525c.417-2.146.537-4.292.775-6.5.06-.417-.06-.835.477-1.073A10.052,10.052,0,0,1,26.887-15.289ZM16.693-11.056C15.977-6.406,12.52.093,9.419,3.431A29.01,29.01,0,0,1,5.365,7.008,7.057,7.057,0,0,1,2.683,8.081c-.417,0-.656-.3-.775-.835a5.524,5.524,0,0,1,.119-3.4c1.729-5.127,9.36-11.8,13.652-14.487a1.237,1.237,0,0,1,.6-.358C16.335-11.056,16.454-11.056,16.693-11.056Zm25.755-2.623c-.238.358-.537.775-.775,1.133-.894,1.073-1.789,2.206-2.742,3.279a12.326,12.326,0,0,1-1.49.894,8.051,8.051,0,0,1-.238-1.669c.06-1.61.238-3.219.358-4.829.119-1.431.06-1.61-.835-1.908a.756.756,0,0,0-.358-.06c-.656,0-.715.775-.954,1.192-.954,1.669-1.789,3.339-2.8,4.948a23.363,23.363,0,0,1-2.325,3.1,4.383,4.383,0,0,1-1.013.715,2.932,2.932,0,0,1-.3-1.192c.119-1.908.238-3.756.417-5.664a7.547,7.547,0,0,0,.238-1.55,1.21,1.21,0,0,0-.656-.775c-.119-.06-.179-.119-.3-.119-.238,0-.417.238-.477.537a15.015,15.015,0,0,0-.954,7.929,2.6,2.6,0,0,0,2.444,2.087,2.037,2.037,0,0,0,1.669-1.013c1.013-1.371,1.967-2.862,2.981-4.292.238-.358.3-.894.954-1.013a12.42,12.42,0,0,0,0,1.49,5.963,5.963,0,0,0,.358,1.789,2.507,2.507,0,0,0,2.265,1.55,2.01,2.01,0,0,0,1.013-.3,9.722,9.722,0,0,0,3.756-4.71C42.865-12.666,43.044-13.142,42.447-13.679ZM48.767-3.425a4.6,4.6,0,0,1-.358-.894,21.01,21.01,0,0,1-.537-6.975c.3-4.71.656-9.479.894-14.249a30.338,30.338,0,0,0-.179-4.65c-.119-1.252-.835-1.789-2.027-2.027-.417,0-.775,0-.835.537-.179.656-.3,1.312-.417,1.908A93.331,93.331,0,0,0,43.7-11.592c.06,3.637.894,9.062,5.246,9.718.835,0,1.431-.06,1.908-.835a14.243,14.243,0,0,0,1.431-2.623c.477-1.312,3.7-9.9,3.7-10.552,0-.238-.06-.3-.3-.3-.179,0-.3,0-.358.06a3,3,0,0,0-.477.715c-.477,1.133-.954,2.325-1.431,3.4-.894,2.027-1.669,3.994-2.564,5.9A6.856,6.856,0,0,1,48.767-3.425Zm9.6-8.346v-2.683a.929.929,0,0,0-.954-.894h-.119c-.477,0-.6.3-.715.656A9.465,9.465,0,0,0,56.1-9.387a3.55,3.55,0,0,0,3.637,2.981,1.612,1.612,0,0,0,1.55-1.073,20.9,20.9,0,0,0,2.206-5.187.736.736,0,0,0-.238-.477c-.119.06-.3.119-.358.238-.179.3-.238.656-.417.954-.775,1.312-1.49,2.623-2.325,3.875-.179.358-.656.537-.954.775a3.624,3.624,0,0,1-.537-1.073A32.682,32.682,0,0,1,58.365-11.771Zm1.192-9.718a1.942,1.942,0,0,0-2.027-2.146c-.417,0-.656.3-.715.954A20.158,20.158,0,0,0,56.756-20c.06.417.537,2.385,1.133,2.385.179,0,.358-.179.656-.537A7.009,7.009,0,0,0,59.558-21.489Zm7.631,9.6c.417-.238,1.013-.358,1.252-.715a21.324,21.324,0,0,0,2.265-3.279,2.2,2.2,0,0,0-.835-2.981,2.769,2.769,0,0,0-1.371-.358,2.688,2.688,0,0,0-2.146,1.133A10.972,10.972,0,0,0,64.506-7.837a4.484,4.484,0,0,0,3.935,3.1,2.643,2.643,0,0,0,2.742-1.312,9.889,9.889,0,0,1-.954.358,10.749,10.749,0,0,1-1.133.3.756.756,0,0,1-.358.06,1.46,1.46,0,0,1-1.252-.775A6.609,6.609,0,0,1,66.95-7.24,11.875,11.875,0,0,1,68.2-17.256c.238-.417.6-1.013,1.073-1.013a.537.537,0,0,1,.3.06c.3.179.3,1.073.358,1.669a2.382,2.382,0,0,1-.417,1.073A15.341,15.341,0,0,1,67.189-11.891ZM83.762-12.9a2.582,2.582,0,0,1-.3-.06c-1.073,2.325-2.146,4.65-3.279,6.975a1.288,1.288,0,0,1-1.431.954c-.417-.119-.775-.775-.954-1.252a10.774,10.774,0,0,1-.537-4.948c.358-3.279.715-6.5,1.013-9.777.119-1.312.119-1.312,1.431-1.49a2.9,2.9,0,0,0,.715-.06c5.544-.537,11.089-1.013,16.633-1.55.358-.06.656-.179.954-.238v-.3a13.889,13.889,0,0,0-2.742-.477c-2.623,0-5.246,0-7.869.179-2.564.179-5.187.6-7.75.894-.238,0-.417.06-.6.06-.477,0-.537-.238-.417-.954a11.566,11.566,0,0,0,.119-2.027c0-.6-.6-.954-1.312-1.073h-.119c-.537,0-.656.417-.835.835a22.712,22.712,0,0,0-.775,2.683A1.356,1.356,0,0,1,74.4-23.277c-3.1.358-6.2.894-9.3,1.312-.477.119-.894.238-1.371.358,0,.119.06.238.06.358h1.371c1.908-.119,3.875-.179,5.842-.3,1.013-.119,2.087-.238,3.1-.3.179,0,.358-.06.477-.06.537,0,.6.238.477,1.073a.862.862,0,0,0-.119.417c-.238,2.564-.537,5.187-.775,7.81a10.957,10.957,0,0,0,.715,4.769,5.13,5.13,0,0,0,3.577,3.4,3.481,3.481,0,0,0,1.192.238c2.206,0,3.816-5.9,4.173-7.571A7.217,7.217,0,0,0,83.762-12.9Z" transform="translate(0.01 32.22)" fill="#fff"/>
</svg>
